<svg width="235" height="230" viewBox="0 0 235 230" fill="none" xmlns="http://www.w3.org/2000/svg">
<path d="M126.18 125.861V121.865L122.19 121.425C121.975 120.591 121.645 119.79 121.211 119.046L123.734 115.896L120.91 113.072L117.77 115.58C117.028 115.144 116.232 114.81 115.402 114.585L114.956 110.579H110.961L110.515 114.569C109.682 114.785 108.882 115.112 108.137 115.543L104.986 113.025L102.162 115.849L104.649 118.989C104.213 119.73 103.88 120.527 103.66 121.357L99.6489 121.803V125.798L103.639 126.244C103.855 127.078 104.184 127.878 104.618 128.622L102.095 131.773L104.924 134.597L108.059 132.089C108.8 132.524 109.597 132.857 110.427 133.079L110.878 137.09H114.868L115.314 133.1C116.147 132.882 116.947 132.553 117.692 132.12L120.843 134.639L123.667 131.814L121.159 128.679C121.594 127.936 121.929 127.138 122.154 126.306L126.18 125.861ZM112.94 128.602C111.998 128.602 111.076 128.322 110.292 127.798C109.508 127.274 108.897 126.53 108.536 125.659C108.175 124.788 108.081 123.829 108.265 122.904C108.449 121.98 108.903 121.13 109.569 120.463C110.236 119.797 111.086 119.343 112.01 119.159C112.935 118.975 113.894 119.069 114.765 119.43C115.636 119.791 116.38 120.402 116.904 121.186C117.428 121.97 117.708 122.892 117.708 123.834C117.708 125.099 117.205 126.311 116.311 127.205C115.417 128.099 114.205 128.602 112.94 128.602Z" fill="#97ADFF" stroke="#606060" stroke-linecap="round" stroke-linejoin="round"/>
<path d="M141.881 117.844L141.436 115.196L138.746 115.346C138.509 114.819 138.203 114.326 137.834 113.88L139.156 111.517L136.969 109.962L135.171 111.973C134.632 111.763 134.067 111.63 133.492 111.579L132.756 108.988L130.108 109.434L130.258 112.123C129.73 112.358 129.236 112.665 128.792 113.035L126.413 111.693L124.859 113.875L126.869 115.673C126.66 116.213 126.526 116.78 126.47 117.357L123.879 118.093L124.32 120.741L127.009 120.59C127.246 121.118 127.553 121.611 127.921 122.057L126.605 124.42L128.787 125.974L130.585 123.964C131.123 124.173 131.688 124.306 132.264 124.358L133.005 126.949L135.647 126.503L135.502 123.814C136.031 123.579 136.524 123.272 136.969 122.902L139.332 124.223L140.886 122.041L138.876 120.243C139.081 119.702 139.213 119.136 139.27 118.559L141.881 117.844ZM133.409 121.124C132.785 121.228 132.145 121.145 131.569 120.885C130.992 120.625 130.506 120.2 130.171 119.664C129.837 119.128 129.668 118.505 129.687 117.873C129.707 117.241 129.913 116.629 130.28 116.114C130.647 115.6 131.158 115.205 131.749 114.981C132.34 114.757 132.985 114.713 133.601 114.855C134.217 114.997 134.777 115.318 135.21 115.778C135.644 116.238 135.931 116.817 136.036 117.44C136.106 117.854 136.093 118.278 135.999 118.688C135.905 119.098 135.73 119.485 135.486 119.827C135.242 120.169 134.933 120.46 134.577 120.682C134.22 120.905 133.823 121.055 133.409 121.124Z" fill="#263238" stroke="#606060" stroke-miterlimit="10"/>
<path d="M183.196 98.2985C183.002 98.0572 182.744 97.7314 182.441 97.3394C181.755 96.4521 180.841 95.2282 179.928 93.8795C179.014 92.5291 178.108 91.0631 177.432 89.6906C176.747 88.3006 176.333 87.0728 176.333 86.1778C176.333 84.3575 177.056 82.6117 178.343 81.3246C179.63 80.0374 181.376 79.3143 183.196 79.3143C185.016 79.3143 186.762 80.0374 188.049 81.3246C189.336 82.6117 190.059 84.3575 190.059 86.1778C190.059 87.0728 189.645 88.3006 188.96 89.6906C188.284 91.0631 187.378 92.5291 186.464 93.8795C185.551 95.2282 184.637 96.4521 183.951 97.3394C183.648 97.7314 183.39 98.0572 183.196 98.2985ZM180.752 90.0488C181.476 90.5312 182.327 90.7881 183.197 90.787L183.196 90.287C183.708 90.287 184.214 90.1861 184.687 89.9902C185.159 89.7944 185.588 89.5072 185.95 89.1453C186.311 88.7834 186.598 88.3538 186.793 87.881C186.988 87.4083 187.088 86.9017 187.088 86.3902L187.588 86.3902C187.588 86.39 187.588 86.3898 187.588 86.3895C187.588 85.5199 187.33 84.6699 186.846 83.9469C186.363 83.2237 185.676 82.6602 184.872 82.3276C184.068 81.995 183.184 81.9082 182.331 82.0784C181.478 82.2485 180.695 82.6678 180.08 83.2833C179.465 83.8988 179.047 84.6828 178.878 85.536C178.709 86.3893 178.797 87.2735 179.13 88.0768C179.464 88.8801 180.029 89.5664 180.752 90.0488Z" fill="#263238" stroke="#606060"/>
<path d="M177.9 43.873H184.58V19.0053H177.9V43.873Z" fill="#97ADFF" stroke="#606060" stroke-linecap="round" stroke-linejoin="round"/>
<path d="M168.993 43.8782H175.672V24.5757H168.993V43.8782Z" fill="#263238" stroke="#606060" stroke-miterlimit="10"/>
<path d="M160.09 43.873H166.77V29.027H160.09V43.873Z" fill="#97ADFF" stroke="#606060" stroke-linecap="round" stroke-linejoin="round"/>
<path d="M151.183 43.873H157.862V32.7372H151.183V43.873Z" fill="#263238" stroke="#606060" stroke-miterlimit="10"/>
<path d="M163.709 26.6461L164.015 26.7481L164.234 26.512L169.613 20.7198L172.604 21.629L172.913 21.723L173.126 21.4793L178.806 14.9704L180.971 16.3681L181.255 16.5514L181.531 16.3562L183.745 14.7902L183.79 14.854L181.256 16.6452L179.182 15.3052L178.818 15.0702L178.534 15.3967L172.943 21.8112L169.936 20.8951L169.637 20.8039L169.424 21.0331L164.036 26.8343L160.839 25.7699L160.588 25.6866L160.378 25.8463L154.398 30.3934L154.354 30.3353L160.576 25.6002L163.709 26.6461Z" fill="#263238" stroke="#606060"/>
<path d="M183.022 13.3146L186.324 13.0116L184.938 16.0244L183.022 13.3146Z" fill="#263238" stroke="#606060"/>
<path d="M95.8402 14.6215C96.0549 13.474 95.9263 12.2886 95.4705 11.2139C95.0147 10.1391 94.252 9.22271 93.2779 8.57937C92.3037 7.93603 91.1614 7.59435 89.994 7.59713C88.8266 7.5999 87.686 7.947 86.7149 8.59497C86.0102 6.88101 84.7323 5.46484 83.0996 4.5883C81.4668 3.71175 79.5803 3.42919 77.7624 3.78887C75.9444 4.14854 74.3077 5.12815 73.1317 6.5604C71.9558 7.99265 71.3134 9.78872 71.3144 11.6419C71.3144 11.7404 71.3144 11.8336 71.3144 11.9321C70.1671 12.2617 69.1676 12.9751 68.483 13.9531C67.7985 14.9311 67.4703 16.1145 67.5534 17.3053C67.6365 18.4962 68.1259 19.6225 68.9396 20.4959C69.7534 21.3694 70.8423 21.937 72.0243 22.1041V22.1559H95.5811C96.5557 22.1508 97.4906 21.7687 98.1897 21.0897C98.8889 20.4106 99.2981 19.4873 99.3316 18.5132C99.3651 17.5391 99.0203 16.5899 98.3694 15.8644C97.7186 15.1389 96.8122 14.6935 95.8402 14.6215Z" fill="white" stroke="#606060" stroke-linecap="round" stroke-linejoin="round"/>
<path d="M89.1403 19.7463L82.6163 11.5278L76.0872 19.7463H78.6418V27.1356H86.5908V19.7463H89.1403Z" fill="#263238" stroke="#606060" stroke-linecap="round" stroke-linejoin="round"/>
<path d="M89.1403 18.1554L82.6163 9.94214L76.0872 18.1554H78.6418V25.5499H86.5908V18.1554H89.1403Z" fill="#97ADFF" stroke="#606060" stroke-linecap="round" stroke-linejoin="round"/>
<path d="M70.2927 46.8852L53.6252 41.3374C52.9898 41.1259 52.3033 41.4696 52.0918 42.105L40.5511 76.7772C40.3396 77.4126 40.6833 78.0992 41.3187 78.3107L57.9862 83.8584C58.6216 84.0699 59.3081 83.7263 59.5196 83.0909L71.0603 48.4186C71.2717 47.7832 70.9281 47.0967 70.2927 46.8852Z" fill="#97ADFF" stroke="#606060" stroke-linecap="round" stroke-linejoin="round"/>
<path d="M70.0501 51.4489L71.0865 48.4175C71.1399 48.2649 71.1623 48.1031 71.1522 47.9416C71.1422 47.7802 71.1 47.6224 71.028 47.4776C70.9561 47.3327 70.8559 47.2037 70.7333 47.0982C70.6107 46.9926 70.4683 46.9126 70.3144 46.863L53.6236 41.365C53.4713 41.3107 53.3097 41.2876 53.1483 41.2969C52.9869 41.3063 52.829 41.348 52.684 41.4195C52.5391 41.491 52.4099 41.591 52.3043 41.7133C52.1986 41.8357 52.1186 41.9781 52.0691 42.1319L51.0586 45.1581L70.0501 51.4489Z" fill="#263238" stroke="#606060" stroke-linecap="round" stroke-linejoin="round"/>
<path d="M41.4306 74.0677L40.529 76.7779C40.4747 76.9301 40.4515 77.0918 40.4609 77.2532C40.4703 77.4146 40.5119 77.5724 40.5835 77.7174C40.655 77.8624 40.7549 77.9916 40.8773 78.0972C40.9997 78.2028 41.142 78.2828 41.2959 78.3324L57.9815 83.8563C58.1342 83.909 58.2958 83.9308 58.457 83.9204C58.6182 83.91 58.7758 83.8677 58.9204 83.7958C59.0651 83.724 59.1941 83.624 59.2997 83.5019C59.4054 83.3797 59.4857 83.2377 59.536 83.0842L60.4377 80.3793L41.4306 74.0677Z" fill="#263238" stroke="#606060" stroke-linecap="round" stroke-linejoin="round"/>
<path d="M49.0895 90.5098H19.3716C18.4095 90.5098 17.4869 90.892 16.8067 91.5722C16.1264 92.2525 15.7443 93.1751 15.7443 94.1371V110.875C15.7443 111.837 16.1264 112.759 16.8067 113.439C17.4869 114.12 18.4095 114.502 19.3716 114.502H40.0265L43.7108 120.818L46.3017 114.502H49.1051C50.0671 114.502 50.9897 114.12 51.67 113.439C52.3502 112.759 52.7324 111.837 52.7324 110.875V94.1164C52.7269 93.1553 52.3402 92.2356 51.6572 91.5594C50.9741 90.8832 50.0507 90.5057 49.0895 90.5098Z" fill="#263238" stroke="#606060" stroke-linecap="round" stroke-linejoin="round"/>
<path d="M28.3199 102.323C28.4841 102.569 28.5718 102.858 28.5718 103.154C28.5718 103.55 28.4143 103.93 28.1339 104.211C27.8536 104.491 27.4733 104.649 27.0768 104.649C26.7811 104.649 26.4921 104.561 26.2462 104.397C26.0004 104.232 25.8087 103.999 25.6956 103.726C25.5824 103.453 25.5528 103.152 25.6105 102.862C25.6682 102.572 25.8106 102.306 26.0197 102.096C26.2287 101.887 26.4951 101.745 26.7851 101.687C27.0751 101.63 27.3757 101.659 27.6489 101.772C27.9221 101.886 28.1556 102.077 28.3199 102.323Z" fill="#97ADFF" stroke="#606060"/>
<path d="M36.3051 102.323C36.4694 102.569 36.5571 102.858 36.5571 103.154C36.5571 103.55 36.3995 103.93 36.1192 104.211C35.8388 104.491 35.4585 104.649 35.062 104.649C34.7663 104.649 34.4773 104.561 34.2314 104.397C33.9856 104.232 33.794 103.999 33.6808 103.726C33.5677 103.453 33.5381 103.152 33.5957 102.862C33.6534 102.572 33.7958 102.306 34.0049 102.096C34.214 101.887 34.4804 101.745 34.7704 101.687C35.0604 101.63 35.361 101.659 35.6342 101.772C35.9073 101.886 36.1408 102.077 36.3051 102.323Z" fill="#97ADFF" stroke="#606060"/>
<path d="M44.3061 102.323C44.4703 102.569 44.558 102.858 44.558 103.154C44.558 103.55 44.4005 103.93 44.1201 104.211C43.8398 104.491 43.4595 104.649 43.063 104.649C42.7673 104.649 42.4783 104.561 42.2324 104.397C41.9866 104.232 41.7949 103.999 41.6818 103.726C41.5686 103.453 41.539 103.152 41.5967 102.862C41.6544 102.572 41.7968 102.306 42.0059 102.096C42.215 101.887 42.4813 101.745 42.7713 101.687C43.0614 101.63 43.3619 101.659 43.6351 101.772C43.9083 101.886 44.1418 102.077 44.3061 102.323Z" fill="#97ADFF" stroke="#606060"/>
<path d="M140.601 17.8446L87.6942 46.7698L78.5223 83.8045L129.315 52.4128L140.601 17.8446Z" fill="#263238" stroke="#606060" stroke-linecap="round" stroke-linejoin="round"/>
<path d="M137.87 20.7516L89.6219 47.1273L81.2584 80.8974L127.579 52.2728L137.87 20.7516Z" fill="white" stroke="#606060" stroke-linecap="round" stroke-linejoin="round"/>
<path d="M129.315 52.4127L159.416 68.8599L106.028 105.998L78.5223 83.8044L129.315 52.4127Z" fill="#B0B0B0" stroke="#606060" stroke-linecap="round" stroke-linejoin="round"/>
<path d="M144.436 76.8764L136.839 71.8137L111.868 88.717L119.029 94.4688L144.436 76.8764Z" fill="#B0B0B0" stroke="#606060" stroke-linecap="round" stroke-linejoin="round"/>
<path d="M133.113 61.8658L131.152 63.1234L130.492 62.7401L132.446 61.4891L133.113 61.8658Z" fill="#263238" stroke="#606060"/>
<path d="M99.538 87.9822L101.633 86.6402L102.216 87.0744L100.11 88.4225L99.538 87.9822Z" fill="#263238" stroke="#606060"/>
<path d="M118.365 65.8985L116.432 67.1371L115.798 66.734L117.723 65.502L118.365 65.8985Z" fill="#263238" stroke="#606060"/>
<path d="M130.868 60.5967L128.935 61.8335L128.275 61.45L130.197 60.2194L130.868 60.5967Z" fill="#263238" stroke="#606060"/>
<path d="M97.6125 86.5055L99.6833 85.1841L100.263 85.6175L98.1874 86.9461L97.6125 86.5055Z" fill="#263238" stroke="#606060"/>
<path d="M121.784 63.7081L119.863 64.9382L119.219 64.5441L121.132 63.3179L121.784 63.7081Z" fill="#263238" stroke="#606060"/>
<path d="M115.158 75.2689L117.187 73.9686L117.812 74.3756L115.776 75.6826L115.158 75.2689Z" fill="#263238" stroke="#606060"/>
<path d="M122.177 70.7742L124.19 69.482L124.832 69.8783L122.81 71.1743L122.177 70.7742Z" fill="#263238" stroke="#606060"/>
<path d="M118.666 73.0197L120.689 71.7273L121.321 72.127L119.29 73.426L118.666 73.0197Z" fill="#263238" stroke="#606060"/>
<path d="M132.706 64.026L133.881 63.2764L134.551 63.6532L133.365 64.4091L132.706 64.026Z" fill="#263238" stroke="#606060"/>
<path d="M125.687 68.5242L127.691 67.2408L128.34 67.6302L126.33 68.9179L125.687 68.5242Z" fill="#263238" stroke="#606060"/>
<path d="M129.197 66.2762L131.193 64.9995L131.853 65.3826L129.846 66.6655L129.197 66.2762Z" fill="#263238" stroke="#606060"/>
<path d="M125.205 61.5173L123.29 62.743L122.638 62.353L124.545 61.1338L125.205 61.5173Z" fill="#263238" stroke="#606060"/>
<path d="M90.3135 85.7686L92.3323 84.4767L92.903 84.9137L90.8792 86.2127L90.3135 85.7686Z" fill="#263238" stroke="#606060"/>
<path d="M114.947 68.0899L113.005 69.3324L112.379 68.9252L114.31 67.686L114.947 68.0899Z" fill="#263238" stroke="#606060"/>
<path d="M92.2096 87.2605L94.2549 85.9488L94.8304 86.3899L92.7761 87.7054L92.2096 87.2605Z" fill="#263238" stroke="#606060"/>
<path d="M94.1067 88.7534L96.1816 87.4257L96.7538 87.8658L94.6726 89.1978L94.1067 88.7534Z" fill="#263238" stroke="#606060"/>
<path d="M94.4069 81.2448L92.4153 82.5203L91.8429 82.08L93.8238 80.8106L94.4069 81.2448Z" fill="#263238" stroke="#606060"/>
<path d="M90.9816 83.4407L88.9831 84.7206L88.417 84.2761L90.4094 83.0005L90.9816 83.4407Z" fill="#263238" stroke="#606060"/>
<path d="M111.526 70.2816L109.573 71.5321L108.956 71.1187L110.901 69.8748L111.526 70.2816Z" fill="#263238" stroke="#606060"/>
<path d="M108.105 72.4722L106.142 73.7269L105.537 73.3105L107.488 72.0591L108.105 72.4722Z" fill="#263238" stroke="#606060"/>
<path d="M101.257 76.8564L99.2783 78.1257L98.6886 77.6955L100.656 76.4323L101.257 76.8564Z" fill="#263238" stroke="#606060"/>
<path d="M104.679 74.6643L102.71 75.9263L102.113 75.5035L104.074 74.2482L104.679 74.6643Z" fill="#263238" stroke="#606060"/>
<path d="M97.8342 79.0519L95.847 80.3211L95.2668 79.8875L97.2423 78.6216L97.8342 79.0519Z" fill="#263238" stroke="#606060"/>
<path d="M127.417 62.8075L125.476 64.0494L124.825 63.6624L126.758 62.4243L127.417 62.8075Z" fill="#263238" stroke="#606060"/>
<path d="M109.609 76.1143L111.618 74.8263L112.236 75.2404L110.219 76.535L109.609 76.1143Z" fill="#263238" stroke="#606060"/>
<path d="M113.091 73.8853L115.094 72.6008L115.719 73.0078L113.708 74.299L113.091 73.8853Z" fill="#263238" stroke="#606060"/>
<path d="M116.572 71.6565L118.564 70.3803L119.197 70.7803L117.197 72.063L116.572 71.6565Z" fill="#263238" stroke="#606060"/>
<path d="M111.647 77.5174L113.686 76.2098L114.303 76.6233L112.255 77.9346L111.647 77.5174Z" fill="#263238" stroke="#606060"/>
<path d="M120.053 69.427L122.034 68.1554L122.676 68.5517L120.685 69.8271L120.053 69.427Z" fill="#263238" stroke="#606060"/>
<path d="M126.157 66.3246L124.174 67.5914L123.531 67.1976L125.505 65.9346L126.157 66.3246Z" fill="#263238" stroke="#606060"/>
<path d="M105.274 79.7004L103.242 81.0023L102.65 80.5718L104.676 79.2772L105.274 79.7004Z" fill="#263238" stroke="#606060"/>
<path d="M120.52 67.2246L118.556 68.4799L117.924 68.0801L119.879 66.8286L120.52 67.2246Z" fill="#263238" stroke="#606060"/>
<path d="M85.6612 84.1417L84.3754 84.9663L82.5572 83.4968L83.8357 82.7084L85.6612 84.1417Z" fill="#263238" stroke="#606060"/>
<path d="M106.13 78.3426L108.148 77.0513L108.756 77.4685L106.73 78.7664L106.13 78.3426Z" fill="#263238" stroke="#606060"/>
<path d="M127.01 64.9693L128.975 63.7095L129.636 64.0933L127.663 65.3597L127.01 64.9693Z" fill="#263238" stroke="#606060"/>
<path d="M123.971 65.014L122.018 66.2646L121.375 65.8706L123.319 64.6238L123.971 65.014Z" fill="#263238" stroke="#606060"/>
<path d="M101.122 84.2609L103.185 82.9385L103.774 83.3682L101.702 84.6944L101.122 84.2609Z" fill="#263238" stroke="#606060"/>
<path d="M99.1691 82.8036L101.202 81.4978L101.794 81.9288L99.753 83.2384L99.1691 82.8036Z" fill="#263238" stroke="#606060"/>
<path d="M104.629 82.0118L106.683 80.6967L107.283 81.1209L105.222 82.4426L104.629 82.0118Z" fill="#263238" stroke="#606060"/>
<path d="M108.14 79.7632L110.184 78.4555L110.792 78.8722L108.737 80.186L108.14 79.7632Z" fill="#263238" stroke="#606060"/>
<path d="M95.6902 85.0318L97.7298 83.7238L98.3112 84.1603L96.2643 85.4697L95.6902 85.0318Z" fill="#263238" stroke="#606060"/>
<path d="M113.62 71.6448L111.64 72.9154L111.023 72.5018L112.995 71.2378L113.62 71.6448Z" fill="#263238" stroke="#606060"/>
<path d="M110.169 73.8556L108.179 75.1305L107.573 74.7111L109.555 73.4428L110.169 73.8556Z" fill="#263238" stroke="#606060"/>
<path d="M117.072 69.4331L115.099 70.6997L114.472 70.29L116.439 69.0328L117.072 69.4331Z" fill="#263238" stroke="#606060"/>
<path d="M106.72 76.0679L104.72 77.3467L104.12 76.9226L106.111 75.6476L106.72 76.0679Z" fill="#263238" stroke="#606060"/>
<path d="M103.268 78.2797L101.262 79.5622L100.671 79.1342L102.666 77.8526L103.268 78.2797Z" fill="#263238" stroke="#606060"/>
<path d="M99.8128 80.4887L97.8003 81.7769L97.2205 81.3437L99.2224 80.0616L99.8128 80.4887Z" fill="#263238" stroke="#606060"/>
<path d="M96.3606 82.7011L94.3377 83.9971L93.7653 83.5568L95.7774 82.2669L96.3606 82.7011Z" fill="#263238" stroke="#606060"/>
<path d="M96.0024 90.2466L98.1049 88.902L98.6751 89.3385L96.5647 90.6897L96.0024 90.2466Z" fill="#263238" stroke="#606060"/>
<path d="M93.1696 92.064L94.5766 91.1599L95.1404 91.6063L93.7238 92.5116L93.1696 92.064Z" fill="#263238" stroke="#606060"/>
<path d="M97.8983 91.7384L100.027 90.374L101.653 91.6198L99.5293 93.0234L97.8983 91.7384Z" fill="#263238" stroke="#606060"/>
<path d="M105.179 89.2875L103.064 90.6842L101.462 89.4579L103.586 88.0966L105.179 89.2875Z" fill="#263238" stroke="#606060"/>
<path d="M112.232 84.6193L110.13 86.0095L108.592 84.8883L110.703 83.5366L112.232 84.6193Z" fill="#263238" stroke="#606060"/>
<path d="M94.1176 76.3534L95.8505 77.6124L93.8977 78.8648L92.1536 77.5636L94.1176 76.3534Z" fill="#263238" stroke="#606060"/>
<path d="M91.2994 90.5516L92.6797 89.6672L93.2447 90.1145L91.8581 91.0032L91.2994 90.5516Z" fill="#263238" stroke="#606060"/>
<path d="M87.2648 80.5872L89.0587 81.9644L87.0866 83.228L85.2855 81.8119L87.2648 80.5872Z" fill="#263238" stroke="#606060"/>
<path d="M90.6889 78.4703L92.4542 79.7881L90.4923 81.044L88.7195 79.6873L90.6889 78.4703Z" fill="#263238" stroke="#606060"/>
<path d="M85.6879 86.023L86.9912 85.1892L87.5576 85.6339L86.2462 86.4743L85.6879 86.023Z" fill="#263238" stroke="#606060"/>
<path d="M87.5591 87.5345L88.8875 86.6821L89.4505 87.1258L88.1159 87.9825L87.5591 87.5345Z" fill="#263238" stroke="#606060"/>
<path d="M89.4299 89.0427L90.7839 88.1745L91.3468 88.6181L89.9866 89.4905L89.4299 89.0427Z" fill="#263238" stroke="#606060"/>
<path d="M108.706 86.9521L106.599 88.3492L105.025 87.1736L107.145 85.8188L108.706 86.9521Z" fill="#263238" stroke="#606060"/>
<path d="M144.039 63.5735L141.902 64.9888L140.71 64.315L142.87 62.9327L144.039 63.5735Z" fill="#263238" stroke="#606060"/>
<path d="M140.4 65.9803L138.371 67.3188L137.141 66.6052L139.187 65.293L140.4 65.9803Z" fill="#263238" stroke="#606060"/>
<path d="M136.886 68.3076L134.846 69.6581L133.566 68.8923L135.624 67.5749L136.886 68.3076Z" fill="#263238" stroke="#606060"/>
<path d="M98.1228 93.9556L96.6886 94.902L95.0407 93.5719L96.4734 92.652L98.1228 93.9556Z" fill="#263238" stroke="#606060"/>
<path d="M128.522 55.0899L129.864 55.8251L127.9 57.0838L126.54 56.3159L128.522 55.0899Z" fill="#263238" stroke="#606060"/>
<path d="M133.366 70.6341L131.316 71.9924L129.996 71.1787L132.061 69.857L133.366 70.6341Z" fill="#263238" stroke="#606060"/>
<path d="M112.157 82.6067L128.502 72.1346L129.847 72.9636L113.665 83.6705L112.157 82.6067Z" fill="#263238" stroke="#606060"/>
<path d="M131.384 67.5851L133.406 66.285L134.066 66.6682L132.031 67.9716L131.384 67.5851Z" fill="#263238" stroke="#606060"/>
<path d="M124.301 72.1178L126.345 70.8083L126.988 71.205L124.935 72.5211L124.301 72.1178Z" fill="#263238" stroke="#606060"/>
<path d="M103.072 85.7167L105.165 84.3782L105.753 84.8049L103.655 86.1505L103.072 85.7167Z" fill="#263238" stroke="#606060"/>
<path d="M127.84 69.8517L129.878 68.5466L130.528 68.9367L128.485 70.2488L127.84 69.8517Z" fill="#263238" stroke="#606060"/>
<path d="M138.997 60.8152L136.073 62.7304L135.401 62.3508L138.313 60.4416L138.997 60.8152Z" fill="#263238" stroke="#606060"/>
<path d="M135.168 65.2373L140.593 61.6857L141.278 62.0623L135.841 65.6169L135.168 65.2373Z" fill="#263238" stroke="#606060"/>
<path d="M136.709 59.5618L134.641 60.8875L133.97 60.5102L136.03 59.191L136.709 59.5618Z" fill="#263238" stroke="#606060"/>
<path d="M106.61 83.4514L108.693 82.1167L109.293 82.5404L107.201 83.8788L106.61 83.4514Z" fill="#263238" stroke="#606060"/>
<path d="M110.146 81.1869L112.22 79.8554L112.83 80.276L110.746 81.6112L110.146 81.1869Z" fill="#263238" stroke="#606060"/>
<path d="M120.763 74.3867L122.813 73.0703L123.448 73.4737L121.389 74.7939L120.763 74.3867Z" fill="#263238" stroke="#606060"/>
<path d="M117.221 76.6529L119.286 75.3314L119.911 75.7383L117.838 77.0663L117.221 76.6529Z" fill="#263238" stroke="#606060"/>
<path d="M113.683 78.918L115.753 77.5931L116.371 78.007L114.293 79.3384L113.683 78.918Z" fill="#263238" stroke="#606060"/>
<path d="M118.121 61.5169L119.598 62.4018L117.708 63.6113L116.215 62.693L118.121 61.5169Z" fill="#263238" stroke="#606060"/>
<path d="M111.263 65.7552L112.819 66.7427L110.907 67.969L109.338 66.9442L111.263 65.7552Z" fill="#263238" stroke="#606060"/>
<path d="M107.835 67.8769L109.428 68.9141L107.505 70.1484L105.9 69.0736L107.835 67.8769Z" fill="#263238" stroke="#606060"/>
<path d="M114.692 63.6382L116.212 64.5726L114.307 65.7904L112.775 64.8191L114.692 63.6382Z" fill="#263238" stroke="#606060"/>
<path d="M100.976 72.1153L102.643 73.2648L100.704 74.5066L99.026 73.3189L100.976 72.1153Z" fill="#263238" stroke="#606060"/>
<path d="M104.405 69.9935L106.038 71.089L104.105 72.3275L102.46 71.1941L104.405 69.9935Z" fill="#263238" stroke="#606060"/>
<path d="M134.427 58.3182L132.393 59.618L131.725 59.2413L133.745 57.9473L134.427 58.3182Z" fill="#263238" stroke="#606060"/>
<path d="M132.145 57.07L130.148 58.3531L129.475 57.9724L131.465 56.6987L132.145 57.07Z" fill="#263238" stroke="#606060"/>
<path d="M128.621 59.3273L126.721 60.5483L126.058 60.1642L127.953 58.9501L128.621 59.3273Z" fill="#263238" stroke="#606060"/>
<path d="M121.555 59.3954L122.988 60.2313L121.104 61.437L119.654 60.5681L121.555 59.3954Z" fill="#263238" stroke="#606060"/>
<path d="M126.377 58.0613L124.504 59.2582L123.096 58.4412L124.984 57.2738L126.377 58.0613Z" fill="#263238" stroke="#606060"/>
<path d="M97.5471 74.2321L99.2469 75.436L97.2985 76.6856L95.5908 75.4434L97.5471 74.2321Z" fill="#263238" stroke="#606060"/>
<path d="M89.7672 95.0336L76.3617 103.558V108.677" stroke="#606060" stroke-linecap="round" stroke-linejoin="round"/>
<path d="M71.4907 110.626H81.7249" stroke="#606060" stroke-linecap="round" stroke-linejoin="round"/>
<path d="M71.4907 112.331H81.7249" stroke="#606060" stroke-linecap="round" stroke-linejoin="round"/>
<path d="M71.4907 114.036H81.7249" stroke="#606060" stroke-linecap="round" stroke-linejoin="round"/>
<path d="M71.4907 115.745H81.7249" stroke="#606060" stroke-linecap="round" stroke-linejoin="round"/>
<path d="M120.713 3.41309H130.947" stroke="#606060" stroke-linecap="round" stroke-linejoin="round"/>
<path d="M120.713 5.11792H130.947" stroke="#606060" stroke-linecap="round" stroke-linejoin="round"/>
<path d="M120.713 6.82275H130.947" stroke="#606060" stroke-linecap="round" stroke-linejoin="round"/>
<path d="M120.713 8.52759H130.947" stroke="#606060" stroke-linecap="round" stroke-linejoin="round"/>
<path d="M126.071 31.1879V11.2067" stroke="#606060" stroke-linecap="round" stroke-linejoin="round"/>
<path d="M170.423 54.584H180.657" stroke="#606060" stroke-linecap="round" stroke-linejoin="round"/>
<path d="M170.423 56.2888H180.657" stroke="#606060" stroke-linecap="round" stroke-linejoin="round"/>
<path d="M170.423 57.9937H180.657" stroke="#606060" stroke-linecap="round" stroke-linejoin="round"/>
<path d="M170.423 59.6985H180.657" stroke="#606060" stroke-linecap="round" stroke-linejoin="round"/>
<path d="M153.364 65.3052L161.893 58.9678H167.744" stroke="#606060" stroke-linecap="round" stroke-linejoin="round"/>
<path d="M230.091 136.269L147.168 130.82C145.009 130.678 143.144 132.313 143.002 134.472L137.819 213.346C137.677 215.505 139.312 217.37 141.471 217.512L224.394 222.962C226.553 223.103 228.418 221.468 228.56 219.309L233.743 140.435C233.885 138.276 232.25 136.411 230.091 136.269Z" fill="#263238" stroke="#606060" stroke-linecap="round" stroke-linejoin="round"/>
<path d="M227.89 132.61L144.967 127.16C142.808 127.018 140.943 128.653 140.801 130.812L135.618 209.686C135.476 211.845 137.111 213.71 139.27 213.852L222.193 219.302C224.352 219.444 226.217 217.808 226.359 215.65L231.542 136.776C231.684 134.617 230.049 132.752 227.89 132.61Z" fill="white" stroke="#606060" stroke-linecap="round" stroke-linejoin="round"/>
<path d="M231.32 140.028L231.533 136.789C231.595 135.755 231.246 134.739 230.561 133.962C229.877 133.186 228.912 132.711 227.879 132.643L144.97 127.187C143.936 127.126 142.921 127.475 142.144 128.16C141.368 128.844 140.893 129.807 140.824 130.84L140.612 134.074L231.32 140.028Z" fill="white" stroke="#606060" stroke-linecap="round" stroke-linejoin="round"/>
<path d="M216.515 135.944C216.531 135.709 216.477 135.474 216.359 135.269C216.242 135.065 216.066 134.9 215.855 134.795C215.643 134.691 215.405 134.651 215.171 134.682C214.937 134.713 214.718 134.812 214.54 134.968C214.363 135.123 214.236 135.328 214.175 135.556C214.114 135.784 214.122 136.025 214.198 136.248C214.274 136.471 214.415 136.667 214.602 136.81C214.79 136.954 215.016 137.038 215.251 137.053C215.407 137.064 215.563 137.043 215.711 136.993C215.859 136.943 215.996 136.864 216.114 136.761C216.231 136.658 216.327 136.533 216.396 136.393C216.465 136.253 216.506 136.1 216.515 135.944Z" fill="white" stroke="#606060" stroke-linecap="round" stroke-linejoin="round"/>
<path d="M221.044 136.24C221.059 136.005 221.004 135.77 220.886 135.567C220.768 135.363 220.592 135.199 220.38 135.095C220.169 134.991 219.932 134.952 219.698 134.983C219.465 135.014 219.246 135.113 219.069 135.269C218.892 135.424 218.765 135.628 218.704 135.856C218.643 136.083 218.65 136.324 218.726 136.547C218.801 136.77 218.941 136.966 219.128 137.109C219.315 137.253 219.54 137.338 219.775 137.354C220.091 137.374 220.402 137.268 220.639 137.059C220.877 136.85 221.023 136.555 221.044 136.24Z" fill="white" stroke="#606060" stroke-linecap="round" stroke-linejoin="round"/>
<path d="M225.568 136.54C225.585 136.304 225.531 136.067 225.414 135.861C225.296 135.655 225.12 135.489 224.908 135.383C224.696 135.277 224.457 135.237 224.222 135.267C223.986 135.298 223.765 135.397 223.587 135.553C223.408 135.709 223.28 135.915 223.218 136.144C223.157 136.373 223.165 136.615 223.241 136.839C223.317 137.064 223.458 137.261 223.647 137.405C223.835 137.549 224.062 137.634 224.299 137.649C224.614 137.669 224.924 137.564 225.162 137.356C225.399 137.148 225.546 136.855 225.568 136.54Z" fill="white" stroke="#606060" stroke-linecap="round" stroke-linejoin="round"/>
<path d="M182.377 112.792L181.429 113.056C178.294 113.978 168.397 117.29 167.153 122.756C165.671 129.27 172.07 134.794 172.07 134.794C172.07 134.794 174.76 144.121 173.454 147.956C172.148 151.79 166.241 152.588 167.013 159.097C167.785 165.605 174.164 171.435 191.559 171.829C208.955 172.222 213.935 171.792 215.873 159.75C217.427 150.039 209.235 142.95 207.442 135.913C205.649 128.876 208.639 124.575 202.063 117.233C195.487 109.89 182.377 112.792 182.377 112.792Z" fill="#263238" stroke="#606060" stroke-linecap="round" stroke-linejoin="round"/>
<path d="M181.18 122.098C181.18 122.098 172.843 125.809 172.61 127.213C172.376 128.617 168.889 138.463 169.666 143.909C170.444 149.355 178.475 150.023 178.475 150.023C178.475 150.023 178.232 153.697 174.092 156.242C169.951 158.786 161.65 162.398 161.65 162.398C161.65 162.398 169.065 168.782 184.844 168.404C200.623 168.025 199.954 164.776 199.954 164.776C196.969 162.782 194.217 160.458 191.751 157.848C188.176 153.925 186.984 148.308 187.606 145.655C188.228 143.002 188.036 141.282 185.74 135.172C183.445 129.063 181.18 122.098 181.18 122.098Z" fill="white" stroke="#606060" stroke-linecap="round" stroke-linejoin="round"/>
<path d="M177.501 130.493C177.504 131.909 177.013 133.282 176.112 134.374C174.558 136.4 172.402 136.83 173.211 137.452C174.019 138.074 176.418 138.369 176.418 138.369" stroke="#606060" stroke-linecap="round" stroke-linejoin="round"/>
<path d="M174.314 140.095C174.314 140.095 177.164 142.131 180.761 139.245" stroke="#606060" stroke-linecap="round" stroke-linejoin="round"/>
<path d="M173.003 130.001C173.003 130.001 174.63 127.591 176.926 129.317" stroke="#606060" stroke-linecap="round" stroke-linejoin="round"/>
<path d="M179.947 129.617C179.947 129.617 182.491 129.156 183.927 131.244" stroke="#606060" stroke-linecap="round" stroke-linejoin="round"/>
<path d="M174.681 131.891L174.681 131.891C174.664 132.144 174.595 132.341 174.522 132.458C174.52 132.46 174.518 132.463 174.517 132.465C174.516 132.463 174.515 132.461 174.514 132.459C174.456 132.333 174.413 132.128 174.43 131.878C174.446 131.628 174.515 131.43 174.589 131.312C174.591 131.31 174.592 131.307 174.594 131.305C174.595 131.306 174.596 131.308 174.597 131.31C174.654 131.435 174.697 131.641 174.681 131.891ZM174.449 132.543C174.449 132.543 174.451 132.542 174.455 132.54C174.451 132.543 174.449 132.543 174.449 132.543ZM174.568 132.548C174.572 132.55 174.574 132.552 174.574 132.552C174.573 132.553 174.571 132.552 174.568 132.548ZM174.663 131.225C174.663 131.226 174.661 131.227 174.657 131.229C174.661 131.226 174.662 131.225 174.663 131.225ZM174.542 131.221C174.538 131.218 174.537 131.217 174.537 131.216C174.537 131.216 174.539 131.217 174.542 131.221Z" fill="#263238" stroke="#606060"/>
<path d="M181.63 132.484C181.632 132.487 181.633 132.49 181.634 132.492C181.692 132.618 181.735 132.823 181.719 133.073C181.702 133.323 181.633 133.521 181.559 133.638C181.557 133.641 181.556 133.643 181.554 133.646C181.553 133.643 181.551 133.64 181.55 133.638C181.492 133.512 181.449 133.307 181.465 133.057C181.482 132.807 181.551 132.609 181.625 132.492C181.627 132.489 181.629 132.487 181.63 132.484ZM181.486 133.724C181.486 133.724 181.488 133.723 181.492 133.721C181.488 133.724 181.486 133.725 181.486 133.724ZM181.611 133.733C181.611 133.733 181.609 133.732 181.606 133.729C181.61 133.731 181.611 133.732 181.611 133.733ZM181.693 132.409C181.696 132.406 181.698 132.405 181.698 132.406C181.699 132.406 181.697 132.407 181.693 132.409ZM181.578 132.401C181.575 132.399 181.573 132.398 181.573 132.397C181.573 132.397 181.575 132.398 181.578 132.401Z" fill="#263238" stroke="#606060"/>
<path d="M178.491 150.023L183.538 149.873C183.538 149.873 183.377 150.702 181.092 152.018C179.794 152.772 178.455 153.454 177.082 154.06C177.082 154.06 178.361 151.858 178.491 150.023Z" fill="#263238" stroke="#606060" stroke-miterlimit="10"/>
<path d="M147.125 214.268L157.94 170.165L169.63 174.394L160.94 215.253L147.125 214.268Z" fill="white" stroke="#606060" stroke-linecap="round" stroke-linejoin="round"/>
<path d="M157.94 170.165L151.768 194.748C153.841 196.038 157.857 197.857 164.474 198.008H164.759L169.614 174.409L157.94 170.165Z" fill="#97ADFF" stroke="#606060" stroke-linecap="round" stroke-linejoin="round"/>
<path d="M158.23 214.999L162.23 194.815C160.814 192.426 159.675 189.882 158.836 187.234C157.655 183.265 161.1 172.533 161.1 172.533C167.315 174.259 173.632 175.59 180.014 176.518C190.725 178.073 201.146 175.311 201.146 175.311L194.264 198.795L196.493 217.631L158.23 214.999Z" fill="#97ADFF" stroke="#606060" stroke-linecap="round" stroke-linejoin="round"/>
<path d="M204.162 218.087L199.358 200.287L211.836 196.924L215.608 218.818L204.162 218.087Z" fill="white" stroke="#606060" stroke-linecap="round" stroke-linejoin="round"/>
<path d="M194.347 182.218L199.358 200.288C199.358 200.288 199.84 201.759 204.54 200.484C207.193 199.817 209.677 198.604 211.836 196.925L204.659 172.513C203.819 171.985 202.883 171.629 201.905 171.466C200.926 171.303 199.925 171.337 198.959 171.564C195.731 172.362 194.814 173.451 194.814 173.451" fill="#97ADFF"/>
<path d="M194.347 182.218L199.358 200.288C199.358 200.288 199.84 201.759 204.54 200.484C207.193 199.817 209.677 198.604 211.836 196.925L204.659 172.513C203.819 171.985 202.883 171.629 201.905 171.466C200.926 171.303 199.925 171.337 198.959 171.564C195.731 172.362 194.814 173.451 194.814 173.451" stroke="#606060" stroke-linecap="round" stroke-linejoin="round"/>
<path d="M160.297 160.657C160.297 160.657 168.07 164.921 180.507 166.6C192.943 168.279 201.617 163.522 202.348 163.424C203.079 163.325 208.908 173.502 208.908 173.502C208.908 173.502 194.259 179.203 181.341 178.477C167.63 177.731 153.68 171.466 153.68 171.466L160.297 160.657Z" fill="#97ADFF" stroke="#606060" stroke-linecap="round" stroke-linejoin="round"/>
<path d="M86.0654 131.076L3.87456 143.345C1.7347 143.665 0.258943 145.658 0.578365 147.798L12.2482 225.976C12.5676 228.116 14.5612 229.592 16.7011 229.272L98.892 217.003C101.032 216.684 102.508 214.69 102.188 212.55L90.5183 134.372C90.1989 132.233 88.2053 130.757 86.0654 131.076Z" fill="#263238" stroke="#606060" stroke-linecap="round" stroke-linejoin="round"/>
<path d="M88.2614 128.141L6.0706 140.41C3.93074 140.73 2.45499 142.723 2.77441 144.863L14.4442 223.041C14.7637 225.181 16.7573 226.657 18.8971 226.337L101.088 214.068C103.228 213.749 104.704 211.755 104.384 209.615L92.7144 131.438C92.3949 129.298 90.4013 127.822 88.2614 128.141Z" fill="white" stroke="#606060" stroke-linecap="round" stroke-linejoin="round"/>
<path d="M93.1974 134.638L92.7155 131.431C92.5619 130.404 92.0068 129.48 91.1721 128.862C90.3374 128.244 89.2915 127.982 88.2642 128.135L6.06957 140.411C5.04241 140.565 4.11826 141.12 3.50026 141.954C2.88226 142.789 2.621 143.835 2.77391 144.862L3.25582 148.07L93.1974 134.638Z" fill="white" stroke="#606060" stroke-linecap="round" stroke-linejoin="round"/>
<path d="M77.8645 133.799C77.8302 133.566 77.7275 133.348 77.5694 133.173C77.4113 132.998 77.2049 132.874 76.9763 132.817C76.7477 132.759 76.5071 132.771 76.2851 132.85C76.063 132.929 75.8695 133.072 75.7288 133.261C75.5882 133.451 75.5068 133.677 75.495 133.913C75.4832 134.148 75.5415 134.382 75.6625 134.584C75.7835 134.786 75.9618 134.948 76.1748 135.049C76.3878 135.15 76.626 135.186 76.8592 135.151C77.1719 135.105 77.4534 134.937 77.6419 134.683C77.8304 134.43 77.9105 134.112 77.8645 133.799Z" fill="white" stroke="#606060" stroke-linecap="round" stroke-linejoin="round"/>
<path d="M82.3675 133.125C82.334 132.892 82.2323 132.674 82.0752 132.498C81.9181 132.322 81.7125 132.196 81.4843 132.137C81.2561 132.077 81.0154 132.087 80.7925 132.164C80.5695 132.241 80.3742 132.382 80.2311 132.569C80.088 132.756 80.0035 132.982 79.9881 133.217C79.9728 133.453 80.0273 133.687 80.1448 133.892C80.2623 134.096 80.4376 134.261 80.6486 134.367C80.8597 134.472 81.0971 134.512 81.3311 134.483C81.4892 134.464 81.6418 134.413 81.78 134.334C81.9183 134.255 82.0392 134.149 82.1358 134.023C82.2325 133.896 82.3027 133.752 82.3425 133.598C82.3823 133.443 82.3908 133.283 82.3675 133.125Z" fill="white" stroke="#606060" stroke-linecap="round" stroke-linejoin="round"/>
<path d="M86.8341 132.457C86.7987 132.224 86.6949 132.007 86.536 131.833C86.3771 131.659 86.1702 131.536 85.9414 131.479C85.7126 131.423 85.4722 131.435 85.2505 131.515C85.0289 131.595 84.836 131.74 84.6962 131.929C84.5565 132.119 84.4761 132.346 84.4652 132.581C84.4544 132.817 84.5136 133.05 84.6354 133.252C84.7572 133.454 84.936 133.615 85.1494 133.715C85.3627 133.815 85.601 133.85 85.834 133.815C85.9888 133.791 86.1375 133.737 86.2716 133.657C86.4057 133.576 86.5225 133.469 86.6154 133.343C86.7083 133.217 86.7754 133.074 86.8129 132.922C86.8504 132.77 86.8576 132.612 86.8341 132.457Z" fill="white" stroke="#606060" stroke-linecap="round" stroke-linejoin="round"/>
<path d="M72.2783 193.53L79.2582 165.211C79.2582 165.211 76.4756 157.915 76.6673 156.667C76.859 155.418 77.9731 152.801 77.9369 151.961C77.9006 151.122 75.9315 148.593 76.9419 147.785C77.9524 146.976 78.9266 147.863 79.6832 149.163C80.4397 150.464 80.1495 151.63 80.1132 152.671C80.077 153.713 80.1132 154.646 80.1132 154.646C80.1132 154.646 84.2587 148.946 85.8133 147.391C87.3678 145.836 88.9535 143.245 89.7049 143.245C90.4562 143.245 90.6791 143.473 90.4511 144.448C90.2231 145.422 87.658 148.438 87.658 148.438L85.9947 151.702C86.9824 152.905 87.8665 154.19 88.6374 155.542C89.793 157.615 90.4044 158.568 89.5183 160.206C88.6322 161.843 84.6474 166.766 84.6474 166.766C84.6474 166.766 85.2899 191.877 84.9427 193.339C84.5956 194.8 82.9788 200.966 79.8438 203.878C78.7763 204.873 75.3459 204.645 73.7914 204.314C72.5665 204.002 71.3717 203.583 70.2211 203.06L68.4696 196.36L72.2783 193.53Z" fill="white" stroke="#606060" stroke-linecap="round" stroke-linejoin="round"/>
<path d="M85.9947 151.702C85.9947 151.702 81.4243 155.112 81.9166 155.889C82.2992 156.409 82.8122 156.818 83.4038 157.076C83.4038 157.076 82.9374 158.465 83.6318 159.19C84.0249 159.521 84.5133 159.717 85.0257 159.75C85.0257 159.75 83.6629 160.703 85.4299 161.196C87.1969 161.688 90.1195 160.491 90.762 159.74C91.4046 158.988 90.6014 157.413 90.6014 157.413C90.6102 156.757 90.5122 156.104 90.3112 155.48C90.099 154.918 89.7981 154.393 89.4199 153.925C89.4199 153.925 89.2541 152.164 88.3836 151.537C87.513 150.91 85.9947 151.702 85.9947 151.702Z" fill="white" stroke="#606060" stroke-linecap="round" stroke-linejoin="round"/>
<path d="M83.3882 157.076L89.4043 153.92" stroke="#606060" stroke-linecap="round" stroke-linejoin="round"/>
<path d="M85.0103 159.75L90.5859 157.413" stroke="#606060" stroke-linecap="round" stroke-linejoin="round"/>
<path d="M58.5307 167.652C58.5307 167.652 61.1216 168.58 63.0441 172.057C64.9666 175.534 73.9623 192.903 73.9623 192.903L67.2777 196.629L58.2664 169.684L55.5874 166.766C55.5874 166.766 57.9037 167.181 58.5307 167.652Z" fill="#97ADFF" stroke="#606060" stroke-linecap="round" stroke-linejoin="round"/>
<path d="M26.1908 170.564C26.1908 170.564 17.563 179.964 17.5008 182.483C17.4387 185.001 29.8337 224.596 29.8337 224.596L77.2995 217.507C77.2995 217.507 62.3084 172.399 59.5672 168.839C56.826 165.279 52.8981 164.693 47.737 164.693C44.3732 164.743 41.0179 165.046 37.6997 165.6C37.6997 165.6 29.6575 167.098 26.1908 170.564Z" fill="#97ADFF" stroke="#606060" stroke-linecap="round" stroke-linejoin="round"/>
<path d="M29.5125 163.139C29.5125 163.139 26.4034 164.175 25.7557 165.616C25.1079 167.056 25.2012 172.777 25.2012 172.777C25.2012 172.777 31.4194 179.814 34.4767 181.586C37.534 183.358 39.9436 184.602 39.9436 184.602C39.9436 184.602 42.0682 175.14 42.4361 174.642C42.804 174.145 52.9967 177.197 52.9967 177.197C52.9967 177.197 52.3593 173.901 48.1568 168.481C43.9544 163.061 33.2694 160.657 29.5125 163.139Z" fill="#97ADFF" stroke="#606060" stroke-linecap="round" stroke-linejoin="round"/>
<path d="M44.1977 135.836C44.1977 135.836 46.4622 143.515 48.1307 146.515C49.7993 149.516 50.2035 154.428 48.0582 157.594C45.9129 160.76 41.6482 161.584 41.6482 161.584C41.9303 163.104 42.29 164.609 42.7261 166.092C43.2909 167.834 44.2495 168.808 44.6174 172.611C44.9853 176.415 44.6485 178.311 44.6485 178.311C44.6485 178.311 40.4564 175.383 36.6944 173.306C32.9323 171.228 29.901 167.217 29.901 167.217C29.901 167.217 25.372 156.625 23.6827 154.034C22.7177 152.601 21.8521 151.103 21.0918 149.552C20.9467 149.267 16.0032 146.759 19.3144 138.344C22.6256 129.928 33.6578 129.695 37.6789 130.918C41.7001 132.141 44.1977 135.836 44.1977 135.836Z" fill="white" stroke="#606060" stroke-linecap="round" stroke-linejoin="round"/>
<path d="M25.3669 129.306C25.3669 129.306 23.4392 127.26 20.185 128.462C16.9308 129.664 13.8994 136.193 16.6665 142.484C19.4337 148.775 22.7397 151.22 22.7397 151.22C22.7397 151.22 26.8852 152.526 28.476 150.873C30.0668 149.22 24.8487 146.236 26.2789 145.007C27.7091 143.779 33.1189 141.852 31.1188 140.022C29.1186 138.193 25.8851 138.872 28.8232 136.193C31.7613 133.514 34.8549 133.773 36.7514 134.908C38.648 136.043 42.0939 139.39 47.224 135.68C52.354 131.97 48.3277 128.104 45.9492 127.14C44.5712 126.565 43.0732 126.335 41.5861 126.472C41.5861 126.472 37.0468 120.554 31.9789 120.601C26.9111 120.647 25.1752 127.384 25.3669 129.306Z" fill="#263238" stroke="#606060" stroke-linecap="round" stroke-linejoin="round"/>
<path d="M41.1819 139.432C41.1819 139.432 42.0628 143.971 43.7055 145.448C45.3481 146.925 48.0375 147.951 47.0633 148.909C46.0891 149.868 43.6536 150.536 43.6536 150.536" stroke="#606060" stroke-linecap="round" stroke-linejoin="round"/>
<path d="M44.5399 153.853C43.6081 154.414 42.5337 154.693 41.4467 154.656C40.3597 154.619 39.3066 154.268 38.4149 153.646" stroke="#606060" stroke-linecap="round" stroke-linejoin="round"/>
<path d="M39.5446 154.293C39.5446 154.293 40.3011 157.33 41.6173 157.237C42.9335 157.143 43.2496 154.557 43.2496 154.557C43.2496 154.557 40.6587 154.941 39.5446 154.293Z" fill="#263238" stroke="#606060" stroke-linecap="round" stroke-linejoin="round"/>
<path d="M34.8186 143.023C34.8186 143.023 35.0466 141.157 37.4095 140.603" stroke="#606060" stroke-linecap="round" stroke-linejoin="round"/>
<path d="M42.3582 139.152C42.3582 139.152 43.8298 138.116 45.0734 138.95" stroke="#606060" stroke-linecap="round" stroke-linejoin="round"/>
<path d="M38.3287 144.832L38.3287 144.832L38.3294 144.834C38.4349 145.119 38.4574 145.38 38.4296 145.562C38.414 145.665 38.3889 145.716 38.3727 145.74C38.3496 145.73 38.311 145.708 38.2549 145.658C38.1191 145.537 37.966 145.314 37.8607 145.013C37.7544 144.709 37.7336 144.446 37.7612 144.267C37.7749 144.179 37.7958 144.13 37.8113 144.104C37.8356 144.117 37.8736 144.141 37.927 144.19C38.0687 144.318 38.2239 144.546 38.3287 144.832ZM38.3991 145.747C38.3991 145.747 38.3971 145.747 38.3927 145.747C38.3969 145.746 38.3991 145.747 38.3991 145.747ZM37.8312 144.08C37.8312 144.08 37.831 144.08 37.8306 144.08L37.8312 144.08ZM37.7841 144.094C37.7801 144.094 37.778 144.093 37.7779 144.093C37.7779 144.093 37.7799 144.093 37.7841 144.094Z" fill="#263238" stroke="#606060"/>
<path d="M44.713 142.18C44.8187 142.467 44.8401 142.728 44.8119 142.91C44.7965 143.009 44.7721 143.061 44.7559 143.086C44.7324 143.075 44.694 143.053 44.6391 143.004C44.5014 142.882 44.346 142.658 44.2385 142.357C44.1306 142.055 44.1103 141.794 44.1384 141.617C44.1537 141.52 44.1776 141.471 44.1938 141.448C44.2172 141.459 44.2557 141.482 44.3112 141.533C44.4502 141.659 44.6048 141.885 44.713 142.18ZM44.7785 143.093C44.7826 143.093 44.7846 143.094 44.7847 143.094C44.7847 143.094 44.7827 143.094 44.7785 143.093ZM44.1657 141.439C44.1656 141.439 44.1678 141.439 44.1724 141.44C44.168 141.44 44.1657 141.44 44.1657 141.439ZM44.2106 141.429C44.211 141.429 44.2112 141.429 44.2112 141.429C44.2112 141.429 44.211 141.429 44.2106 141.429Z" fill="#263238" stroke="#606060"/>
<path d="M27.8957 153.091C27.8957 153.091 23.3512 148.49 21.5583 150.785C19.7654 153.081 23.4341 157.206 25.6519 157.791C27.8698 158.377 28.5382 156.04 28.5382 156.04" fill="white"/>
<path d="M27.8957 153.091C27.8957 153.091 23.3512 148.49 21.5583 150.785C19.7654 153.081 23.4341 157.206 25.6519 157.791C27.8698 158.377 28.5382 156.04 28.5382 156.04" stroke="#606060" stroke-linecap="round" stroke-linejoin="round"/>
<path d="M41.6483 161.584C40.4394 162.058 39.1217 162.184 37.8449 161.947C35.6581 161.564 34.3885 161.247 34.3885 161.247C35.7931 162.382 37.3027 163.379 38.8968 164.227C40.8607 165.155 42.7262 166.092 42.7262 166.092L41.6483 161.584Z" fill="#263238" stroke="#606060" stroke-linecap="round" stroke-linejoin="round"/>
<path d="M85.5909 187.348L65.6015 188.41C65.0328 188.44 64.5963 188.926 64.6265 189.494L66.1058 217.349C66.136 217.918 66.6215 218.354 67.1902 218.324L87.1795 217.262C87.7483 217.232 88.1848 216.747 88.1546 216.178L86.6753 188.323C86.6451 187.755 86.1596 187.318 85.5909 187.348Z" fill="#263238" stroke="#606060" stroke-linecap="round" stroke-linejoin="round"/>
<path d="M24.3719 215.626C24.3719 215.626 27.6365 226.477 28.4345 226.617C29.2325 226.756 63.9095 214.398 63.9095 214.398C64.9886 214.181 66.0413 213.849 67.0498 213.408C68.34 212.786 74.1074 207.941 74.1074 207.941C74.1074 207.941 76.5533 207.49 77.0404 206.723C77.5275 205.956 77.9783 205.459 77.4601 205.454C76.9419 205.449 66.8218 207.21 67.0705 207.185C67.3192 207.159 74.8122 203.951 75.8019 203.63C76.7917 203.309 77.5119 202.34 77.3254 201.676C77.1388 201.013 75.1386 202.086 74.2163 202.397C73.2939 202.707 66.3036 204.951 66.3036 204.951C66.3036 204.951 70.1692 201.868 71.387 201.324C72.6047 200.78 74.9832 199.313 75.2423 198.733C75.3004 198.604 75.322 198.461 75.3048 198.32C75.2877 198.179 75.2323 198.046 75.1448 197.935C75.0573 197.823 74.9409 197.738 74.8083 197.687C74.6757 197.637 74.5319 197.624 74.3925 197.65C73.8121 197.826 65.6921 201.977 65.0651 202.505C64.4381 203.034 60.1682 210.812 60.1682 210.812L37.5131 213.242L36.9276 212.206L24.3719 215.626Z" fill="white" stroke="#606060" stroke-linecap="round" stroke-linejoin="round"/>
<path d="M73.5167 208.029L66.7544 210.252" stroke="#606060" stroke-linecap="round" stroke-linejoin="round"/>
<path d="M23.2009 174.254C23.2009 174.254 16.1536 178.399 15.7079 183.338C15.2623 188.276 22.776 217.056 22.776 217.056L37.6635 212.03L30.7146 188.012" fill="#97ADFF"/>
<path d="M23.2009 174.254C23.2009 174.254 16.1536 178.399 15.7079 183.338C15.2623 188.276 22.776 217.056 22.776 217.056L37.6635 212.03L30.7146 188.012" stroke="#606060" stroke-linecap="round" stroke-linejoin="round"/>
</svg>
