<svg width="95" height="100" viewBox="0 0 95 100" fill="none" xmlns="http://www.w3.org/2000/svg">
<circle cx="5.5" cy="1.5" r="1.5" fill="#97ADFF"/>
<circle cx="14.5" cy="1.5" r="1.5" fill="#97ADFF"/>
<circle cx="23.5" cy="1.5" r="1.5" fill="#97ADFF"/>
<circle cx="32.5" cy="1.5" r="1.5" fill="#97ADFF"/>
<circle cx="41.5" cy="1.5" r="1.5" fill="#97ADFF"/>
<circle cx="50.5" cy="1.5" r="1.5" fill="#97ADFF"/>
<circle cx="59.5" cy="1.5" r="1.5" fill="#97ADFF"/>
<circle cx="68.5" cy="1.5" r="1.5" fill="#97ADFF"/>
<circle cx="77.5" cy="1.5" r="1.5" fill="#97ADFF"/>
<circle cx="86.5" cy="1.5" r="1.5" fill="#97ADFF"/>
<circle cx="5.5" cy="10.5" r="1.5" fill="#97ADFF"/>
<circle cx="14.5" cy="10.5" r="1.5" fill="#97ADFF"/>
<circle cx="23.5" cy="10.5" r="1.5" fill="#97ADFF"/>
<circle cx="32.5" cy="10.5" r="1.5" fill="#97ADFF"/>
<circle cx="41.5" cy="10.5" r="1.5" fill="#97ADFF"/>
<circle cx="50.5" cy="10.5" r="1.5" fill="#97ADFF"/>
<circle cx="59.5" cy="10.5" r="1.5" fill="#97ADFF"/>
<circle cx="68.5" cy="10.5" r="1.5" fill="#97ADFF"/>
<circle cx="77.5" cy="10.5" r="1.5" fill="#97ADFF"/>
<circle cx="86.5" cy="10.5" r="1.5" fill="#97ADFF"/>
<circle cx="5.5" cy="19.5" r="1.5" fill="#97ADFF"/>
<circle cx="14.5" cy="19.5" r="1.5" fill="#97ADFF"/>
<circle cx="23.5" cy="19.5" r="1.5" fill="#97ADFF"/>
<circle cx="32.5" cy="19.5" r="1.5" fill="#97ADFF"/>
<circle cx="41.5" cy="19.5" r="1.5" fill="#97ADFF"/>
<circle cx="50.5" cy="19.5" r="1.5" fill="#97ADFF"/>
<circle cx="59.5" cy="19.5" r="1.5" fill="#97ADFF"/>
<circle cx="68.5" cy="19.5" r="1.5" fill="#97ADFF"/>
<circle cx="77.5" cy="19.5" r="1.5" fill="#97ADFF"/>
<circle cx="86.5" cy="19.5" r="1.5" fill="#97ADFF"/>
<circle cx="5.5" cy="28.5" r="1.5" fill="#97ADFF"/>
<circle cx="14.5" cy="28.5" r="1.5" fill="#97ADFF"/>
<circle cx="23.5" cy="28.5" r="1.5" fill="#97ADFF"/>
<circle cx="32.5" cy="28.5" r="1.5" fill="#97ADFF"/>
<circle cx="41.5" cy="28.5" r="1.5" fill="#97ADFF"/>
<circle cx="50.5" cy="28.5" r="1.5" fill="#97ADFF"/>
<circle cx="59.5" cy="28.5" r="1.5" fill="#97ADFF"/>
<circle cx="68.5" cy="28.5" r="1.5" fill="#97ADFF"/>
<circle cx="77.5" cy="28.5" r="1.5" fill="#97ADFF"/>
<circle cx="86.5" cy="28.5" r="1.5" fill="#97ADFF"/>
<circle cx="5.5" cy="37.5" r="1.5" fill="#97ADFF"/>
<circle cx="14.5" cy="37.5" r="1.5" fill="#97ADFF"/>
<circle cx="23.5" cy="37.5" r="1.5" fill="#97ADFF"/>
<circle cx="32.5" cy="37.5" r="1.5" fill="#97ADFF"/>
<circle cx="41.5" cy="37.5" r="1.5" fill="#97ADFF"/>
<circle cx="50.5" cy="37.5" r="1.5" fill="#97ADFF"/>
<circle cx="59.5" cy="37.5" r="1.5" fill="#97ADFF"/>
<circle cx="68.5" cy="37.5" r="1.5" fill="#97ADFF"/>
<circle cx="77.5" cy="37.5" r="1.5" fill="#97ADFF"/>
<circle cx="86.5" cy="37.5" r="1.5" fill="#97ADFF"/>
<circle cx="5.5" cy="46.5" r="1.5" fill="#97ADFF"/>
<circle cx="14.5" cy="46.5" r="1.5" fill="#97ADFF"/>
<circle cx="23.5" cy="46.5" r="1.5" fill="#97ADFF"/>
<circle cx="32.5" cy="46.5" r="1.5" fill="#97ADFF"/>
<circle cx="41.5" cy="46.5" r="1.5" fill="#97ADFF"/>
<circle cx="50.5" cy="46.5" r="1.5" fill="#97ADFF"/>
<circle cx="59.5" cy="46.5" r="1.5" fill="#97ADFF"/>
<circle cx="68.5" cy="46.5" r="1.5" fill="#97ADFF"/>
<circle cx="77.5" cy="46.5" r="1.5" fill="#97ADFF"/>
<circle cx="86.5" cy="46.5" r="1.5" fill="#97ADFF"/>
<circle cx="5.5" cy="55.5" r="1.5" fill="#97ADFF"/>
<circle cx="14.5" cy="55.5" r="1.5" fill="#97ADFF"/>
<circle cx="23.5" cy="55.5" r="1.5" fill="#97ADFF"/>
<circle cx="32.5" cy="55.5" r="1.5" fill="#97ADFF"/>
<circle cx="41.5" cy="55.5" r="1.5" fill="#97ADFF"/>
<circle cx="50.5" cy="55.5" r="1.5" fill="#97ADFF"/>
<circle cx="59.5" cy="55.5" r="1.5" fill="#97ADFF"/>
<circle cx="68.5" cy="55.5" r="1.5" fill="#97ADFF"/>
<circle cx="77.5" cy="55.5" r="1.5" fill="#97ADFF"/>
<circle cx="86.5" cy="55.5" r="1.5" fill="#97ADFF"/>
<circle cx="5.5" cy="64.5" r="1.5" fill="#97ADFF"/>
<circle cx="14.5" cy="64.5" r="1.5" fill="#97ADFF"/>
<circle cx="23.5" cy="64.5" r="1.5" fill="#97ADFF"/>
<circle cx="32.5" cy="64.5" r="1.5" fill="#97ADFF"/>
<circle cx="41.5" cy="64.5" r="1.5" fill="#97ADFF"/>
<circle cx="50.5" cy="64.5" r="1.5" fill="#97ADFF"/>
<circle cx="59.5" cy="64.5" r="1.5" fill="#97ADFF"/>
<circle cx="68.5" cy="64.5" r="1.5" fill="#97ADFF"/>
<circle cx="77.5" cy="64.5" r="1.5" fill="#97ADFF"/>
<circle cx="86.5" cy="64.5" r="1.5" fill="#97ADFF"/>
<circle cx="5.5" cy="73.5" r="1.5" fill="#97ADFF"/>
<circle cx="14.5" cy="73.5" r="1.5" fill="#97ADFF"/>
<circle cx="23.5" cy="73.5" r="1.5" fill="#97ADFF"/>
<circle cx="32.5" cy="73.5" r="1.5" fill="#97ADFF"/>
<circle cx="41.5" cy="73.5" r="1.5" fill="#97ADFF"/>
<circle cx="50.5" cy="73.5" r="1.5" fill="#97ADFF"/>
<circle cx="59.5" cy="73.5" r="1.5" fill="#97ADFF"/>
<circle cx="68.5" cy="73.5" r="1.5" fill="#97ADFF"/>
<circle cx="77.5" cy="73.5" r="1.5" fill="#97ADFF"/>
<circle cx="86.5" cy="73.5" r="1.5" fill="#97ADFF"/>
<circle cx="5.5" cy="82.5" r="1.5" fill="#97ADFF"/>
<circle cx="14.5" cy="82.5" r="1.5" fill="#97ADFF"/>
<circle cx="23.5" cy="82.5" r="1.5" fill="#97ADFF"/>
<circle cx="32.5" cy="82.5" r="1.5" fill="#97ADFF"/>
<circle cx="41.5" cy="82.5" r="1.5" fill="#97ADFF"/>
<circle cx="50.5" cy="82.5" r="1.5" fill="#97ADFF"/>
<circle cx="59.5" cy="82.5" r="1.5" fill="#97ADFF"/>
<circle cx="68.5" cy="82.5" r="1.5" fill="#97ADFF"/>
<circle cx="77.5" cy="82.5" r="1.5" fill="#97ADFF"/>
<circle cx="86.5" cy="82.5" r="1.5" fill="#97ADFF"/>
<circle cx="5.5" cy="91.5" r="1.5" fill="#97ADFF"/>
<circle cx="14.5" cy="91.5" r="1.5" fill="#97ADFF"/>
<circle cx="23.5" cy="91.5" r="1.5" fill="#97ADFF"/>
<circle cx="32.5" cy="91.5" r="1.5" fill="#97ADFF"/>
<circle cx="41.5" cy="91.5" r="1.5" fill="#97ADFF"/>
<circle cx="50.5" cy="91.5" r="1.5" fill="#97ADFF"/>
<circle cx="59.5" cy="91.5" r="1.5" fill="#97ADFF"/>
<circle cx="68.5" cy="91.5" r="1.5" fill="#97ADFF"/>
<circle cx="77.5" cy="91.5" r="1.5" fill="#97ADFF"/>
<circle cx="86.5" cy="91.5" r="1.5" fill="#97ADFF"/>
</svg>
