<svg width="468" height="377" viewBox="0 0 468 377" fill="none" xmlns="http://www.w3.org/2000/svg">
<path d="M468 334.333H0V334.567H468V334.333Z" fill="#EBEBEB"/>
<path d="M104.514 342.186H73.5137V342.42H104.514V342.186Z" fill="#EBEBEB"/>
<path d="M153.036 348.934H124.797V349.168H153.036V348.934Z" fill="#EBEBEB"/>
<path d="M89.0134 350.872H53.2114V351.106H89.0134V350.872Z" fill="#EBEBEB"/>
<path d="M421.106 350.366H406.224V350.6H421.106V350.366Z" fill="#EBEBEB"/>
<path d="M403.219 350.366H366.416V350.6H403.219V350.366Z" fill="#EBEBEB"/>
<path d="M262.389 342.064H234V342.298H262.389V342.064Z" fill="#EBEBEB"/>
<path d="M333.937 342.064H266.451V342.298H333.937V342.064Z" fill="#EBEBEB"/>
<path d="M221.832 292.587H41.0998C39.684 292.585 38.327 292.021 37.3267 291.019C36.3264 290.017 35.7646 288.659 35.7646 287.243V33.1842C35.777 31.7765 36.3442 30.4305 37.3432 29.4386C38.3421 28.4466 39.6921 27.8889 41.0998 27.8865H221.832C223.25 27.8865 224.609 28.4496 225.611 29.4519C226.614 30.4542 227.177 31.8136 227.177 33.231V287.243C227.177 288.66 226.614 290.02 225.611 291.022C224.609 292.024 223.25 292.587 221.832 292.587ZM41.0998 28.0737C39.7461 28.0762 38.4486 28.6157 37.4922 29.5738C36.5358 30.532 35.9986 31.8305 35.9986 33.1842V287.243C35.9986 288.596 36.5358 289.895 37.4922 290.853C38.4486 291.811 39.7461 292.351 41.0998 292.353H221.832C223.187 292.351 224.485 291.812 225.443 290.854C226.401 289.896 226.94 288.597 226.943 287.243V33.1842C226.94 31.8296 226.401 30.5311 225.443 29.5733C224.485 28.6154 223.187 28.0761 221.832 28.0737H41.0998Z" fill="#EBEBEB"/>
<path d="M424.298 292.587H243.556C242.14 292.585 240.782 292.021 239.78 291.019C238.778 290.017 238.214 288.659 238.212 287.243V33.1842C238.227 31.7757 238.796 30.4297 239.796 29.438C240.797 28.4463 242.148 27.8889 243.556 27.8865H424.298C425.704 27.8913 427.052 28.4502 428.049 29.4419C429.046 30.4335 429.612 31.7781 429.624 33.1842V287.243C429.624 288.657 429.063 290.014 428.065 291.015C427.067 292.017 425.712 292.582 424.298 292.587ZM243.556 28.0737C242.202 28.0761 240.903 28.6154 239.945 29.5733C238.988 30.5311 238.448 31.8296 238.446 33.1842V287.243C238.448 288.597 238.988 289.896 239.945 290.854C240.903 291.812 242.202 292.351 243.556 292.353H424.298C425.653 292.351 426.951 291.812 427.909 290.854C428.867 289.896 429.406 288.597 429.409 287.243V33.1842C429.406 31.8296 428.867 30.5311 427.909 29.5733C426.951 28.6154 425.653 28.0761 424.298 28.0737H243.556Z" fill="#EBEBEB"/>
<path d="M164.427 334.333H160.683C160.862 330.267 161.334 326.219 162.096 322.221C165.073 303.585 169.584 275.421 146.297 243.325C132.519 224.334 118.273 196.291 128.681 170.589C138.247 146.964 166.748 130.846 213.408 122.647C280.201 110.919 320.112 91.0756 328.76 65.3263C334.114 49.4143 327.385 31.1435 308.758 11.1038L311.501 8.55786C331.157 29.674 338.13 49.1803 332.308 66.515C323.182 93.659 282.288 114.391 214.044 126.419C168.751 134.375 141.195 149.735 132.154 172.077C122.391 196.188 136.104 222.986 149.329 241.219C173.525 274.578 168.686 304.821 165.794 322.895C165.069 326.67 164.613 330.493 164.427 334.333Z" fill="#F5F5F5"/>
<path d="M135.205 162.399C145.866 145.925 145.763 126.157 136.141 111.527C112.217 132.896 135.205 162.399 135.205 162.399Z" fill="#F5F5F5"/>
<path d="M212.388 124.865C235.376 115.636 259.843 120.541 275.624 136.097C243.36 160.471 212.388 124.865 212.388 124.865Z" fill="#F5F5F5"/>
<path d="M372.313 38.8937C364.057 56.5934 347.331 66.9737 329.884 66.5337C335.285 35.1029 372.313 38.8937 372.313 38.8937Z" fill="#F5F5F5"/>
<path d="M155.835 255.082C146.868 243.56 145.679 228.874 151.903 217.427C170.979 231.729 155.835 255.082 155.835 255.082Z" fill="#F5F5F5"/>
<path d="M319.56 20.623C304.958 20.8289 292.528 12.9478 287.127 1.06996C310.041 -5.5382 319.56 20.623 319.56 20.623Z" fill="#F5F5F5"/>
<path d="M389.273 334.333H386.765C386.765 325.319 379.136 320.031 371.059 314.434C360.36 307.002 348.192 298.568 357.243 279.979C361.624 271.003 368.812 264.067 375.767 257.356C393.101 240.621 408.077 226.169 375.954 186.014C346.891 149.679 335.472 121.093 342.932 103.347C347.696 92.0212 359.883 85.3007 379.155 83.3726L379.398 85.881C361.118 87.753 349.634 93.9119 345.253 104.32C338.168 121.168 349.465 148.874 377.92 184.442C411.475 226.393 394.973 242.315 377.508 259.172C370.712 265.724 363.683 272.51 359.508 281.084C351.393 297.735 361.642 304.84 372.491 312.365C380.746 318.046 389.273 324.009 389.273 334.333Z" fill="#F5F5F5"/>
<path d="M392.184 240.901C394.131 227.863 402.957 217.95 414.32 214.871C416.866 236.24 392.184 240.901 392.184 240.901Z" fill="#F5F5F5"/>
<path d="M377.442 186.005C369.954 171.15 355.446 162.764 340.61 163.541C346.011 190.189 377.442 186.005 377.442 186.005Z" fill="#F5F5F5"/>
<path d="M335.022 71.6819C331.325 84.2711 335.153 96.9539 344.13 104.442C355.362 86.218 335.022 71.6819 335.022 71.6819Z" fill="#F5F5F5"/>
<path d="M357.393 282.956C362.644 274.672 362.503 264.797 357.608 257.524C345.777 268.316 357.393 282.956 357.393 282.956Z" fill="#F5F5F5"/>
<path d="M369.72 85.9183C376.984 92.4703 386.746 94.0521 394.74 90.4579C386.128 76.942 369.72 85.9183 369.72 85.9183Z" fill="#F5F5F5"/>
<path d="M225.043 334.333H222.337C222.337 324.627 214.119 318.926 205.415 312.889C193.864 304.886 180.779 295.807 190.542 275.777C195.222 266.117 202.99 258.639 210.478 251.441C229.198 233.413 245.298 217.838 210.694 174.586C179.375 135.442 167.076 104.648 175.126 85.5253C180.255 73.3573 193.387 66.094 214.147 63.9973L214.41 66.693C194.754 68.6586 182.342 75.351 177.625 86.5549C169.996 104.704 182.164 134.553 212.818 172.873C248.967 218.063 231.192 235.21 212.369 253.369C205.05 260.436 197.487 267.736 192.985 276.975C184.242 294.918 195.278 302.574 206.968 310.671C215.851 316.83 225.043 323.204 225.043 334.333Z" fill="#F5F5F5"/>
<path d="M228.178 233.685C230.266 219.645 239.775 208.965 252.018 205.605C254.761 228.658 228.178 233.685 228.178 233.685Z" fill="#F5F5F5"/>
<path d="M212.294 174.548C204.226 158.543 188.595 149.51 172.608 150.381C178.439 179.05 212.294 174.548 212.294 174.548Z" fill="#F5F5F5"/>
<path d="M166.608 51.3894C162.63 64.952 166.748 78.5334 176.427 86.6953C188.51 67.0487 166.608 51.3894 166.608 51.3894Z" fill="#F5F5F5"/>
<path d="M190.701 278.987C196.317 270.067 196.195 259.425 190.925 251.591C178.177 263.216 190.701 278.987 190.701 278.987Z" fill="#F5F5F5"/>
<path d="M203.973 66.7025C211.798 73.7974 222.309 75.4634 230.921 71.5977C221.645 57.0523 203.973 66.7025 203.973 66.7025Z" fill="#F5F5F5"/>
<path d="M76.9675 86.2274L94.0776 103.338C94.0776 103.338 90.4646 127.365 83.0047 120.186C75.5448 113.006 77.136 108.663 77.136 108.663C77.136 108.663 62.5999 116.807 57.9667 100.202C53.3335 83.5973 76.9675 86.2274 76.9675 86.2274Z" fill="#EBEBEB"/>
<path d="M76.9672 86.2273L94.0772 103.337C94.0772 103.337 118.114 99.7244 110.925 92.2645C103.737 84.8046 99.4124 86.3958 99.4124 86.3958C99.4124 86.3958 107.509 71.8784 90.9416 67.1984C74.3744 62.5184 76.9672 86.2273 76.9672 86.2273Z" fill="#FAFAFA"/>
<path d="M75.8534 87.8093C77.3422 87.8093 78.5491 86.6024 78.5491 85.1136C78.5491 83.6249 77.3422 82.418 75.8534 82.418C74.3646 82.418 73.1577 83.6249 73.1577 85.1136C73.1577 86.6024 74.3646 87.8093 75.8534 87.8093Z" fill="#E0E0E0"/>
<path d="M95.2474 104.498C95.0734 104.673 94.8663 104.813 94.6382 104.908C94.4101 105.003 94.1654 105.052 93.9183 105.052C93.6712 105.052 93.4265 105.003 93.1984 104.908C92.9702 104.813 92.7632 104.673 92.5892 104.498L75.4697 86.2833L77.0329 84.7202L95.2006 101.83C95.3806 102.001 95.5247 102.207 95.6246 102.434C95.7245 102.661 95.7782 102.906 95.7826 103.154C95.787 103.403 95.7419 103.649 95.65 103.88C95.5581 104.111 95.4213 104.321 95.2474 104.498Z" fill="#E0E0E0"/>
<path d="M400.608 130.566L392.184 146.59C392.184 146.59 374.203 149.314 377.667 142.397C381.13 135.48 384.612 135.658 384.612 135.658C384.612 135.658 375.626 127.037 386.484 120.064C397.341 113.091 400.608 130.566 400.608 130.566Z" fill="#FAFAFA"/>
<path d="M400.608 130.566L392.184 146.59C392.184 146.59 400.084 162.97 403.837 156.212C407.591 149.454 405.485 146.684 405.485 146.684C405.485 146.684 417.653 149.239 417.325 136.388C416.997 123.536 400.608 130.566 400.608 130.566Z" fill="#F0F0F0"/>
<path d="M402.957 130.472C402.77 130.825 402.483 131.115 402.131 131.305C401.779 131.495 401.379 131.577 400.981 131.539C400.583 131.502 400.205 131.347 399.894 131.095C399.584 130.843 399.356 130.504 399.238 130.122C399.12 129.74 399.119 129.331 399.233 128.948C399.347 128.565 399.573 128.225 399.88 127.969C400.188 127.714 400.565 127.556 400.963 127.515C401.36 127.474 401.761 127.552 402.115 127.739C402.35 127.862 402.559 128.031 402.73 128.235C402.9 128.439 403.028 128.676 403.106 128.93C403.184 129.184 403.212 129.451 403.186 129.716C403.16 129.98 403.083 130.238 402.957 130.472Z" fill="#E0E0E0"/>
<path d="M391.594 147.695C391.272 147.52 391.032 147.225 390.927 146.874C390.822 146.524 390.86 146.145 391.033 145.823L400.252 129.564L401.712 130.341L393.485 147.114C393.4 147.278 393.284 147.423 393.142 147.541C393.001 147.659 392.838 147.747 392.661 147.801C392.485 147.855 392.3 147.874 392.117 147.855C391.934 147.837 391.756 147.782 391.594 147.695Z" fill="#E0E0E0"/>
<path d="M157.126 21.0348L151.21 32.2668C151.21 32.2668 138.631 34.1388 141.055 29.3371C143.479 24.5354 145.913 24.6571 145.913 24.6571C145.913 24.6571 139.623 18.6293 147.195 13.7527C154.767 8.87616 157.126 21.0348 157.126 21.0348Z" fill="#FAFAFA"/>
<path d="M157.126 21.035L151.211 32.267C151.211 32.267 156.733 43.733 159.363 39.0061C161.994 34.2793 160.515 32.3325 160.515 32.3325C160.515 32.3325 169.042 34.1202 168.798 25.1159C168.555 16.1116 157.126 21.035 157.126 21.035Z" fill="#F0F0F0"/>
<path d="M158.764 20.96C158.639 21.2121 158.441 21.421 158.195 21.5597C157.95 21.6984 157.669 21.7607 157.388 21.7386C157.108 21.7165 156.84 21.611 156.619 21.4356C156.399 21.2602 156.236 21.0229 156.151 20.7543C156.067 20.4856 156.064 20.1977 156.144 19.9277C156.224 19.6576 156.383 19.4177 156.601 19.2386C156.818 19.0595 157.084 18.9495 157.365 18.9227C157.645 18.8959 157.927 18.9534 158.175 19.088C158.496 19.2629 158.737 19.5558 158.847 19.905C158.957 20.2542 158.928 20.6324 158.764 20.96Z" fill="#E0E0E0"/>
<path d="M150.808 32.997C150.685 32.9409 150.576 32.8589 150.488 32.7566C150.4 32.6543 150.335 32.534 150.297 32.4042C150.26 32.2744 150.251 32.138 150.271 32.0044C150.292 31.8708 150.341 31.7433 150.415 31.6305L156.864 20.2581L157.884 20.7916L152.137 32.5665C152.084 32.6872 152.006 32.7953 151.908 32.8837C151.81 32.9721 151.695 33.0389 151.569 33.0795C151.444 33.1202 151.311 33.1338 151.18 33.1196C151.049 33.1054 150.922 33.0636 150.808 32.997Z" fill="#E0E0E0"/>
<path d="M234 376.603C334.229 376.603 415.481 371.859 415.481 366.007C415.481 360.155 334.229 355.412 234 355.412C133.771 355.412 52.519 360.155 52.519 366.007C52.519 371.859 133.771 376.603 234 376.603Z" fill="#F5F5F5"/>
<path d="M347.602 148.939C372.921 83.0354 312.465 22.1111 234.543 44.0042C199.986 53.7105 186.648 87.0602 178.439 123.396C173.516 132.7 163.36 149.388 149.161 159.965C148.162 160.707 147.343 161.666 146.767 162.769C146.19 163.872 145.871 165.092 145.832 166.336C145.793 167.58 146.037 168.816 146.543 169.953C147.05 171.09 147.807 172.098 148.758 172.901C154.945 178.105 162.658 180.099 167.272 180.847C166.009 186.697 164.642 192.304 163.079 197.555C152.942 231.719 182.164 249.297 215.121 252.62C217.211 263.524 217.822 274.659 216.937 285.726C215.804 300.309 229.105 311.85 243.453 308.958L308.038 295.919C313.378 294.847 318.136 291.845 321.404 287.487C324.672 283.13 326.221 277.722 325.756 272.295C323.471 244.304 323.421 216.175 325.606 188.176C333.085 179.34 340.367 167.743 347.602 148.939Z" fill="#407BFF"/>
<path opacity="0.6" d="M347.602 148.939C372.921 83.0354 312.465 22.1111 234.543 44.0042C199.986 53.7105 186.648 87.0602 178.439 123.396C173.516 132.7 163.36 149.388 149.161 159.965C148.162 160.707 147.343 161.666 146.767 162.769C146.19 163.872 145.871 165.092 145.832 166.336C145.793 167.58 146.037 168.816 146.543 169.953C147.05 171.09 147.807 172.098 148.758 172.901C154.945 178.105 162.658 180.099 167.272 180.847C166.009 186.697 164.642 192.304 163.079 197.555C152.942 231.719 182.164 249.297 215.121 252.62C217.211 263.524 217.822 274.659 216.937 285.726C215.804 300.309 229.105 311.85 243.453 308.958L308.038 295.919C313.378 294.847 318.136 291.845 321.404 287.487C324.672 283.13 326.221 277.722 325.756 272.295C323.471 244.304 323.421 216.175 325.606 188.176C333.085 179.34 340.367 167.743 347.602 148.939Z" fill="white"/>
<path d="M353.883 364.846H194.37C192.916 364.846 191.482 364.506 190.183 363.852C188.884 363.198 187.757 362.248 186.891 361.08C186.026 359.911 185.446 358.556 185.199 357.123C184.952 355.69 185.044 354.219 185.469 352.828L203.777 292.924C204.207 291.529 204.958 290.254 205.969 289.201C206.979 288.148 208.223 287.346 209.599 286.859L327.198 245.675C328.432 245.236 329.745 245.063 331.051 245.168C332.357 245.272 333.626 245.651 334.775 246.281C335.924 246.91 336.927 247.775 337.718 248.819C338.509 249.863 339.071 251.063 339.366 252.339L362.981 353.427C363.301 354.795 363.306 356.217 362.997 357.588C362.688 358.958 362.073 360.241 361.198 361.34C360.322 362.439 359.209 363.325 357.943 363.932C356.676 364.539 355.288 364.852 353.883 364.846Z" fill="#407BFF"/>
<path d="M251.484 62.3965C249.607 60.7115 247.31 59.5634 244.835 59.0731C242.361 58.5828 239.8 58.7684 237.421 59.6103C235.043 60.4522 232.936 61.9193 231.321 63.8574C229.706 65.7955 228.643 68.1329 228.244 70.624C225.559 69.5659 222.575 69.5561 219.884 70.5965C217.193 71.6369 214.991 73.6514 213.717 76.24L226.25 81.5658C225.177 82.403 224.341 83.506 223.825 84.7654C223.31 86.0248 223.132 87.3971 223.309 88.7465C223.486 90.0958 224.013 91.3755 224.837 92.4587C225.661 93.542 226.753 94.3913 228.006 94.9227C229.259 95.4541 230.629 95.6491 231.981 95.4884C233.332 95.3277 234.618 94.8169 235.712 94.0065C236.805 93.1961 237.668 92.1143 238.215 90.868C238.762 89.6218 238.974 88.2543 238.83 86.901L252.598 92.751L258.448 78.9824C256.89 79.1438 255.32 78.8329 253.941 78.0901C252.563 77.3473 251.439 76.207 250.717 74.8172C250.565 74.5144 250.434 74.2017 250.324 73.8812C250.221 73.6004 250.137 73.3196 250.062 73.0295C249.916 72.4382 249.841 71.8319 249.837 71.223C249.837 71.223 249.837 71.223 249.837 71.1575C249.844 70.1121 250.057 69.0783 250.464 68.1155C250.995 66.8643 251.842 65.7733 252.924 64.9503C254.005 64.1273 255.283 63.601 256.63 63.4232C257.977 63.2455 259.348 63.4225 260.606 63.9368C261.864 64.4512 262.965 65.285 263.802 66.3558L267.64 57.3234C264.757 56.4431 261.677 56.449 258.798 57.3402C255.919 58.2314 253.375 59.9669 251.494 62.3216L251.484 62.3965Z" fill="white"/>
<path opacity="0.1" d="M244.511 121.486C245.845 122.054 247.311 122.235 248.742 122.01C250.686 121.707 252.444 120.679 253.662 119.133C254.88 117.588 255.469 115.639 255.31 113.678C255.151 111.717 254.257 109.888 252.806 108.558C251.355 107.229 249.456 106.497 247.488 106.51C247.245 106.496 247.001 106.496 246.758 106.51L252.598 92.7415L238.83 86.8915C238.973 88.2077 238.777 89.5387 238.259 90.7572C237.795 91.8571 237.084 92.836 236.183 93.6188C235.282 94.4015 234.213 94.9674 233.059 95.2729C231.905 95.5784 230.696 95.6155 229.525 95.3812C228.354 95.147 227.253 94.6477 226.305 93.9216C225.358 93.1955 224.589 92.2619 224.058 91.1925C223.527 90.1231 223.248 88.9464 223.243 87.7525C223.238 86.5586 223.506 85.3794 224.027 84.3053C224.548 83.2312 225.309 82.2908 226.25 81.5563L213.717 76.2305C212.659 78.3567 212.286 80.7585 212.65 83.1052C213.014 85.452 214.096 87.6283 215.748 89.3345C213.56 89.8932 211.54 90.9713 209.858 92.4773C208.176 93.9833 206.881 95.8728 206.085 97.9854C205.289 100.098 205.014 102.372 205.283 104.613C205.552 106.855 206.359 108.999 207.633 110.862L207.839 111.134C209.161 112.951 210.897 114.426 212.903 115.439C218.771 119.006 228.131 121.992 239.111 124.406L241.394 119.043C242.203 120.115 243.278 120.957 244.511 121.486Z" fill="black"/>
<path d="M307.776 84.0461C309.006 84.5671 310.082 85.3947 310.902 86.45C311.721 87.5053 312.256 88.753 312.456 90.074C312.511 90.4397 312.542 90.8087 312.549 91.1784V91.2533C312.545 92.8774 312.035 94.4596 311.089 95.7803C310.144 97.1009 308.811 98.0943 307.275 98.6224C305.739 99.1504 304.077 99.1869 302.52 98.7268C300.962 98.2667 299.587 97.3328 298.584 96.055L292.744 109.814L306.512 115.655C305.439 116.492 304.604 117.594 304.088 118.853C303.572 120.112 303.393 121.484 303.57 122.833C303.747 124.182 304.273 125.462 305.096 126.545C305.919 127.629 307.011 128.478 308.263 129.011C309.516 129.543 310.885 129.738 312.236 129.579C313.588 129.419 314.874 128.91 315.968 128.1C317.061 127.291 317.925 126.21 318.473 124.965C319.021 123.719 319.234 122.353 319.092 120.999L331.719 126.363C332.73 123.534 332.597 120.423 331.349 117.69C330.101 114.958 327.836 112.821 325.036 111.733C326.427 109.628 327.225 107.188 327.347 104.668C327.468 102.148 326.909 99.6424 325.727 97.4136C324.545 95.1849 322.784 93.3158 320.63 92.0028C318.476 90.6898 316.008 89.9815 313.485 89.9523C313.64 87.6996 313.286 85.441 312.448 83.3442C311.61 81.2474 310.311 79.3662 308.646 77.8404C308.097 77.3428 307.512 76.8861 306.896 76.4739L303.929 83.4658C305.24 83.3286 306.564 83.5283 307.776 84.0461Z" fill="white"/>
<path opacity="0.1" d="M260.695 64.0531C258.788 63.2455 256.639 63.2276 254.719 64.0033C252.799 64.779 251.266 66.2848 250.455 68.1902C250.048 69.153 249.835 70.1868 249.828 71.2322C249.828 71.2322 249.828 71.2322 249.828 71.2977C249.832 71.9066 249.907 72.5129 250.053 73.1042C250.128 73.3943 250.212 73.6751 250.315 73.9559C250.425 74.2764 250.556 74.5891 250.708 74.8919C251.43 76.2817 252.554 77.422 253.932 78.1648C255.311 78.9076 256.881 79.2186 258.439 79.0571L252.589 92.8257L266.349 98.6757C266.278 98.0537 266.278 97.4257 266.349 96.8037C266.344 96.7821 266.344 96.7598 266.349 96.7382C266.349 96.7382 266.349 96.6539 266.349 96.6165C266.512 95.5992 266.875 94.6243 267.418 93.7485C267.961 92.8727 268.672 92.1133 269.511 91.5143C270.349 90.9154 271.298 90.4887 272.302 90.2591C273.307 90.0295 274.347 90.0016 275.362 90.1768C275.961 90.2731 276.546 90.4428 277.103 90.6823C278.051 91.0749 278.913 91.6506 279.639 92.3763C280.365 93.102 280.941 93.9636 281.334 94.9119C281.726 95.8601 281.929 96.8765 281.929 97.9029C281.929 98.9294 281.727 99.9457 281.334 100.894C280.943 101.815 280.377 102.651 279.668 103.356C279.442 103.58 279.205 103.793 278.956 103.992L292.725 109.833L298.566 96.0736C299.568 97.3515 300.943 98.2854 302.501 98.7455C304.058 99.2056 305.721 99.1691 307.256 98.641C308.792 98.1129 310.125 97.1196 311.071 95.7989C312.016 94.4783 312.526 92.896 312.531 91.2719V91.1971C312.523 90.8273 312.492 90.4584 312.437 90.0926C312.133 88.1126 311.077 86.3262 309.488 85.1057C307.9 83.8852 305.902 83.3245 303.91 83.5406L306.877 76.5487C304.709 75.0756 302.191 74.1977 299.577 74.0027C298.977 71.5356 297.821 69.2383 296.197 67.2865C294.574 65.3346 292.525 63.7799 290.208 62.7412C287.892 61.7025 285.368 61.2074 282.831 61.2936C280.293 61.3798 277.809 62.0452 275.568 63.2387C273.64 60.4828 270.846 58.4502 267.631 57.4636L263.793 66.496C262.987 65.4299 261.92 64.5887 260.695 64.0531Z" fill="black"/>
<path opacity="0.1" d="M318.493 124.874C318.028 125.974 317.317 126.953 316.415 127.736C315.513 128.518 314.444 129.083 313.289 129.388C312.135 129.693 310.926 129.729 309.755 129.494C308.584 129.259 307.483 128.759 306.535 128.032C305.588 127.304 304.82 126.37 304.29 125.3C303.76 124.23 303.483 123.052 303.479 121.858C303.475 120.664 303.744 119.485 304.267 118.411C304.789 117.337 305.551 116.398 306.494 115.664L292.725 109.823L286.875 123.592C286.725 123.395 286.547 123.218 286.379 123.03C285.649 122.249 284.762 121.631 283.777 121.215C281.933 120.433 279.859 120.39 277.984 121.094C276.108 121.797 274.575 123.194 273.699 124.995C272.824 126.796 272.673 128.865 273.279 130.774C273.884 132.683 275.2 134.287 276.953 135.255C277.178 135.376 277.421 135.498 277.665 135.601C278.884 136.117 280.214 136.317 281.53 136.181L279.368 141.264C282.621 141.988 286.028 141.41 288.859 139.654C289.45 139.285 290.011 138.868 290.535 138.409C290.914 140.379 291.65 142.263 292.706 143.969C294.693 147.181 297.705 149.629 301.255 150.917C304.805 152.205 308.686 152.258 312.27 151.067C315.854 149.876 318.932 147.511 321.006 144.355C323.079 141.199 324.028 137.435 323.697 133.673C325.527 133.205 327.215 132.295 328.61 131.021C330.006 129.748 331.067 128.152 331.7 126.372L319.073 121.009C319.209 122.326 319.009 123.655 318.493 124.874Z" fill="black"/>
<path d="M82.4896 264.694L82.6487 262.373C82.6912 261.975 82.6329 261.572 82.4792 261.203C82.3254 260.833 82.0812 260.508 81.7689 260.258L78.9609 258.17C78.366 257.758 77.6699 257.515 76.9475 257.469C76.225 257.423 75.5037 257.575 74.8612 257.908L73.9252 258.32C73.4198 262.204 75.4321 266.351 75.4321 266.351L75.8814 267.624C75.9596 267.88 76.0963 268.114 76.2807 268.308C76.4651 268.501 76.6921 268.65 76.9437 268.74C77.1953 268.831 77.4646 268.862 77.7302 268.831C77.9959 268.8 78.2506 268.707 78.4741 268.56L80.9452 267.193C81.3834 266.93 81.7523 266.566 82.021 266.131C82.2897 265.697 82.4504 265.204 82.4896 264.694Z" fill="#B55B52"/>
<path d="M78.3528 256.27L79.7942 257.44C77.4652 259.471 75.0247 261.371 72.4841 263.131C71.9246 262.584 71.3272 262.077 70.6963 261.615L78.3528 256.27Z" fill="#263238"/>
<path d="M83.8466 218.25C83.313 218.933 82.6485 219.851 82.0682 220.684C81.4878 221.517 80.8701 222.396 80.2898 223.258C79.1385 224.999 78.0246 226.758 77.0044 228.518C76.0047 230.233 75.0925 231.999 74.2713 233.806C73.5571 235.307 72.9928 236.875 72.5865 238.486L72.6707 236.876C72.6606 237.384 72.7204 237.892 72.8486 238.383C73.0222 239.147 73.2378 239.9 73.4944 240.639C74.0873 242.358 74.7683 244.045 75.5349 245.694C76.3211 247.416 77.201 249.147 78.1182 250.87C79.0355 252.592 79.9902 254.351 80.9262 255.915L69.507 263.449C68.1873 261.577 67.0454 259.79 65.8847 257.908C64.7241 256.027 63.6289 254.164 62.5619 252.18C61.4548 250.139 60.452 248.042 59.5574 245.899C59.0987 244.767 58.6214 243.587 58.2657 242.277C57.812 240.78 57.514 239.24 57.3765 237.681L57.3203 237.026L57.4607 236.09C57.8933 233.296 58.6244 230.557 59.6416 227.919C60.5462 225.541 61.5709 223.21 62.7117 220.936C63.7881 218.737 64.93 216.612 66.1187 214.534C66.7084 213.495 67.3168 212.456 67.9907 211.436C68.6646 210.416 69.2169 209.442 69.975 208.3L83.8466 218.25Z" fill="#407BFF"/>
<path opacity="0.7" d="M83.8466 218.25C83.313 218.933 82.6485 219.851 82.0682 220.684C81.4878 221.517 80.8701 222.396 80.2898 223.258C79.1385 224.999 78.0246 226.758 77.0044 228.518C76.0047 230.233 75.0925 231.999 74.2713 233.806C73.5571 235.307 72.9928 236.875 72.5865 238.486L72.6707 236.876C72.6606 237.384 72.7204 237.892 72.8486 238.383C73.0222 239.147 73.2378 239.9 73.4944 240.639C74.0873 242.358 74.7683 244.045 75.5349 245.694C76.3211 247.416 77.201 249.147 78.1182 250.87C79.0355 252.592 79.9902 254.351 80.9262 255.915L69.507 263.449C68.1873 261.577 67.0454 259.79 65.8847 257.908C64.7241 256.027 63.6289 254.164 62.5619 252.18C61.4548 250.139 60.452 248.042 59.5574 245.899C59.0987 244.767 58.6214 243.587 58.2657 242.277C57.812 240.78 57.514 239.24 57.3765 237.681L57.3203 237.026L57.4607 236.09C57.8933 233.296 58.6244 230.557 59.6416 227.919C60.5462 225.541 61.5709 223.21 62.7117 220.936C63.7881 218.737 64.93 216.612 66.1187 214.534C66.7084 213.495 67.3168 212.456 67.9907 211.436C68.6646 210.416 69.2169 209.442 69.975 208.3L83.8466 218.25Z" fill="white"/>
<path d="M129.533 348.494L119.583 350.544L124.6 361.804L132.921 360.101L129.533 348.494Z" fill="#B55B52"/>
<path opacity="0.2" d="M129.533 348.494L119.574 350.553L122.392 356.853L131.433 354.999L129.533 348.494Z" fill="black"/>
<path d="M106.311 313.113C101.35 297.698 89.4629 282.225 90.3989 267.006L123.543 266.922C123.543 266.922 125.705 297.623 126.828 311.85C127.998 326.601 131.695 352.472 131.695 352.472L120.463 355.486C120.463 355.486 105.45 329.625 106.311 313.113Z" fill="#263238"/>
<path d="M125.134 365.717L127.727 365.033L127.951 364.041L129.44 364.584C134.166 364.238 138.727 362.695 142.693 360.101C142.212 359.123 141.503 358.275 140.625 357.63C140.625 357.63 136.768 358.566 134.204 357.854C133.79 357.721 133.342 357.752 132.95 357.939C131.349 358.725 127.053 360.662 124.086 360.4C124.021 360.394 123.956 360.404 123.897 360.43C123.838 360.456 123.787 360.497 123.748 360.549C123.709 360.601 123.685 360.662 123.677 360.726C123.669 360.79 123.677 360.855 123.702 360.915C124.306 362.475 124.785 364.081 125.134 365.717Z" fill="#263238"/>
<path d="M90.2491 349.889L80.0654 349.992L80.5521 362.001L89.0604 361.935L90.2491 349.889Z" fill="#B55B52"/>
<path opacity="0.2" d="M90.2491 349.898L80.0654 349.992L80.3369 356.721L89.5845 356.637L90.2491 349.898Z" fill="black"/>
<path d="M79.1764 309.248C78.3527 293.823 69.7416 277.527 73.888 267.633L105.609 266.922C105.609 266.922 105.31 296.715 102.015 310.914C98.5891 325.731 90.5395 354.55 90.5395 354.55H79.5321C79.5321 354.55 75.0393 326.835 79.1764 309.248Z" fill="#263238"/>
<path d="M103.793 189.59C104.907 190.666 105.665 190.02 105.6 188.541C106.013 188.84 106.341 189.241 106.552 189.705C106.763 190.169 106.849 190.68 106.802 191.188C106.754 191.696 106.575 192.182 106.283 192.6C105.99 193.017 105.593 193.351 105.132 193.568C103.054 194.747 100.714 194.082 99.8993 192.809L99.5811 188.457C101.163 187.652 102.118 187.989 103.793 189.59Z" fill="#E0E0E0"/>
<path d="M99.1504 184.872L100.807 189.131C101.763 188.995 102.634 188.508 103.25 187.764C102.166 186.452 100.75 185.453 99.1504 184.872Z" fill="#A02724"/>
<path d="M99.4408 184.039C99.6374 184.544 100.068 184.844 100.377 184.704C100.686 184.563 100.817 184.058 100.611 183.552C100.405 183.047 99.9837 182.747 99.6748 182.878C99.3659 183.009 99.2162 183.534 99.4408 184.039Z" fill="#263238"/>
<path d="M100.751 187.736C100.399 187.731 100.052 187.655 99.7303 187.511C98.5363 186.91 97.6209 185.87 97.175 184.61C96.239 182.354 96.7819 180.023 98.2889 179.406C98.5902 179.295 98.9114 179.247 99.232 179.266C99.5526 179.286 99.8657 179.371 100.152 179.518C101.345 180.12 102.261 181.159 102.707 182.42C103.643 184.675 103.1 187.006 101.593 187.624C101.323 187.719 101.036 187.757 100.751 187.736ZM99.0845 179.715C98.8728 179.717 98.6635 179.758 98.4667 179.836C97.1937 180.36 96.81 182.42 97.6149 184.432C98.0098 185.58 98.8354 186.53 99.9175 187.081C100.143 187.188 100.387 187.249 100.636 187.26C100.885 187.271 101.134 187.233 101.368 187.146C102.641 186.622 103.025 184.563 102.22 182.551C101.825 181.402 101 180.453 99.9175 179.902C99.655 179.785 99.3718 179.721 99.0845 179.715Z" fill="#263238"/>
<path d="M99.497 181.783C99.4525 181.808 99.4026 181.82 99.3519 181.82C99.3011 181.82 99.2512 181.808 99.2068 181.783C98.8884 181.541 98.5168 181.378 98.1229 181.308C97.729 181.238 97.324 181.263 96.9417 181.38C96.8634 181.411 96.7762 181.41 96.6991 181.376C96.6219 181.343 96.5611 181.281 96.5298 181.203C96.4987 181.123 96.4999 181.035 96.5331 180.956C96.5663 180.877 96.629 180.815 96.7077 180.781C97.1892 180.628 97.7006 180.592 98.1989 180.677C98.6972 180.761 99.168 180.964 99.5718 181.268C99.6064 181.291 99.6358 181.322 99.6584 181.357C99.681 181.392 99.6962 181.431 99.7032 181.472C99.7102 181.513 99.7088 181.555 99.6991 181.596C99.6894 181.636 99.6716 181.675 99.6467 181.708C99.6063 181.749 99.5537 181.775 99.497 181.783Z" fill="#263238"/>
<path d="M81.4321 188.878C84.2401 194.934 86.3461 198.977 90.9793 200.166C100.199 202.525 103.147 197.433 102.211 190.638C101.275 184.526 96.8106 175.662 89.7718 175.662C88.2086 175.654 86.6691 176.044 85.2983 176.795C83.9275 177.547 82.7705 178.635 81.9363 179.957C81.102 181.279 80.618 182.791 80.5298 184.352C80.4416 185.913 80.7521 187.47 81.4321 188.878Z" fill="#B55B52"/>
<path d="M101.724 204.378C101.106 203.18 100.099 202.227 98.8696 201.673C98.4032 200.474 98.3701 199.15 98.776 197.929L84.8296 193.558C85.9528 198.163 86.8326 201.814 85.1198 204.051C87.8622 205.717 92.8885 208.731 98.3641 208.572C103.84 208.412 102.614 206.306 101.724 204.378Z" fill="#B55B52"/>
<path d="M82.6675 203.555C81.8344 200.897 83.098 200.541 83.098 200.541C83.098 200.541 91.7186 198.472 99.712 200.541C107.705 202.61 102.894 205.502 102.894 205.502L82.6675 203.555Z" fill="#263238"/>
<path d="M96.8194 188.035C97.6993 185.986 97.7554 181.858 96.0332 179.799C96.039 180.069 95.9811 180.337 95.864 180.581C95.7469 180.825 95.574 181.038 95.3593 181.203C94.9193 180.547 92.1862 178.722 88.3393 178.807C88.6759 179.045 88.9438 179.368 89.1161 179.743C89.1161 179.743 83.0883 178.741 79.831 181.203C79.831 181.203 80.5237 182.139 80.0182 182.756C78.8295 183.43 78.3428 184.263 78.8201 187.006C79.2975 189.748 82.5641 194.55 85.7372 197.545C91.6714 197.882 94.8445 195.458 94.8445 195.458C94.8445 195.458 98.2796 191.873 96.8194 188.035Z" fill="#E0E0E0"/>
<path d="M93.9368 187.24H93.8806C93.8506 187.234 93.8223 187.221 93.7974 187.203C93.7724 187.185 93.7514 187.163 93.7356 187.136C93.7198 187.11 93.7096 187.081 93.7056 187.05C93.7015 187.02 93.7038 186.989 93.7121 186.959C94.0865 185.499 96.0334 184.105 97.297 183.59C99.169 182.794 102.099 181.718 102.127 181.718C102.185 181.699 102.248 181.703 102.302 181.73C102.357 181.756 102.399 181.803 102.42 181.86C102.441 181.918 102.438 181.981 102.413 182.036C102.388 182.092 102.343 182.135 102.286 182.158C102.286 182.158 99.3749 183.225 97.4748 184.03C96.3329 184.498 94.4984 185.789 94.1614 187.081C94.1444 187.127 94.1138 187.167 94.0738 187.195C94.0337 187.224 93.9859 187.239 93.9368 187.24Z" fill="#263238"/>
<path d="M93.132 188.214C93.6168 189.67 94.6148 190.901 95.94 191.677C97.606 192.547 98.5327 190.741 98.1583 188.719C97.8213 186.847 96.5577 184.151 94.8448 184.161C93.132 184.17 92.4393 186.295 93.132 188.214Z" fill="#B55B52"/>
<path d="M106.18 203.957C96.7569 203.065 87.2646 203.216 77.875 204.406C76.5904 204.597 75.3583 205.048 74.2541 205.732C73.1498 206.415 72.1966 207.317 71.4527 208.381C70.7089 209.446 70.19 210.651 69.9279 211.923C69.6658 213.195 69.666 214.507 69.9283 215.779C74.3275 237.943 72.156 264.647 72.6147 269.028C72.6147 269.028 100.283 275.842 125.031 268.419C127.923 241.275 118.189 218.737 113.743 209.358C113.049 207.886 111.99 206.616 110.666 205.671C109.342 204.725 107.797 204.135 106.18 203.957Z" fill="#263238"/>
<path d="M79.2979 365.717H81.5068L82.0684 364.781L83.2665 365.717H97.503C97.5392 364.653 97.2972 363.598 96.801 362.656C96.801 362.656 91.9245 362.291 90.3052 360.307C90.2487 360.228 90.1714 360.167 90.082 360.131C89.9927 360.095 89.8949 360.084 89.7998 360.101C88.4894 360.381 83.2478 361.383 80.29 360.335C80.2189 360.305 80.1415 360.293 80.0647 360.301C79.988 360.309 79.9145 360.336 79.8511 360.38C79.7876 360.424 79.7363 360.483 79.7017 360.552C79.6672 360.621 79.6506 360.697 79.6535 360.775C79.6613 362.429 79.5424 364.081 79.2979 365.717Z" fill="#263238"/>
<path d="M111.702 204.94C100.218 198.893 77.585 201.449 72.5868 205.099C63.049 212.072 71.7444 234.677 71.8193 256.251C71.8942 277.826 70.799 302.181 70.799 328.988C94.0774 346.772 134.241 327.724 134.241 327.724C134.241 327.724 134.784 217.108 111.702 204.94Z" fill="#407BFF"/>
<path opacity="0.8" d="M111.702 204.94C100.218 198.893 77.585 201.449 72.5868 205.099C63.049 212.072 71.7444 234.677 71.8193 256.251C71.8942 277.826 70.799 302.181 70.799 328.988C94.0774 346.772 134.241 327.724 134.241 327.724C134.241 327.724 134.784 217.108 111.702 204.94Z" fill="white"/>
<path opacity="0.2" d="M120.482 216.743L111.543 218.344C115.077 220.713 118.941 222.548 123.009 223.791C122.286 221.401 121.442 219.048 120.482 216.743Z" fill="#407BFF"/>
<path d="M150.247 187.493L147.991 188.082C147.602 188.169 147.241 188.353 146.941 188.616C146.642 188.88 146.414 189.214 146.278 189.589L145.211 192.959C145.012 193.655 145.006 194.392 145.194 195.091C145.382 195.791 145.757 196.425 146.278 196.928L146.952 197.639C150.79 196.862 154.075 193.624 154.075 193.624L155.142 192.8C155.369 192.645 155.555 192.439 155.687 192.199C155.818 191.958 155.891 191.689 155.898 191.415C155.905 191.141 155.847 190.869 155.729 190.621C155.61 190.374 155.435 190.158 155.217 189.992L153.139 188.12C152.743 187.79 152.274 187.56 151.77 187.451C151.266 187.342 150.744 187.356 150.247 187.493Z" fill="#B55B52"/>
<path d="M142.272 193.717L143.957 191.901C146.936 193.76 149.808 195.785 152.559 197.967C152.117 198.751 151.735 199.568 151.417 200.41L142.272 193.717Z" fill="#263238"/>
<path d="M106.535 203.087C108.407 203.442 110.457 203.789 112.423 204.107C114.388 204.425 116.382 204.743 118.348 205.043C122.288 205.623 126.238 206.138 129.991 206.437L128.372 206.55C128.073 206.653 128.372 206.634 128.878 206.381C129.484 206.06 130.057 205.68 130.591 205.249C132.005 204.128 133.329 202.898 134.55 201.57C135.879 200.176 137.18 198.65 138.444 197.077C139.071 196.291 139.698 195.486 140.316 194.681C140.933 193.876 141.542 193.006 142.047 192.294L153.597 199.633C152.914 200.747 152.334 201.654 151.679 202.647C151.023 203.639 150.387 204.575 149.713 205.52C148.375 207.392 146.961 209.264 145.407 211.136C143.791 213.1 142.026 214.937 140.128 216.63C139.02 217.621 137.83 218.517 136.572 219.307C134.887 220.391 133.018 221.158 131.059 221.573L130.488 221.694H129.449C125.021 221.694 120.819 221.432 116.625 221.142C114.529 220.992 112.441 220.827 110.364 220.646C108.267 220.459 106.226 220.262 104.083 220.037L106.535 203.087Z" fill="#407BFF"/>
<path opacity="0.8" d="M106.535 203.087C108.407 203.442 110.457 203.789 112.423 204.107C114.388 204.425 116.382 204.743 118.348 205.043C122.288 205.623 126.238 206.138 129.991 206.437L128.372 206.55C128.073 206.653 128.372 206.634 128.878 206.381C129.484 206.06 130.057 205.68 130.591 205.249C132.005 204.128 133.329 202.898 134.55 201.57C135.879 200.176 137.18 198.65 138.444 197.077C139.071 196.291 139.698 195.486 140.316 194.681C140.933 193.876 141.542 193.006 142.047 192.294L153.597 199.633C152.914 200.747 152.334 201.654 151.679 202.647C151.023 203.639 150.387 204.575 149.713 205.52C148.375 207.392 146.961 209.264 145.407 211.136C143.791 213.1 142.026 214.937 140.128 216.63C139.02 217.621 137.83 218.517 136.572 219.307C134.887 220.391 133.018 221.158 131.059 221.573L130.488 221.694H129.449C125.021 221.694 120.819 221.432 116.625 221.142C114.529 220.992 112.441 220.827 110.364 220.646C108.267 220.459 106.226 220.262 104.083 220.037L106.535 203.087Z" fill="white"/>
<path opacity="0.2" d="M344.448 274.054L344.841 288.656H305.567L304.93 264.984H342.295L341.79 262.841H304.874L304.247 239.169H324.127C324.127 238.449 324.127 237.728 324.127 237.017H304.2L303.601 214.684H300.409L304.397 364.846H307.598L307.008 342.485H346.245L346.844 364.809H350.064L348.061 289.526L344.448 274.054ZM305.66 290.808H344.897L345.524 314.48H306.25L305.66 290.808ZM306.98 340.304L306.353 316.633H345.59L346.217 340.304H306.98Z" fill="black"/>
<path d="M370.862 372.147H374.063L346.713 214.712H343.512L347.575 238.112H308.347L304.285 214.712H301.083L328.433 372.147H331.625L327.563 348.747H366.8L370.862 372.147ZM357.393 294.562L361.699 319.385H322.462L318.156 294.562H357.393ZM317.763 292.297L313.448 267.502H352.685L357 292.325L317.763 292.297ZM347.977 240.358L352.292 265.19H313.055L308.74 240.358H347.977ZM327.17 346.473L322.855 321.641H362.092L366.407 346.473H327.17Z" fill="#263238"/>
<path d="M352.647 186.285L352.058 184.31C351.946 183.945 351.923 183.558 351.992 183.182C352.06 182.806 352.218 182.451 352.451 182.148L354.66 179.284C355.099 178.716 355.668 178.261 356.32 177.96C356.972 177.659 357.686 177.519 358.404 177.553H359.34C360.557 180.754 359.508 185.115 359.508 185.115L359.349 186.388C359.323 186.651 359.246 186.905 359.121 187.138C358.997 187.37 358.827 187.575 358.622 187.741C358.418 187.908 358.182 188.032 357.93 188.106C357.677 188.181 357.412 188.205 357.15 188.176L354.613 187.895C354.164 187.848 353.739 187.671 353.389 187.385C353.04 187.099 352.782 186.716 352.647 186.285Z" fill="#7F3E3B"/>
<path d="M355.792 177.478L354.744 179.041C357.609 180.402 360.55 181.599 363.551 182.626C363.952 181.927 364.402 181.257 364.899 180.623L355.792 177.478Z" fill="white"/>
<path d="M348.66 130.406C350.382 131.904 351.992 133.355 353.621 134.862C355.25 136.369 356.86 137.876 358.451 139.429C361.744 142.575 364.868 145.893 367.811 149.37L368.307 149.969L368.541 150.427C369.394 152.127 369.921 153.972 370.095 155.865C370.239 157.321 370.264 158.786 370.169 160.246C369.991 162.81 369.618 165.357 369.056 167.865C368.541 170.28 367.914 172.611 367.184 174.904C366.454 177.197 365.761 179.406 364.881 181.774L354.585 178.077C355.203 176.149 355.821 173.977 356.335 171.918C356.85 169.859 357.271 167.734 357.655 165.684C358.001 163.733 358.201 161.759 358.254 159.778C358.273 158.964 358.223 158.15 358.104 157.344C358.079 156.965 357.967 156.597 357.777 156.268L358.516 157.326C355.703 154.366 352.738 151.554 349.634 148.902C348.052 147.526 346.442 146.178 344.813 144.839C343.185 143.501 341.519 142.162 339.918 140.918L348.66 130.406Z" fill="#407BFF"/>
<path opacity="0.7" d="M348.66 130.406C350.382 131.904 351.992 133.355 353.621 134.862C355.25 136.369 356.86 137.876 358.451 139.429C361.744 142.575 364.868 145.893 367.811 149.37L368.307 149.969L368.541 150.427C369.394 152.127 369.921 153.972 370.095 155.865C370.239 157.321 370.264 158.786 370.169 160.246C369.991 162.81 369.618 165.357 369.056 167.865C368.541 170.28 367.914 172.611 367.184 174.904C366.454 177.197 365.761 179.406 364.881 181.774L354.585 178.077C355.203 176.149 355.821 173.977 356.335 171.918C356.85 169.859 357.271 167.734 357.655 165.684C358.001 163.733 358.201 161.759 358.254 159.778C358.273 158.964 358.223 158.15 358.104 157.344C358.079 156.965 357.967 156.597 357.777 156.268L358.516 157.326C355.703 154.366 352.738 151.554 349.634 148.902C348.052 147.526 346.442 146.178 344.813 144.839C343.185 143.501 341.519 142.162 339.918 140.918L348.66 130.406Z" fill="white"/>
<path d="M338.43 116.685C337.634 120.335 336.773 127.037 339.272 129.47C339.272 129.47 335.781 128.946 328.677 133.495C326.383 130.444 327.919 129.47 327.919 129.47C332.009 128.534 331.971 125.474 331.326 122.638L338.43 116.685Z" fill="#7F3E3B"/>
<path d="M325.007 110.573C324.914 111.059 324.586 111.415 324.268 111.368C323.95 111.321 323.763 110.872 323.856 110.376C323.95 109.88 324.277 109.534 324.596 109.59C324.914 109.646 325.101 110.086 325.007 110.573Z" fill="#263238"/>
<path d="M324.717 107.371C324.642 107.36 324.572 107.324 324.52 107.268C324.476 107.206 324.458 107.129 324.471 107.054C324.483 106.978 324.524 106.911 324.586 106.866C324.955 106.577 325.387 106.378 325.847 106.286C326.307 106.193 326.782 106.209 327.235 106.332C327.272 106.343 327.306 106.361 327.336 106.385C327.365 106.41 327.389 106.44 327.406 106.475C327.423 106.509 327.432 106.547 327.433 106.585C327.434 106.624 327.427 106.662 327.413 106.697C327.385 106.77 327.331 106.828 327.261 106.862C327.191 106.895 327.112 106.9 327.038 106.875C326.678 106.783 326.302 106.775 325.939 106.851C325.575 106.927 325.234 107.086 324.942 107.315C324.911 107.341 324.875 107.36 324.836 107.369C324.797 107.379 324.756 107.38 324.717 107.371Z" fill="#263238"/>
<path d="M324.633 111.48C323.987 112.515 323.206 113.459 322.312 114.288C322.528 114.509 322.79 114.678 323.08 114.785C323.37 114.892 323.679 114.933 323.987 114.906L324.633 111.48Z" fill="#630F0F"/>
<path d="M324.736 109.636L323.622 109.103C323.622 109.103 324.053 110.123 324.736 109.636Z" fill="#263238"/>
<path d="M341.472 111.461C340.124 117.237 339.684 119.708 336.202 122.216C330.96 125.96 324.09 123.096 323.669 117.049C323.285 111.602 325.541 103.084 331.718 101.699C333.064 101.38 334.47 101.411 335.8 101.789C337.131 102.167 338.342 102.879 339.32 103.858C340.298 104.836 341.008 106.049 341.385 107.38C341.762 108.711 341.791 110.116 341.472 111.461Z" fill="#7F3E3B"/>
<path d="M327.918 112.173C326.346 111.798 327.273 107.175 327.918 106.22C324.764 105.331 322.349 102.775 325.953 100.323C329.556 97.8708 332.701 96.9535 334.33 98.0393C335.313 95.2313 341.696 96.4949 344.823 101.493C347.79 106.22 345.478 110.001 343.353 110.16C346.723 112.968 342.324 118.369 338.514 119.455C338.299 123.199 331.831 123.367 328.901 120.541C325.972 117.714 327.918 112.173 327.918 112.173Z" fill="#263238"/>
<path d="M330.483 113.137C330.327 113.676 330.055 114.175 329.686 114.598C329.318 115.022 328.861 115.36 328.349 115.589C327.048 116.095 326.205 114.597 326.411 112.987C326.598 111.536 327.488 109.524 328.873 109.721C330.258 109.917 330.942 111.686 330.483 113.137Z" fill="#7F3E3B"/>
<path d="M370.45 285.82C374.269 283.405 373.66 282.422 375.757 280.99C377.554 279.764 378.153 279.717 379.613 278.753C380.83 277.948 379.969 276.75 378.677 275.589C378.013 274.999 377.142 274.325 376.122 273.352L370.319 277.021C370.562 279.08 370.057 282.328 368.1 283.985C366.144 285.642 368.924 286.784 370.45 285.82Z" fill="#263238"/>
<path d="M322.05 292.297C328.545 292.297 328.124 292.1 330.68 292.053C332.552 292.053 332.037 292.297 335.519 292.297C336.988 292.297 337.119 290.64 336.576 289.395C335.997 288.309 335.512 287.175 335.126 286.007H328.845C327.731 288.001 324.652 289.47 321.198 289.751C318.736 289.901 320.224 292.297 322.05 292.297Z" fill="#263238"/>
<path d="M320.215 168.202C320.215 168.202 319.485 200.962 321.544 221.76C321.544 241.285 328.854 286.007 328.854 286.007C329.004 287.008 334.246 286.606 335.126 286.007C335.126 286.007 339.132 253.247 334.601 221.582C345.328 188.541 344.495 168.23 344.495 168.23L320.215 168.202Z" fill="#263238"/>
<path d="M326.748 168.202C326.748 168.202 339.328 205.174 344.598 223.332C350.12 242.398 363.739 265.836 370.3 277.021C371.545 277.021 374.718 275.037 376.103 273.352C368.98 260.707 368.784 242.988 357.936 224.174C358.039 179.012 350.663 168.202 350.663 168.202H326.748Z" fill="#263238"/>
<path d="M368.363 275.056C368.84 275.806 369.265 276.588 369.636 277.396C369.663 277.465 369.705 277.528 369.757 277.581C369.809 277.634 369.872 277.676 369.941 277.705C370.009 277.734 370.083 277.749 370.158 277.749C370.233 277.749 370.306 277.734 370.375 277.705C372.56 276.596 374.566 275.166 376.328 273.465C376.407 273.387 376.46 273.286 376.479 273.177C376.497 273.068 376.48 272.955 376.431 272.856L375.336 270.572C375.303 270.5 375.255 270.436 375.195 270.383C375.135 270.331 375.064 270.292 374.988 270.269C374.912 270.246 374.832 270.24 374.753 270.25C374.674 270.26 374.599 270.287 374.531 270.329L368.466 274.335C368.412 274.376 368.366 274.426 368.332 274.485C368.297 274.543 368.274 274.607 368.265 274.674C368.255 274.741 368.259 274.809 368.276 274.875C368.293 274.94 368.322 275.002 368.363 275.056Z" fill="#407BFF"/>
<path opacity="0.3" d="M368.363 275.056C368.84 275.806 369.265 276.588 369.636 277.396C369.663 277.465 369.705 277.528 369.757 277.581C369.809 277.634 369.872 277.676 369.941 277.705C370.009 277.734 370.083 277.749 370.158 277.749C370.233 277.749 370.306 277.734 370.375 277.705C372.56 276.596 374.566 275.166 376.328 273.465C376.407 273.387 376.46 273.286 376.479 273.177C376.497 273.068 376.48 272.955 376.431 272.856L375.336 270.572C375.303 270.5 375.255 270.436 375.195 270.383C375.135 270.331 375.064 270.292 374.988 270.269C374.912 270.246 374.832 270.24 374.753 270.25C374.674 270.26 374.599 270.287 374.531 270.329L368.466 274.335C368.412 274.376 368.366 274.426 368.332 274.485C368.297 274.543 368.274 274.607 368.265 274.674C368.255 274.741 368.259 274.809 368.276 274.875C368.293 274.94 368.322 275.002 368.363 275.056Z" fill="white"/>
<path d="M327.825 283.676C327.825 284.36 327.872 285.548 327.825 286.484C327.822 286.629 327.875 286.768 327.973 286.875C328.07 286.981 328.205 287.046 328.349 287.055C330.662 287.13 332.978 286.992 335.266 286.643C335.376 286.626 335.477 286.574 335.554 286.495C335.632 286.416 335.682 286.314 335.697 286.204L336.034 283.751C336.043 283.671 336.035 283.59 336.01 283.513C335.986 283.436 335.945 283.365 335.891 283.304C335.837 283.244 335.771 283.196 335.697 283.164C335.623 283.131 335.543 283.114 335.463 283.115L328.302 283.18C328.176 283.191 328.058 283.248 327.971 283.339C327.883 283.43 327.831 283.55 327.825 283.676Z" fill="#407BFF"/>
<path opacity="0.3" d="M327.825 283.676C327.825 284.36 327.872 285.548 327.825 286.484C327.822 286.629 327.875 286.768 327.973 286.875C328.07 286.981 328.205 287.046 328.349 287.055C330.662 287.13 332.978 286.992 335.266 286.643C335.376 286.626 335.477 286.574 335.554 286.495C335.632 286.416 335.682 286.314 335.697 286.204L336.034 283.751C336.043 283.671 336.035 283.59 336.01 283.513C335.986 283.436 335.945 283.365 335.891 283.304C335.837 283.244 335.771 283.196 335.697 283.164C335.623 283.131 335.543 283.114 335.463 283.115L328.302 283.18C328.176 283.191 328.058 283.248 327.971 283.339C327.883 283.43 327.831 283.55 327.825 283.676Z" fill="white"/>
<path d="M317.304 138.765C317.36 141.226 317.425 144.334 318.071 150.203C318.521 155.173 319.12 160.059 320.262 168.202H350.71C349.839 161.163 345.88 153.132 349.54 137.314C349.747 136.457 349.769 135.566 349.603 134.701C349.437 133.835 349.087 133.015 348.577 132.296C348.066 131.578 347.408 130.977 346.646 130.534C345.883 130.092 345.035 129.819 344.158 129.732C343.165 129.639 342.108 129.554 341.031 129.498C336.889 129.227 332.734 129.227 328.592 129.498C327.356 129.611 326.093 129.77 324.848 129.938C322.735 130.246 320.805 131.311 319.418 132.934C318.03 134.558 317.279 136.629 317.304 138.765Z" fill="#407BFF"/>
<path d="M266.863 158.926C267.751 159.942 268.797 160.808 269.961 161.491C271.44 162.361 273.08 162.922 274.782 163.141C276.484 163.36 278.213 163.232 279.864 162.764L279.415 157.26C278.314 157.993 277.045 158.434 275.727 158.543C275.462 158.556 275.196 158.556 274.931 158.543C273.804 158.522 272.695 158.258 271.679 157.767C270.664 157.277 269.767 156.573 269.05 155.703C268.332 154.833 267.812 153.818 267.525 152.728C267.237 151.637 267.19 150.498 267.385 149.387C267.58 148.277 268.013 147.222 268.654 146.295C269.296 145.368 270.131 144.591 271.102 144.017C272.072 143.443 273.156 143.087 274.277 142.972C275.399 142.857 276.532 142.986 277.599 143.351L278.292 143.613L277.056 128.722L262.08 129.91C262.211 129.62 262.326 129.323 262.426 129.021C262.717 128.064 262.825 127.06 262.745 126.063C262.573 124 261.589 122.089 260.01 120.75C258.431 119.411 256.384 118.753 254.321 118.922C253.716 118.979 253.12 119.101 252.542 119.287C251.561 119.602 250.652 120.11 249.869 120.78C249.085 121.45 248.443 122.269 247.98 123.19C247.516 124.111 247.241 125.115 247.169 126.143C247.098 127.172 247.231 128.204 247.563 129.18C247.559 129.221 247.559 129.261 247.563 129.302C247.559 129.32 247.559 129.34 247.563 129.358C247.773 129.949 248.056 130.512 248.405 131.033L233.495 132.26L234.721 147.17C234.927 147.03 235.142 146.917 235.357 146.796C236.526 146.168 237.836 145.848 239.163 145.867C240.49 145.886 241.79 146.243 242.941 146.904C244.091 147.565 245.055 148.508 245.739 149.645C246.424 150.782 246.807 152.075 246.853 153.401C246.9 154.727 246.607 156.043 246.003 157.225C245.399 158.407 244.504 159.415 243.402 160.154C242.3 160.894 241.028 161.34 239.705 161.451C238.383 161.562 237.054 161.334 235.844 160.789L236.321 166.592C241.722 165.123 247.413 163.363 253.235 161.397C255.503 162.34 257.996 162.609 260.413 162.17C262.83 161.732 265.07 160.606 266.863 158.926Z" fill="white"/>
<path d="M273.078 138.512L275.109 138.147C275.484 138.077 275.87 138.098 276.235 138.209C276.6 138.32 276.933 138.517 277.206 138.783L279.799 141.31C280.309 141.809 280.694 142.423 280.92 143.1C281.146 143.777 281.208 144.498 281.1 145.204L280.959 146.093C277.636 146.926 273.471 145.382 273.471 145.382L272.217 145.073C271.96 145.017 271.717 144.91 271.501 144.759C271.285 144.609 271.102 144.417 270.96 144.196C270.818 143.974 270.722 143.727 270.675 143.468C270.629 143.209 270.635 142.943 270.691 142.686L271.272 140.206C271.378 139.78 271.605 139.393 271.925 139.093C272.246 138.792 272.646 138.59 273.078 138.512Z" fill="#7F3E3B"/>
<path d="M281.465 142.649L280.033 141.385C278.354 144.079 276.826 146.863 275.456 149.725C276.114 150.203 276.74 150.725 277.328 151.288L281.465 142.649Z" fill="white"/>
<path d="M325.475 128.206C318.923 129.142 314.646 133.635 314.028 148.321C313.811 159.328 314.182 170.339 315.142 181.306C314.206 207.832 312.652 245.122 317.257 257.562C333.965 263.758 361.127 255.053 373.82 248.642C369.711 239.282 361.249 206.971 357.337 181.558C355.287 168.202 352.76 147.554 352.161 139.027C351.562 130.5 347.125 128.787 342.894 127.935C338.663 127.083 332.505 127.214 325.475 128.206Z" fill="#407BFF"/>
<path opacity="0.8" d="M325.475 128.206C318.923 129.142 314.646 133.635 314.028 148.321C313.811 159.328 314.182 170.339 315.142 181.306C314.206 207.832 312.652 245.122 317.257 257.562C333.965 263.758 361.127 255.053 373.82 248.642C369.711 239.282 361.249 206.971 357.337 181.558C355.287 168.202 352.76 147.554 352.161 139.027C351.562 130.5 347.125 128.787 342.894 127.935C338.663 127.083 332.505 127.214 325.475 128.206Z" fill="white"/>
<path opacity="0.2" d="M314.028 148.303C313.944 150.287 313.916 153.123 313.953 156.464C319.157 152.159 321.535 144.896 321.535 144.896L314.028 148.303Z" fill="#407BFF"/>
<path d="M328.311 141.283C326.682 142.818 325.129 144.222 323.519 145.654C321.909 147.086 320.28 148.462 318.623 149.856C315.239 152.721 311.692 155.386 308 157.84L307.335 158.262L306.858 158.439C305.061 159.101 303.156 159.419 301.242 159.375C299.778 159.353 298.319 159.206 296.88 158.936C294.338 158.468 291.835 157.808 289.392 156.961C287.052 156.165 284.815 155.276 282.606 154.321C280.397 153.366 278.301 152.393 276.054 151.242L280.912 141.479C282.784 142.312 284.843 143.183 286.828 143.931C288.812 144.68 290.871 145.382 292.874 145.963C294.77 146.535 296.707 146.964 298.668 147.245C299.474 147.357 300.288 147.401 301.102 147.376C301.482 147.387 301.861 147.32 302.215 147.179L301.073 147.788C304.19 145.427 307.168 142.89 309.994 140.187C311.463 138.821 312.914 137.379 314.346 135.985C315.778 134.59 317.219 133.083 318.539 131.679L328.311 141.283Z" fill="#407BFF"/>
<path opacity="0.8" d="M328.311 141.283C326.682 142.818 325.129 144.222 323.519 145.654C321.909 147.086 320.28 148.462 318.623 149.856C315.239 152.721 311.692 155.386 308 157.84L307.335 158.262L306.858 158.439C305.061 159.101 303.156 159.419 301.242 159.375C299.778 159.353 298.319 159.206 296.88 158.936C294.338 158.468 291.835 157.808 289.392 156.961C287.052 156.165 284.815 155.276 282.606 154.321C280.397 153.366 278.301 152.393 276.054 151.242L280.912 141.479C282.784 142.312 284.843 143.183 286.828 143.931C288.812 144.68 290.871 145.382 292.874 145.963C294.77 146.535 296.707 146.964 298.668 147.245C299.474 147.357 300.288 147.401 301.102 147.376C301.482 147.387 301.861 147.32 302.215 147.179L301.073 147.788C304.19 145.427 307.168 142.89 309.994 140.187C311.463 138.821 312.914 137.379 314.346 135.985C315.778 134.59 317.219 133.083 318.539 131.679L328.311 141.283Z" fill="white"/>
<path d="M340.648 98.0205C338.57 97.4121 335.884 99.6023 336.979 102.869C338.074 106.136 341.322 107.68 343.877 106.613C346.432 105.546 345.244 99.3496 340.648 98.0205Z" fill="#407BFF"/>
<path d="M339.16 102.841C337.765 97.3841 344.776 89.6059 348.155 99.5462C350.233 105.677 340.498 108.045 339.16 102.841Z" fill="#263238"/>
</svg>
