<svg width="97" height="104" viewBox="0 0 97 104" fill="none" xmlns="http://www.w3.org/2000/svg">
<g opacity="0.3">
<path d="M52.1 4.96124C52.1 3.91391 51.7155 2.90947 51.0309 2.16889C50.3464 1.42832 49.418 1.01227 48.45 1.01227H26.55C25.582 1.01227 24.6536 1.42832 23.9691 2.16889C23.2846 2.90947 22.9 3.91391 22.9 4.96124V24.7061H4.65C3.68196 24.7061 2.75357 25.1221 2.06906 25.8627C1.38455 26.6033 1 27.6077 1 28.6551V52.3489C1 53.3962 1.38455 54.4007 2.06906 55.1412C2.75357 55.8818 3.68196 56.2979 4.65 56.2979H22.9V76.0427C22.9 77.09 23.2846 78.0945 23.9691 78.8351C24.6536 79.5756 25.582 79.9917 26.55 79.9917H48.45C49.418 79.9917 50.3464 79.5756 51.0309 78.8351C51.7155 78.0945 52.1 77.09 52.1 76.0427V56.2979H70.35C71.318 56.2979 72.2464 55.8818 72.9309 55.1412C73.6155 54.4007 74 53.3962 74 52.3489V28.6551C74 27.6077 73.6155 26.6033 72.9309 25.8627C72.2464 25.1221 71.318 24.7061 70.35 24.7061H52.1V4.96124Z" stroke="#DBE5FF" stroke-width="2" stroke-linecap="round" stroke-linejoin="round"/>
<path d="M85.2 65.7105C85.2 65.194 85.0104 64.6986 84.6728 64.3334C84.3352 63.9682 83.8774 63.763 83.4 63.763H72.6C72.1226 63.763 71.6648 63.9682 71.3272 64.3334C70.9896 64.6986 70.8 65.194 70.8 65.7105V75.4477H61.8C61.3226 75.4477 60.8648 75.6528 60.5272 76.018C60.1896 76.3833 60 76.8786 60 77.3951V89.0797C60 89.5962 60.1896 90.0916 60.5272 90.4568C60.8648 90.822 61.3226 91.0272 61.8 91.0272H70.8V100.764C70.8 101.281 70.9896 101.776 71.3272 102.141C71.6648 102.507 72.1226 102.712 72.6 102.712H83.4C83.8774 102.712 84.3352 102.507 84.6728 102.141C85.0104 101.776 85.2 101.281 85.2 100.764V91.0272H94.2C94.6774 91.0272 95.1352 90.822 95.4728 90.4568C95.8104 90.0916 96 89.5962 96 89.0797V77.3951C96 76.8786 95.8104 76.3833 95.4728 76.018C95.1352 75.6528 94.6774 75.4477 94.2 75.4477H85.2V65.7105Z" stroke="#DBE5FF" stroke-width="2" stroke-linecap="round" stroke-linejoin="round"/>
</g>
</svg>
