<svg width="273" height="212" viewBox="0 0 273 212" fill="none" xmlns="http://www.w3.org/2000/svg">
<path d="M272.678 186.782H0V186.918H272.678V186.782Z" fill="#EBEBEB"/>
<path d="M46.6717 191.974H28.6094V192.11H46.6717V191.974Z" fill="#EBEBEB"/>
<path d="M118.828 190.496H93.3323V190.632H118.828V190.496Z" fill="#EBEBEB"/>
<path d="M71.9816 196.189H61.5162V196.325H71.9816V196.189Z" fill="#EBEBEB"/>
<path d="M186.807 193.822H170.331V193.959H186.807V193.822Z" fill="#EBEBEB"/>
<path d="M202.196 193.822H191.66V193.959H202.196V193.822Z" fill="#EBEBEB"/>
<path d="M245.361 196.124H213.425V196.26H245.361V196.124Z" fill="#EBEBEB"/>
<path d="M129.25 162.459H23.9466C23.1217 162.457 22.331 162.129 21.7482 161.545C21.1654 160.961 20.8381 160.17 20.8381 159.345V11.3187C20.8453 10.4984 21.1758 9.7142 21.7578 9.13625C22.3398 8.55831 23.1264 8.23334 23.9466 8.23193H129.25C130.075 8.23193 130.867 8.56001 131.451 9.144C132.035 9.72799 132.364 10.52 132.364 11.3459V159.345C132.364 160.171 132.035 160.963 131.451 161.547C130.867 162.131 130.075 162.459 129.25 162.459ZM23.9466 8.34101C23.1578 8.34245 22.4019 8.6568 21.8446 9.21506C21.2874 9.77332 20.9744 10.5299 20.9744 11.3187V159.345C20.9744 160.134 21.2874 160.89 21.8446 161.448C22.4019 162.007 23.1578 162.321 23.9466 162.322H129.25C130.039 162.321 130.795 162.007 131.353 161.449C131.912 160.891 132.226 160.134 132.227 159.345V11.3187C132.226 10.5294 131.912 9.77284 131.353 9.21473C130.795 8.65662 130.039 8.34245 129.25 8.34101H23.9466Z" fill="#EBEBEB"/>
<path d="M247.216 162.459H141.907C141.082 162.457 140.291 162.129 139.707 161.545C139.123 160.961 138.795 160.17 138.793 159.345V11.3187C138.802 10.498 139.134 9.71371 139.716 9.13591C140.299 8.55812 141.087 8.23332 141.907 8.23193H247.216C248.035 8.23477 248.82 8.56037 249.401 9.13817C249.982 9.71596 250.312 10.4994 250.319 11.3187V159.345C250.319 160.169 249.992 160.959 249.411 161.543C248.829 162.127 248.04 162.456 247.216 162.459ZM141.907 8.34101C141.118 8.34245 140.361 8.65662 139.803 9.21473C139.245 9.77284 138.931 10.5294 138.93 11.3187V159.345C138.931 160.134 139.245 160.891 139.803 161.449C140.361 162.007 141.118 162.321 141.907 162.322H247.216C248.005 162.321 248.761 162.007 249.32 161.449C249.878 160.891 250.192 160.134 250.193 159.345V11.3187C250.192 10.5294 249.878 9.77284 249.32 9.21473C248.761 8.65662 248.005 8.34245 247.216 8.34101H141.907Z" fill="#EBEBEB"/>
<path d="M159.708 29.0045H37.4387V105.518H159.708V29.0045Z" fill="#F0F0F0"/>
<path d="M157.319 101.924V32.6039L39.8329 32.6039V101.924L157.319 101.924Z" fill="#FAFAFA"/>
<path d="M55.2937 101.919L67.3461 32.5984H76.2354L64.183 101.919H55.2937Z" fill="white"/>
<path d="M66.2336 101.919L78.286 32.5984H82.2616L70.2092 101.919H66.2336Z" fill="white"/>
<path d="M85.681 101.919L97.7334 32.5984H106.617L94.5648 101.919H85.681Z" fill="white"/>
<path d="M108.084 101.919L120.137 32.5984H124.112L112.06 101.919H108.084Z" fill="white"/>
<path d="M71.3054 101.919V32.5984H70.7001V101.919H71.3054Z" fill="#E0E0E0"/>
<path d="M40.4382 101.919L40.4382 32.5984H39.8329L39.8329 101.919H40.4382Z" fill="#E0E0E0"/>
<path d="M70.7001 101.919V32.5984H68.306V101.919H70.7001Z" fill="#F0F0F0"/>
<path d="M100.967 101.924V32.6039H100.362V101.924H100.967Z" fill="#E0E0E0"/>
<path d="M100.357 101.924V32.6039H97.9625V101.924H100.357Z" fill="#F0F0F0"/>
<path d="M130.64 101.919V32.5984H130.035V101.919H130.64Z" fill="#E0E0E0"/>
<path d="M130.035 101.919V32.5984H127.641V101.919H130.035Z" fill="#F0F0F0"/>
<path d="M160.313 105.518V29.0045H159.708V105.518H160.313Z" fill="#E0E0E0"/>
<path d="M172.131 23.7473H32.007C31.7972 23.7459 31.5963 23.6623 31.4474 23.5145C31.2986 23.3667 31.2136 23.1664 31.2108 22.9566C31.2107 22.7449 31.2945 22.5418 31.4436 22.3916C31.5928 22.2414 31.7953 22.1563 32.007 22.1549H172.131C172.236 22.1549 172.34 22.1756 172.438 22.2159C172.535 22.2562 172.623 22.3153 172.698 22.3897C172.772 22.4642 172.831 22.5525 172.872 22.6498C172.912 22.7471 172.933 22.8513 172.933 22.9566C172.93 23.1673 172.844 23.3684 172.694 23.5164C172.544 23.6644 172.342 23.7474 172.131 23.7473Z" fill="#E0E0E0"/>
<g opacity="0.8">
<path d="M87.1371 20.6116H33.9703V123.919H87.1371V20.6116Z" fill="#F5F5F5"/>
<path d="M54.8029 125.058H50.3474L51.6017 21.7513H53.5922L54.8029 125.058Z" fill="#E6E6E6"/>
<path d="M44.9756 125.058H42.8214L43.4268 21.7513H44.3866L44.9756 125.058Z" fill="#E6E6E6"/>
<path d="M67.7278 125.058H65.5737L66.179 21.7513H67.1388L67.7278 125.058Z" fill="#E6E6E6"/>
<path d="M78.6732 125.058H76.5245L77.1244 21.7513H78.0896L78.6732 125.058Z" fill="#E6E6E6"/>
</g>
<g opacity="0.8">
<path d="M169.388 20.6061H142.807V123.913H169.388V20.6061Z" fill="#F5F5F5"/>
<path d="M153.223 125.053H150.998L151.62 21.7513H152.618L153.223 125.053Z" fill="#E6E6E6"/>
<path d="M148.31 125.053H147.235L147.535 21.7513H148.015L148.31 125.053Z" fill="#E6E6E6"/>
<path d="M159.686 125.053H158.612L158.912 21.7513H159.391L159.686 125.053Z" fill="#E6E6E6"/>
<path d="M165.156 125.053H164.081L164.387 21.7513H164.867L165.156 125.053Z" fill="#E6E6E6"/>
</g>
<path d="M141.406 185.849H146.521V133.702H141.406V185.849Z" fill="#F0F0F0"/>
<path d="M35.0283 133.708H147.764V130.588H35.0283V133.708Z" fill="#F0F0F0"/>
<path d="M38.3604 186.782H144.438V185.849H38.3604V186.782Z" fill="#F0F0F0"/>
<path d="M141.406 133.702H36.2771V185.849H141.406V133.702Z" fill="#FAFAFA"/>
<path d="M137.146 139.51H40.5472V155.511H137.146V139.51Z" fill="#F0F0F0"/>
<path d="M137.146 163.048H40.5472V179.049H137.146V163.048Z" fill="#F0F0F0"/>
<path d="M55.3319 141.059H122.356C122.904 141.059 123.349 140.615 123.349 140.066V139.565C123.349 139.017 122.904 138.572 122.356 138.572H55.3319C54.7838 138.572 54.3394 139.017 54.3394 139.565V140.066C54.3394 140.615 54.7838 141.059 55.3319 141.059Z" fill="#FAFAFA"/>
<path d="M55.3319 164.586H122.356C122.904 164.586 123.349 164.141 123.349 163.593V163.091C123.349 162.543 122.904 162.099 122.356 162.099H55.3319C54.7838 162.099 54.3394 162.543 54.3394 163.091V163.593C54.3394 164.141 54.7838 164.586 55.3319 164.586Z" fill="#FAFAFA"/>
<path d="M226.649 184.354C229.884 181.119 229.884 175.874 226.649 172.639C223.413 169.404 218.168 169.404 214.933 172.639C211.698 175.874 211.698 181.119 214.933 184.354C218.168 187.589 223.413 187.589 226.649 184.354Z" fill="#EBEBEB"/>
<path d="M233.511 186.776C239.218 186.776 243.845 182.149 243.845 176.442C243.845 170.734 239.218 166.107 233.511 166.107C227.803 166.107 223.176 170.734 223.176 176.442C223.176 182.149 227.803 186.776 233.511 186.776Z" fill="#F5F5F5"/>
<path d="M181.549 99.2029L239.788 99.2029V26.5177L181.549 26.5177V99.2029Z" fill="#E6E6E6"/>
<path d="M178.992 99.2029L238.915 99.2029V26.5177L178.992 26.5177V99.2029Z" fill="#F5F5F5"/>
<path d="M237.088 97.1741V28.5464L180.813 28.5464V97.1741H237.088Z" fill="#FAFAFA"/>
<path d="M208.953 75.0381C219.573 75.0381 228.183 66.4289 228.183 55.8089C228.183 45.1888 219.573 36.5796 208.953 36.5796C198.333 36.5796 189.724 45.1888 189.724 55.8089C189.724 66.4289 198.333 75.0381 208.953 75.0381Z" fill="white"/>
<path d="M181.342 97.1741V28.5464H180.818V97.1741H181.342Z" fill="#E6E6E6"/>
<path d="M229.35 51.7023C226.563 50.1808 222.756 51.4514 221.268 51.9532C219.779 52.4549 215.994 53.851 214.794 51.4078C214.248 50.3274 213.413 49.4196 212.382 48.7853C211.351 48.1511 210.164 47.8153 208.953 47.8153C207.743 47.8153 206.556 48.1511 205.525 48.7853C204.494 49.4196 203.659 50.3274 203.113 51.4078C201.913 53.8456 198.128 52.4549 196.639 51.9532C195.15 51.4514 191.338 50.1808 188.557 51.7023C185.776 53.2239 188.012 57.3358 190.635 59.1192C193.258 60.9025 196.459 57.4831 193.493 56.7087C190.526 55.9343 189.13 55.4107 189.522 53.5892C189.915 51.7677 193.765 52.1986 196.759 52.853L197.446 53.0112C199.369 53.4769 201.099 54.5311 202.395 56.0268C203.69 57.5226 204.486 59.3852 204.672 61.3551V61.4042C204.831 63.1112 204.596 66.6342 204.509 68.5375C204.422 70.4408 206.074 74.7873 206.216 76.3088C206.358 77.8303 208.943 77.8576 208.943 77.8576C208.943 77.8576 211.533 77.7922 211.669 76.3088C211.806 74.8254 213.464 70.3808 213.382 68.5375C213.3 66.6942 213.06 63.0839 213.218 61.4042V61.3497C213.406 59.3793 214.204 57.5168 215.502 56.022C216.799 54.5272 218.531 53.4746 220.455 53.0112L221.131 52.853C224.125 52.1986 227.997 51.7623 228.368 53.5892C228.739 55.4162 227.365 55.9288 224.398 56.7087C221.431 57.4885 224.622 60.897 227.256 59.1192C229.89 57.3413 232.131 53.2184 229.35 51.7023Z" fill="#F0F0F0"/>
<path opacity="0.9" d="M230.408 53.7201C230.398 53.3381 230.285 52.9659 230.079 52.6439C229.873 52.3218 229.583 52.0622 229.241 51.8932C228.297 51.4109 227.247 51.1728 226.187 51.2005C224.529 51.2611 222.893 51.587 221.338 52.1658L221.169 52.2204H221.137C219.377 52.9134 217.475 53.1643 215.596 52.9511C214.014 52.6894 211.566 52.1058 208.953 52.1058C206.341 52.1058 203.893 52.6894 202.327 52.9511C200.451 53.1676 198.55 52.9204 196.792 52.2313H196.759L196.59 52.1767C195.036 51.5986 193.399 51.2727 191.742 51.2115C190.682 51.1837 189.632 51.4218 188.688 51.9041C188.345 52.0731 188.055 52.3327 187.85 52.6548C187.644 52.9768 187.53 53.349 187.521 53.731C187.434 55.5579 189.113 57.8157 190.793 58.9446C191.228 59.248 191.746 59.4116 192.276 59.4136C193.433 59.4136 194.398 58.6392 194.485 57.9466C194.545 57.4831 194.185 57.1231 193.465 56.9323C190.629 56.1906 188.912 55.6288 189.337 53.5565C189.539 52.5748 190.591 52.0786 192.467 52.0786C193.936 52.116 195.397 52.2987 196.83 52.6239L197.523 52.7875C201.553 53.7637 207.885 57.194 208.25 61.3224V61.3715C208.386 62.8003 208.692 61.7914 208.588 63.7438C208.588 64.1528 208.55 64.5291 208.533 64.8345C208.484 65.887 206.352 67.8557 206.859 69.5954C207.208 70.8498 207.514 75.5944 207.574 76.2597C207.596 76.6142 207.752 76.9469 208.011 77.19C208.27 77.4332 208.612 77.5686 208.967 77.5686C209.322 77.5686 209.664 77.4332 209.923 77.19C210.182 76.9469 210.338 76.6142 210.36 76.2597C210.42 75.6162 210.726 70.8498 211.08 69.5954C211.566 67.8557 209.444 65.887 209.401 64.8345C209.401 64.5073 209.368 64.131 209.346 63.7438C209.242 61.7914 209.553 62.8003 209.684 61.3715V61.3169C210.077 57.1886 216.392 53.7583 220.428 52.7821L221.109 52.6239C222.542 52.2979 224.004 52.1153 225.472 52.0786C227.348 52.0786 228.401 52.5748 228.603 53.5565C229.023 55.6288 227.305 56.1906 224.469 56.9323C223.754 57.1231 223.378 57.4776 223.449 57.9466C223.542 58.6392 224.502 59.4136 225.63 59.4136C226.163 59.4116 226.682 59.2481 227.119 58.9446C228.815 57.8048 230.49 55.547 230.408 53.7201Z" fill="#E0E0E0"/>
<path d="M203.173 56.8287C203.124 57.2541 203.085 58.0939 201.678 59.2065C200.691 59.9863 197.964 60.2045 196.874 59.4955C196.856 59.4152 196.827 59.338 196.786 59.2664C196.819 59.1754 196.836 59.0795 196.836 58.9829C196.836 58.8618 196.809 58.7422 196.757 58.6328C196.705 58.5234 196.629 58.4269 196.536 58.3502C196.57 58.254 196.589 58.1526 196.59 58.0503C196.59 57.8436 196.511 57.6446 196.369 57.4945C196.227 57.3443 196.033 57.2543 195.827 57.2432C195.829 57.1941 195.829 57.145 195.827 57.0959C195.827 56.989 195.807 56.883 195.766 56.7841C195.726 56.6852 195.666 56.5953 195.59 56.5197C195.515 56.4441 195.425 56.3843 195.326 56.3437C195.227 56.3031 195.121 56.2826 195.014 56.2833C194.921 56.2833 194.829 56.2999 194.741 56.3324C194.682 56.1797 194.578 56.0485 194.443 55.956C194.307 55.8636 194.147 55.8142 193.983 55.8143C193.844 55.8159 193.708 55.8527 193.586 55.9214C193.465 55.9901 193.364 56.0883 193.291 56.207C193.215 56.1131 193.12 56.0374 193.011 55.9855C192.903 55.9336 192.784 55.9068 192.664 55.907C192.448 55.907 192.241 55.9927 192.089 56.145C191.937 56.2974 191.851 56.5041 191.851 56.7196C191.851 56.7954 191.862 56.8707 191.884 56.9432C191.712 56.9985 191.564 57.1092 191.463 57.2578C191.361 57.4065 191.311 57.5847 191.322 57.7644C191.333 57.9442 191.403 58.1153 191.521 58.251C191.64 58.3866 191.8 58.4791 191.976 58.5138C191.943 58.599 191.927 58.6897 191.927 58.7811C191.927 58.9966 192.013 59.2033 192.165 59.3557C192.318 59.508 192.524 59.5936 192.74 59.5936C192.908 59.5935 193.071 59.5421 193.209 59.4464C193.185 59.5204 193.172 59.5976 193.171 59.6755C193.171 59.891 193.256 60.0977 193.409 60.25C193.561 60.4024 193.768 60.488 193.983 60.488C194.184 60.4914 194.379 60.4194 194.529 60.2863C194.594 60.4293 194.7 60.5505 194.832 60.6355C194.964 60.7206 195.118 60.7659 195.276 60.7662C195.396 60.7665 195.515 60.7396 195.624 60.6877C195.732 60.6358 195.828 60.5601 195.903 60.4662C195.965 60.4745 196.027 60.4745 196.088 60.4662H196.148L196.334 60.5698C196.606 60.7157 196.896 60.8275 197.196 60.9025C198.002 61.1005 198.843 61.1135 199.655 60.9407C200.475 60.772 201.225 60.3617 201.809 59.7627C202.291 59.2274 202.859 58.7759 203.489 58.4266C203.651 58.3546 203.821 58.3033 203.996 58.2739C204.012 57.7613 203.767 57.0032 203.173 56.8287Z" fill="#FAFAFA"/>
<path d="M226.552 57.7121C226.553 57.5424 226.501 57.3767 226.403 57.238C226.305 57.0992 226.167 56.9943 226.007 56.9377C226.029 56.8652 226.04 56.7899 226.039 56.7141C225.279 56.5397 224.556 56.2333 223.902 55.8088C223.739 55.809 223.579 55.8587 223.445 55.9511C223.311 56.0436 223.207 56.1746 223.149 56.3269C223.06 56.2939 222.966 56.2773 222.871 56.2778C222.655 56.2778 222.449 56.3635 222.296 56.5158C222.144 56.6682 222.058 56.8749 222.058 57.0904C222.053 57.1394 222.053 57.1887 222.058 57.2377C221.852 57.2488 221.658 57.3388 221.516 57.489C221.374 57.6391 221.295 57.8381 221.295 58.0448C221.293 58.1474 221.312 58.2492 221.349 58.3447C221.254 58.4204 221.177 58.5165 221.124 58.6261C221.071 58.7356 221.044 58.8557 221.044 58.9774C221.088 59.0574 221.107 59.1484 221.1 59.2393C221.094 59.3302 221.061 59.4172 221.006 59.49C219.915 60.2044 217.216 59.9863 216.223 59.2064C214.811 58.1157 214.778 57.254 214.729 56.8287C214.134 57.0032 213.889 57.7612 213.883 58.2848C214.06 58.314 214.232 58.3653 214.396 58.4375C215.024 58.7868 215.59 59.2384 216.07 59.7736C216.663 60.3765 217.423 60.7871 218.252 60.9515C219.064 61.1244 219.905 61.1113 220.711 60.9134C221.011 60.8383 221.301 60.7266 221.573 60.5807L221.753 60.4771H221.818C221.878 60.4857 221.939 60.4857 221.998 60.4771C222.292 60.32 222.62 60.2379 222.953 60.2379C223.286 60.2379 223.614 60.32 223.907 60.4771C224.123 60.4771 224.329 60.3915 224.482 60.2391C224.634 60.0867 224.72 59.88 224.72 59.6645C224.72 59.5869 224.709 59.5097 224.687 59.4355C224.809 59.52 224.951 59.5697 225.099 59.579C225.247 59.5884 225.395 59.5571 225.526 59.4886C225.658 59.4201 225.768 59.3169 225.845 59.1903C225.922 59.0636 225.963 58.9183 225.963 58.7701C225.963 58.6793 225.948 58.5891 225.92 58.5029C226.099 58.4622 226.259 58.3618 226.374 58.2181C226.489 58.0745 226.552 57.8961 226.552 57.7121Z" fill="#FAFAFA"/>
<path d="M224.714 88.7702H193.187C192.7 88.7687 192.234 88.5747 191.889 88.2303C191.545 87.8859 191.351 87.4193 191.349 86.9323C191.351 86.4453 191.545 85.9787 191.889 85.6344C192.234 85.29 192.7 85.0959 193.187 85.0945H224.714C225.201 85.0959 225.668 85.29 226.012 85.6344C226.357 85.9787 226.551 86.4453 226.552 86.9323C226.551 87.4193 226.357 87.8859 226.012 88.2303C225.668 88.5747 225.201 88.7687 224.714 88.7702Z" fill="white"/>
<path d="M136.339 211.41C194.737 211.41 242.078 208.646 242.078 205.237C242.078 201.827 194.737 199.063 136.339 199.063C77.941 199.063 30.6 201.827 30.6 205.237C30.6 208.646 77.941 211.41 136.339 211.41Z" fill="#F5F5F5"/>
<path d="M106.824 128.527H104.621V197.029H106.824V128.527Z" fill="#97ADFF"/>
<path opacity="0.8" d="M106.824 128.527H104.621V197.029H106.824V128.527Z" fill="white"/>
<path d="M102.418 197.034H104.621L104.621 128.532H102.418L102.418 197.034Z" fill="#97ADFF"/>
<path opacity="0.7" d="M102.418 197.034H104.621L104.621 128.532H102.418L102.418 197.034Z" fill="white"/>
<path d="M104.621 200.945C105.57 200.945 106.339 200.176 106.339 199.227C106.339 198.278 105.57 197.509 104.621 197.509C103.672 197.509 102.903 198.278 102.903 199.227C102.903 200.176 103.672 200.945 104.621 200.945Z" fill="#263238"/>
<path d="M106.546 197.034H102.696V197.776H106.546V197.034Z" fill="#263238"/>
<path d="M147.617 128.527V123.351H105.336V128.527H147.617Z" fill="#97ADFF"/>
<path opacity="0.8" d="M147.617 128.527V123.351H105.336V128.527H147.617Z" fill="white"/>
<path d="M105.336 128.527V123.351H92.4925V128.527H105.336Z" fill="#97ADFF"/>
<path opacity="0.7" d="M105.336 128.527V123.351H92.4925V128.527H105.336Z" fill="white"/>
<path d="M97.9733 128.527H95.7701V197.029H97.9733V128.527Z" fill="#97ADFF"/>
<path opacity="0.8" d="M97.9733 128.527H95.7701V197.029H97.9733V128.527Z" fill="white"/>
<path d="M93.5614 197.034H95.7646L95.7646 128.532H93.5614L93.5614 197.034Z" fill="#97ADFF"/>
<path opacity="0.7" d="M93.5614 197.034H95.7646L95.7646 128.532H93.5614L93.5614 197.034Z" fill="white"/>
<path d="M95.7701 200.945C96.7188 200.945 97.4879 200.176 97.4879 199.227C97.4879 198.278 96.7188 197.509 95.7701 197.509C94.8213 197.509 94.0522 198.278 94.0522 199.227C94.0522 200.176 94.8213 200.945 95.7701 200.945Z" fill="#263238"/>
<path d="M97.6952 197.034H93.845V197.776H97.6952V197.034Z" fill="#263238"/>
<path d="M146.385 128.527H144.181V197.029H146.385V128.527Z" fill="#97ADFF"/>
<path opacity="0.8" d="M146.385 128.527H144.181V197.029H146.385V128.527Z" fill="white"/>
<path d="M141.978 197.034H144.181V128.532H141.978V197.034Z" fill="#97ADFF"/>
<path opacity="0.7" d="M141.978 197.034H144.181V128.532H141.978V197.034Z" fill="white"/>
<path d="M145.899 199.227C145.899 199.567 145.799 199.899 145.61 200.181C145.421 200.464 145.153 200.684 144.839 200.814C144.525 200.944 144.18 200.978 143.846 200.912C143.513 200.845 143.207 200.682 142.967 200.442C142.726 200.201 142.563 199.895 142.497 199.562C142.43 199.229 142.464 198.883 142.594 198.569C142.724 198.255 142.945 197.987 143.227 197.798C143.51 197.61 143.842 197.509 144.181 197.509C144.637 197.51 145.073 197.692 145.395 198.014C145.716 198.335 145.898 198.772 145.899 199.227Z" fill="#263238"/>
<path d="M146.107 197.034H142.256V197.776H146.107V197.034Z" fill="#263238"/>
<path d="M137.534 128.527H135.33V197.029H137.534V128.527Z" fill="#97ADFF"/>
<path opacity="0.8" d="M137.534 128.527H135.33V197.029H137.534V128.527Z" fill="white"/>
<path d="M133.127 197.034H135.33V128.532H133.127V197.034Z" fill="#97ADFF"/>
<path opacity="0.7" d="M133.127 197.034H135.33V128.532H133.127V197.034Z" fill="white"/>
<path d="M137.048 199.227C137.049 199.568 136.949 199.902 136.76 200.186C136.571 200.471 136.302 200.692 135.987 200.823C135.672 200.954 135.325 200.989 134.99 200.923C134.655 200.856 134.348 200.692 134.106 200.451C133.865 200.209 133.701 199.902 133.634 199.567C133.568 199.232 133.603 198.885 133.734 198.57C133.865 198.255 134.087 197.986 134.371 197.797C134.655 197.608 134.989 197.508 135.33 197.509C135.785 197.51 136.222 197.692 136.543 198.014C136.865 198.336 137.047 198.772 137.048 199.227Z" fill="#263238"/>
<path d="M137.255 197.034H133.405V197.776H137.255V197.034Z" fill="#263238"/>
<path d="M103.847 161.417V158.32H94.0522V161.417H103.847Z" fill="#97ADFF"/>
<path opacity="0.7" d="M103.847 161.417V158.32H94.0522V161.417H103.847Z" fill="white"/>
<path d="M145.714 161.406V158.309H105.723V161.406H145.714Z" fill="#97ADFF"/>
<path opacity="0.8" d="M145.714 161.406V158.309H105.723V161.406H145.714Z" fill="white"/>
<path d="M121.151 149.507H116.728C116.195 149.507 115.763 149.939 115.763 150.472V157.349C115.763 157.882 116.195 158.314 116.728 158.314H121.151C121.684 158.314 122.116 157.882 122.116 157.349V150.472C122.116 149.939 121.684 149.507 121.151 149.507Z" fill="#97ADFF"/>
<path opacity="0.3" d="M121.151 149.507H116.728C116.195 149.507 115.763 149.939 115.763 150.472V157.349C115.763 157.882 116.195 158.314 116.728 158.314H121.151C121.684 158.314 122.116 157.882 122.116 157.349V150.472C122.116 149.939 121.684 149.507 121.151 149.507Z" fill="white"/>
<path d="M122.116 152.026H119.924V156.449H122.116V152.026Z" fill="white"/>
<path d="M119.313 152.026H117.121V156.449H119.313V152.026Z" fill="white"/>
<path d="M120.966 148.312H116.908C116.748 148.312 116.619 148.442 116.619 148.601V149.212C116.619 149.372 116.748 149.501 116.908 149.501H120.966C121.125 149.501 121.255 149.372 121.255 149.212V148.601C121.255 148.442 121.125 148.312 120.966 148.312Z" fill="#97ADFF"/>
<path d="M115.283 148.749H110.478C109.9 148.749 109.431 149.217 109.431 149.796V157.267C109.431 157.845 109.9 158.314 110.478 158.314H115.283C115.861 158.314 116.33 157.845 116.33 157.267V149.796C116.33 149.217 115.861 148.749 115.283 148.749Z" fill="#97ADFF"/>
<path opacity="0.5" d="M115.283 148.749H110.478C109.9 148.749 109.431 149.217 109.431 149.796V157.267C109.431 157.845 109.9 158.314 110.478 158.314H115.283C115.861 158.314 116.33 157.845 116.33 157.267V149.796C116.33 149.217 115.861 148.749 115.283 148.749Z" fill="white"/>
<path d="M115.605 151.486H111.684V156.291H115.605V151.486Z" fill="white"/>
<path d="M115.087 147.451H110.68C110.505 147.451 110.364 147.592 110.364 147.767V148.427C110.364 148.602 110.505 148.743 110.68 148.743H115.087C115.261 148.743 115.403 148.602 115.403 148.427V147.767C115.403 147.592 115.261 147.451 115.087 147.451Z" fill="#97ADFF"/>
<path d="M113.314 114.298H98.5896V123.351H113.314V114.298Z" fill="#97ADFF"/>
<path opacity="0.2" d="M103.52 123.351H113.314V114.298H103.52V123.351Z" fill="white"/>
<path opacity="0.5" d="M98.5896 118.034H113.314V114.293H98.5896V118.034Z" fill="white"/>
<path opacity="0.5" d="M98.5896 119.61H113.314V118.825H98.5896V119.61Z" fill="white"/>
<path d="M112.529 120.439H104.305V122.522H112.529V120.439Z" fill="white"/>
<path d="M132.265 119.817C132.182 119.746 132.13 119.646 132.119 119.537C132.109 119.428 132.142 119.319 132.211 119.234L136.574 114.009C136.645 113.924 136.747 113.871 136.857 113.861C136.967 113.851 137.077 113.884 137.163 113.955C137.246 114.026 137.298 114.127 137.309 114.236C137.319 114.345 137.286 114.453 137.217 114.538L132.854 119.763C132.783 119.848 132.681 119.901 132.571 119.911C132.461 119.922 132.351 119.888 132.265 119.817Z" fill="#97ADFF"/>
<path d="M133.683 119.85C133.598 119.779 133.545 119.677 133.535 119.567C133.525 119.457 133.558 119.347 133.629 119.261L137.992 114.042C138.026 114 138.068 113.964 138.117 113.939C138.165 113.913 138.218 113.897 138.272 113.892C138.326 113.887 138.381 113.892 138.433 113.909C138.485 113.925 138.534 113.952 138.575 113.988C138.618 114.022 138.653 114.064 138.679 114.112C138.705 114.161 138.72 114.213 138.726 114.268C138.731 114.322 138.725 114.377 138.708 114.429C138.692 114.481 138.665 114.529 138.63 114.571L134.267 119.796C134.196 119.879 134.095 119.931 133.986 119.941C133.877 119.952 133.769 119.919 133.683 119.85Z" fill="#97ADFF"/>
<path d="M134.878 120.15C134.835 120.115 134.8 120.072 134.774 120.024C134.748 119.975 134.732 119.922 134.727 119.867C134.722 119.812 134.728 119.757 134.744 119.704C134.761 119.652 134.788 119.603 134.823 119.561L139.186 114.342C139.22 114.299 139.263 114.264 139.311 114.238C139.359 114.213 139.412 114.197 139.466 114.192C139.521 114.187 139.575 114.192 139.628 114.209C139.68 114.225 139.728 114.252 139.769 114.287C139.854 114.358 139.907 114.459 139.918 114.568C139.928 114.677 139.894 114.786 139.824 114.871L135.461 120.096C135.391 120.18 135.29 120.233 135.181 120.244C135.071 120.254 134.962 120.22 134.878 120.15Z" fill="#97ADFF"/>
<path d="M129.506 118.901C127.488 118.901 125.208 118.318 123.196 117.81C121.74 117.434 119.542 116.872 119.231 117.194C119.231 117.194 119.171 117.341 119.379 117.838C119.413 117.905 119.432 117.978 119.437 118.053C119.441 118.127 119.43 118.202 119.404 118.273C119.378 118.343 119.338 118.407 119.286 118.462C119.234 118.516 119.172 118.559 119.103 118.588C119.034 118.617 118.959 118.631 118.884 118.63C118.809 118.629 118.735 118.612 118.667 118.581C118.599 118.55 118.538 118.506 118.487 118.45C118.437 118.394 118.399 118.329 118.375 118.258C118.255 117.969 117.884 117.091 118.408 116.48C119.133 115.64 120.857 116.082 123.469 116.752C125.416 117.254 127.624 117.843 129.506 117.843C131.387 117.843 133.591 117.298 135.543 116.752C138.155 116.082 139.906 115.662 140.604 116.48C141.149 117.091 140.757 117.969 140.631 118.258C140.577 118.393 140.471 118.501 140.337 118.558C140.203 118.616 140.052 118.617 139.917 118.563C139.782 118.509 139.673 118.403 139.616 118.269C139.559 118.135 139.557 117.984 139.611 117.849C139.824 117.352 139.759 117.2 139.759 117.2C139.448 116.883 137.25 117.445 135.799 117.821C133.803 118.318 131.518 118.901 129.506 118.901Z" fill="#97ADFF"/>
<path opacity="0.5" d="M129.506 118.901C127.488 118.901 125.208 118.318 123.196 117.81C121.74 117.434 119.542 116.872 119.231 117.194C119.231 117.194 119.171 117.341 119.379 117.838C119.413 117.905 119.432 117.978 119.437 118.053C119.441 118.127 119.43 118.202 119.404 118.273C119.378 118.343 119.338 118.407 119.286 118.462C119.234 118.516 119.172 118.559 119.103 118.588C119.034 118.617 118.959 118.631 118.884 118.63C118.809 118.629 118.735 118.612 118.667 118.581C118.599 118.55 118.538 118.506 118.487 118.45C118.437 118.394 118.399 118.329 118.375 118.258C118.255 117.969 117.884 117.091 118.408 116.48C119.133 115.64 120.857 116.082 123.469 116.752C125.416 117.254 127.624 117.843 129.506 117.843C131.387 117.843 133.591 117.298 135.543 116.752C138.155 116.082 139.906 115.662 140.604 116.48C141.149 117.091 140.757 117.969 140.631 118.258C140.577 118.393 140.471 118.501 140.337 118.558C140.203 118.616 140.052 118.617 139.917 118.563C139.782 118.509 139.673 118.403 139.616 118.269C139.559 118.135 139.557 117.984 139.611 117.849C139.824 117.352 139.759 117.2 139.759 117.2C139.448 116.883 137.25 117.445 135.799 117.821C133.803 118.318 131.518 118.901 129.506 118.901Z" fill="white"/>
<path d="M129.506 118.356C124.516 118.356 117.399 114.538 118.877 118.04C120.355 121.541 124.423 123.351 129.506 123.351C134.589 123.351 138.652 121.552 140.129 118.04C141.607 114.527 134.496 118.356 129.506 118.356Z" fill="#97ADFF"/>
<path d="M100.209 76.238C100.253 76.4794 100.38 76.6976 100.569 76.8543L102.205 78.2395C102.361 78.3693 102.549 78.4534 102.749 78.4823C102.95 78.5112 103.154 78.4837 103.34 78.4031L104.976 77.6668C106.575 76.9527 108.001 75.8995 109.153 74.5801L109.54 74.1438C109.696 73.9653 109.814 73.7576 109.889 73.5329C109.963 73.3081 109.992 73.0708 109.974 72.8347C109.956 72.5987 109.89 72.3686 109.782 72.158C109.674 71.9474 109.525 71.7604 109.344 71.6079L107.664 70.1954C107.343 69.9226 106.935 69.7728 106.514 69.7728C106.092 69.7728 105.684 69.9226 105.363 70.1954L103.405 71.8751C103.405 71.8751 99.8385 74.0293 100.209 76.238Z" fill="#FFB573"/>
<path d="M99.1513 77.0997C99.2099 76.2626 99.3938 75.4391 99.6967 74.6565C101.082 74.4002 104.55 77.2688 105.008 78.474C104.714 79.1393 103.045 80.47 103.045 80.47C101.982 79.3138 99.9802 77.9232 99.1513 77.0997Z" fill="#E0E0E0"/>
<path d="M84.912 68.1285C85.392 69.7646 85.9155 71.4007 86.4445 73.0368C86.9735 74.6728 87.5352 76.3089 88.0806 77.945C88.6259 79.581 89.2367 81.1408 89.8584 82.6405C90.1693 83.3931 90.491 84.1184 90.8128 84.7619C90.9655 85.0837 91.1237 85.3618 91.2545 85.6018L91.3363 85.7381L91.3745 85.8036C91.3346 85.7521 91.2845 85.7094 91.2273 85.6781L90.8892 85.4C90.7506 85.3244 90.6018 85.2693 90.4474 85.2364C90.2927 85.2051 90.1332 85.2051 89.9784 85.2364C89.8148 85.3018 90.0984 85.2691 90.4692 85.0455C91.4901 84.374 92.4086 83.5585 93.196 82.6241C94.174 81.5106 95.0845 80.3396 95.9228 79.1175C96.3591 78.4958 96.7899 77.8523 97.1989 77.2033L97.8097 76.2271L98.3551 75.2782L105.303 78.8775C105.074 79.3411 104.888 79.701 104.676 80.1046L104.114 81.3098C103.689 82.0769 103.245 82.8386 102.783 83.5949C101.844 85.1487 100.813 86.6456 99.6967 88.0777C99.0948 88.839 98.4522 89.5672 97.7716 90.2591C97.0038 91.0526 96.1599 91.7686 95.252 92.3969C94.0457 93.2513 92.6628 93.8235 91.2055 94.0712C90.2323 94.2174 89.2402 94.1767 88.2824 93.9512C87.3248 93.7174 86.42 93.3047 85.6156 92.735H85.5883C85.4847 92.6587 85.3701 92.566 85.272 92.4787C85.0647 92.2878 84.863 92.0861 84.6666 91.8788C84.4703 91.6716 84.3885 91.5571 84.2522 91.388L84.0613 91.148L83.914 90.9463L83.625 90.5318C83.2923 90.0246 83.0033 89.5447 82.747 89.0921C82.2343 88.1813 81.8035 87.3142 81.3945 86.458C80.5765 84.7456 79.8566 83.0659 79.1585 81.3862C78.4605 79.7065 77.806 78.0322 77.1625 76.3525C76.519 74.6728 75.9028 73.0095 75.2865 71.2698L84.912 68.1285Z" fill="#97ADFF"/>
<path opacity="0.6" d="M84.912 68.1285C85.392 69.7646 85.9155 71.4007 86.4445 73.0368C86.9735 74.6728 87.5352 76.3089 88.0806 77.945C88.6259 79.581 89.2367 81.1408 89.8584 82.6405C90.1693 83.3931 90.491 84.1184 90.8128 84.7619C90.9655 85.0837 91.1237 85.3618 91.2545 85.6018L91.3363 85.7381L91.3745 85.8036C91.3346 85.7521 91.2845 85.7094 91.2273 85.6781L90.8892 85.4C90.7506 85.3244 90.6018 85.2693 90.4474 85.2364C90.2927 85.2051 90.1332 85.2051 89.9784 85.2364C89.8148 85.3018 90.0984 85.2691 90.4692 85.0455C91.4901 84.374 92.4086 83.5585 93.196 82.6241C94.174 81.5106 95.0845 80.3396 95.9228 79.1175C96.3591 78.4958 96.7899 77.8523 97.1989 77.2033L97.8097 76.2271L98.3551 75.2782L105.303 78.8775C105.074 79.3411 104.888 79.701 104.676 80.1046L104.114 81.3098C103.689 82.0769 103.245 82.8386 102.783 83.5949C101.844 85.1487 100.813 86.6456 99.6967 88.0777C99.0948 88.839 98.4522 89.5672 97.7716 90.2591C97.0038 91.0526 96.1599 91.7686 95.252 92.3969C94.0457 93.2513 92.6628 93.8235 91.2055 94.0712C90.2323 94.2174 89.2402 94.1767 88.2824 93.9512C87.3248 93.7174 86.42 93.3047 85.6156 92.735H85.5883C85.4847 92.6587 85.3701 92.566 85.272 92.4787C85.0647 92.2878 84.863 92.0861 84.6666 91.8788C84.4703 91.6716 84.3885 91.5571 84.2522 91.388L84.0613 91.148L83.914 90.9463L83.625 90.5318C83.2923 90.0246 83.0033 89.5447 82.747 89.0921C82.2343 88.1813 81.8035 87.3142 81.3945 86.458C80.5765 84.7456 79.8566 83.0659 79.1585 81.3862C78.4605 79.7065 77.806 78.0322 77.1625 76.3525C76.519 74.6728 75.9028 73.0095 75.2865 71.2698L84.912 68.1285Z" fill="white"/>
<path d="M74.5176 151.857C68.0933 131.494 63.1306 106.713 63.1306 106.713L82.4416 104.815C82.4416 104.815 83.7069 136.696 84.9121 150.816C86.1664 165.497 91.0746 199.592 91.0746 199.592L85.2011 200.072C85.2011 200.072 75.112 170.083 74.5176 151.857Z" fill="#97ADFF"/>
<path opacity="0.2" d="M70.6619 123.351L67.9733 128.14C69.3476 133.729 70.9564 139.876 72.7124 145.891C72.467 136.451 71.4799 125.544 70.6619 123.351Z" fill="black"/>
<path d="M98.9332 200.956C98.9332 200.956 90.6274 200.269 89.8312 199.091L85.3647 199.767L86.1064 204.473L88.8332 204.059L89.1931 203.563L89.9511 203.89C92.1816 203.557 98.0824 202.581 99.4076 201.866C99.4134 201.687 99.3728 201.508 99.2897 201.349C99.2066 201.189 99.0838 201.054 98.9332 200.956Z" fill="#263238"/>
<path d="M55.7409 150.499C56.0899 129.563 54.7429 115.569 56.5371 105.235L74.1849 104.967C74.1849 104.967 69.8547 138.185 67.6951 152.015C65.5355 165.846 62.7869 200.007 62.7869 200.007H57.3334C57.3334 200.007 52.5888 166.691 55.7409 150.499Z" fill="#97ADFF"/>
<path d="M68.1696 202.924C68.1696 202.924 62.9342 201.01 62.2416 199.729H57.7206L58.0642 204.495H61.7508L62.1489 204.053L62.8851 204.495C65.1374 204.495 67.2043 204.408 68.5895 203.901C68.606 203.716 68.5763 203.53 68.503 203.359C68.4297 203.189 68.3151 203.04 68.1696 202.924Z" fill="#263238"/>
<path d="M57.3279 63.4766C63.5668 62.7022 72.4888 62.7731 78.4659 63.8039C79.9593 64.0769 81.3294 64.8115 82.3831 65.9044C83.4368 66.9972 84.1211 68.3932 84.3394 69.8955C85.5992 78.9266 84.514 94.7092 83.7123 110.595C70.0784 115.269 55.6428 110.53 55.6428 110.53C55.1465 107.329 56.2645 96.8252 57.0171 91.2189C55.8882 85.4327 53.4995 78.8012 51.918 71.1116C51.7257 70.251 51.7161 69.3595 51.8899 68.4949C52.0636 67.6303 52.4169 66.8118 52.9267 66.0922C53.4366 65.3727 54.0917 64.7681 54.8498 64.3176C55.608 63.867 56.4522 63.5805 57.3279 63.4766Z" fill="white"/>
<path d="M62.896 51.5552L70.6073 57.3796C69.6911 59.8282 69.3966 62.3751 73.4105 63.3512C74.4139 64.6765 72.647 66.198 70.9836 66.8906C68.3059 66.5579 64.5266 65.669 62.896 63.4221C63.4086 61.677 63.5831 55.1709 62.896 51.5552Z" fill="#FFB573"/>
<path d="M72.6797 65.4181C72.3832 66.2715 71.8769 67.0367 71.2073 67.6432C70.1166 67.6432 68.5405 66.4216 68.5405 66.4216C68.5405 66.4216 69.1513 64.7037 70.0129 64.3492C72.2107 64.8891 72.6797 65.4181 72.6797 65.4181Z" fill="#263238"/>
<path d="M70.2093 66.9942C70.3566 66.8298 70.5443 66.7067 70.7537 66.6369C70.9631 66.5671 71.1871 66.553 71.4036 66.5961C72.827 69.2575 75.0575 85.6454 75.9301 90.4118C75.5538 93.3022 74.9921 94.2948 74.2395 97.5996C73.5523 95.0419 72.5707 93.5258 71.48 90.6736C71.7908 87.2651 70.6565 71.3734 70.2093 66.9942Z" fill="#263238"/>
<path opacity="0.2" d="M70.6128 57.3796L70.5474 57.3305L66.239 54.0584C65.8082 54.0584 64.9793 54.0311 65.3338 57.0524C65.5519 58.9775 68.4696 61.0553 70.3892 61.4425C69.7621 60.2863 70.0675 58.8357 70.6019 57.4123L70.6128 57.3796Z" fill="black"/>
<path d="M75.8046 44.4709C77.3534 46.8814 76.2682 50.5953 75.0793 51.7842C72.9142 47.7812 73.4323 43.3747 75.8046 44.4709Z" fill="#263238"/>
<path d="M63.5177 46.9523C63.3978 51.4515 63.0978 54.0856 65.1538 56.5615C68.2623 60.2917 73.9831 58.6775 75.4501 54.2873C76.7699 50.339 76.7426 43.6365 72.4998 41.5096C71.5617 41.0403 70.52 40.8164 69.472 40.8588C68.424 40.9013 67.4038 41.2086 66.5067 41.7522C65.6097 42.2957 64.865 43.0578 64.3423 43.9672C63.8196 44.8765 63.5359 45.9036 63.5177 46.9523Z" fill="#FFB573"/>
<path d="M64.6302 50.4972C66.8553 50.2899 67.4933 46.4288 66.1627 43.3312C68.9604 42.6168 71.6708 43.7893 73.5414 44.4819C75.4119 45.1745 78.1878 45.2781 78.1878 42.9603C77.228 43.5057 75.3465 42.644 75.1502 41.6842C77.1789 41.946 77.3861 38.772 76.2409 38.2594C76.2409 39.8954 70.8255 38.8756 67.9787 37.8612C62.5906 35.9361 59.4711 39.0447 61.1127 41.8969C56.8916 43.9692 59.4766 48.0049 62.8251 51.1679C63.3961 50.8691 64.0026 50.6437 64.6302 50.4972Z" fill="#263238"/>
<path d="M65.9882 48.6375C65.6446 51.6751 74.3322 53.2675 75.8046 53.1421C76.2627 55.7762 78.0679 57.505 76.2464 59.141C74.4249 60.7771 67.9461 61.197 65.6556 57.8703C63.3651 54.5437 65.1375 48.872 65.1375 48.872L65.9882 48.6375Z" fill="#263238"/>
<path d="M72.2871 54.2111C72.5194 54.2297 72.7528 54.2297 72.9851 54.2111C73.0037 54.2085 73.0214 54.2017 73.0368 54.191C73.0523 54.1804 73.065 54.1663 73.074 54.1499C73.0831 54.1334 73.0881 54.1151 73.0887 54.0964C73.0894 54.0777 73.0857 54.059 73.0778 54.042C73.0712 54.0092 73.0522 53.9801 73.0248 53.9609C72.9975 53.9416 72.9637 53.9335 72.9306 53.9384C72.4068 54.0049 71.8749 53.9532 71.3737 53.7871C70.8726 53.621 70.4151 53.3447 70.0347 52.9786C70.0113 52.9559 69.98 52.9432 69.9475 52.9432C69.9149 52.9432 69.8836 52.9559 69.8602 52.9786C69.8376 53.002 69.8249 53.0333 69.8249 53.0658C69.8249 53.0984 69.8376 53.1297 69.8602 53.1531C70.5135 53.7893 71.3763 54.1655 72.2871 54.2111Z" fill="#FFB573"/>
<path d="M62.4325 41.826C60.3765 42.1641 59.7057 40.1245 60.4746 38.5538C57.5843 39.8627 59.8639 43.3312 62.4325 41.826Z" fill="#263238"/>
<path d="M61.4399 50.0936C61.564 50.5901 61.7856 51.0569 62.0917 51.467C62.3979 51.8771 62.7825 52.2222 63.2232 52.4823C64.4121 53.1749 65.3556 52.1987 65.3283 50.9008C65.2956 49.7337 64.6466 47.9667 63.3105 47.8086C63.0192 47.778 62.725 47.8204 62.4542 47.9317C62.1833 48.0431 61.9444 48.2201 61.7589 48.4466C61.5735 48.6732 61.4472 48.9424 61.3915 49.2299C61.3358 49.5173 61.3524 49.8142 61.4399 50.0936Z" fill="#FFB573"/>
<path d="M70.5092 48.3102C70.4765 48.6756 70.6455 48.9865 70.8855 49.0028C71.1254 49.0192 71.3436 48.7411 71.3763 48.3811C71.409 48.0212 71.24 47.7049 71 47.6831C70.76 47.6612 70.5419 47.9448 70.5092 48.3102Z" fill="#263238"/>
<path d="M74.8285 48.9484C74.7957 49.3138 74.9648 49.6246 75.2047 49.641C75.4447 49.6574 75.6628 49.3792 75.6956 49.0138C75.7283 48.6484 75.5592 48.3376 75.3193 48.3212C75.0793 48.3049 74.8612 48.5885 74.8285 48.9484Z" fill="#263238"/>
<path d="M73.6232 49.2374C73.958 50.3918 74.4537 51.4934 75.0957 52.5096C74.8308 52.6682 74.5347 52.7674 74.2277 52.8004C73.9208 52.8333 73.6103 52.7992 73.3178 52.7004L73.6232 49.2374Z" fill="#ED893E"/>
<path d="M68.7913 46.9033C68.7543 46.9026 68.7183 46.8913 68.6877 46.8706C68.64 46.8402 68.606 46.7926 68.5928 46.7376C68.5796 46.6827 68.5882 46.6248 68.6168 46.5761C68.7877 46.2754 69.0277 46.0197 69.3169 45.8301C69.6061 45.6405 69.9363 45.5223 70.2801 45.4854C70.3314 45.4935 70.378 45.5197 70.4117 45.5592C70.4454 45.5987 70.4639 45.6489 70.4639 45.7008C70.4639 45.7527 70.4454 45.8029 70.4117 45.8423C70.378 45.8818 70.3314 45.908 70.2801 45.9162C70.0099 45.9456 69.7504 46.0385 69.523 46.1873C69.2955 46.3361 69.1065 46.5366 68.9713 46.7724C68.9574 46.8095 68.933 46.8416 68.901 46.8649C68.869 46.8882 68.8308 46.9015 68.7913 46.9033Z" fill="#263238"/>
<path d="M76.35 47.6122C76.3146 47.6129 76.2797 47.6048 76.2482 47.5886C76.2168 47.5724 76.1899 47.5487 76.17 47.5195C76.0271 47.2906 75.8299 47.1007 75.5958 46.9665C75.3617 46.8324 75.0981 46.7582 74.8284 46.7505C74.8 46.7513 74.7718 46.7463 74.7453 46.7359C74.7189 46.7256 74.6948 46.71 74.6745 46.6902C74.6541 46.6704 74.638 46.6467 74.627 46.6205C74.6159 46.5944 74.6103 46.5662 74.6103 46.5378C74.6088 46.5097 74.6131 46.4816 74.6228 46.4552C74.6326 46.4288 74.6476 46.4046 74.667 46.3842C74.6864 46.3638 74.7097 46.3475 74.7356 46.3365C74.7615 46.3254 74.7894 46.3197 74.8175 46.3197C75.1579 46.3293 75.491 46.4211 75.7882 46.5873C76.0854 46.7534 76.3381 46.9891 76.5245 47.2741C76.541 47.2972 76.5527 47.3234 76.5588 47.3512C76.565 47.3789 76.5656 47.4076 76.5605 47.4356C76.5554 47.4635 76.5448 47.4902 76.5292 47.514C76.5137 47.5377 76.4935 47.5582 76.4699 47.574C76.4352 47.5996 76.3931 47.613 76.35 47.6122Z" fill="#263238"/>
<path d="M63.0596 62.2224C63.0596 62.2224 60.8782 62.8114 60.8782 62.8168C60.8782 63.3622 61.4835 64.3984 63.0105 65.7345C64.4394 66.9779 67.5315 69.1266 68.9113 69.1266C68.7422 67.4906 69.2439 65.1455 70.002 64.3493C68.2078 64.442 64.7993 63.4004 63.0596 62.2224Z" fill="#E0E0E0"/>
<path d="M70.0129 64.3492C71.5454 64.9491 73.236 67.2232 73.705 68.7721C74.5121 68.3412 75.3738 65.2382 74.8993 63.2367C74.1531 62.8319 73.2979 62.6735 72.4561 62.784C72.3525 63.4494 71.8726 64.2511 70.0129 64.3492Z" fill="#E0E0E0"/>
<path d="M63.1142 200.165L57.0607 200.334L56.4281 196.898L63.5177 197.324L63.1142 200.165Z" fill="#97ADFF"/>
<path opacity="0.2" d="M63.1142 200.165L57.0607 200.334L56.4281 196.898L63.5177 197.324L63.1142 200.165Z" fill="black"/>
<path d="M91.3473 199.549L84.8684 200.552L83.7723 197.689L90.9546 196.064L91.3473 199.549Z" fill="#97ADFF"/>
<path opacity="0.2" d="M91.3473 199.549L84.8684 200.552L83.7723 197.689L90.9546 196.064L91.3473 199.549Z" fill="black"/>
<path d="M59.7821 62.2224C65.2356 69.5302 67.4879 112.172 64.423 148.934C56.4281 150.325 48.3514 138.921 48.3514 138.921C48.3514 138.921 53.6577 101.946 52.267 90.1283C50.8764 78.3104 49.3276 71.4008 49.7093 67.8887C50.0911 64.3766 55.8337 62.8114 59.7821 62.2224Z" fill="#97ADFF"/>
<path opacity="0.7" d="M59.7821 62.2224C65.2356 69.5302 67.4879 112.172 64.423 148.934C56.4281 150.325 48.3514 138.921 48.3514 138.921C48.3514 138.921 53.6577 101.946 52.267 90.1283C50.8764 78.3104 49.3276 71.4008 49.7093 67.8887C50.0911 64.3766 55.8337 62.8114 59.7821 62.2224Z" fill="white"/>
<path d="M75.0356 62.7677C78.635 75.469 83.096 120.112 81.4654 146.824C84.4976 144.326 87.9715 138.583 87.8952 136.505C87.8243 134.569 86.5045 99.792 86.0028 94.6111C85.7137 86.1799 85.9264 73.3858 84.9121 68.4612C83.8977 63.5366 78.7604 62.4405 75.0356 62.7677Z" fill="#97ADFF"/>
<path opacity="0.7" d="M75.0356 62.7677C78.635 75.469 83.096 120.112 81.4654 146.824C84.4976 144.326 87.9715 138.583 87.8952 136.505C87.8243 134.569 86.5045 99.792 86.0028 94.6111C85.7137 86.1799 85.9264 73.3858 84.9121 68.4612C83.8977 63.5366 78.7604 62.4405 75.0356 62.7677Z" fill="white"/>
<path d="M72.7288 104.215L57.2625 103.898C57.1189 103.899 56.9771 103.867 56.8476 103.805C56.7181 103.743 56.6043 103.652 56.5147 103.54C56.4251 103.428 56.3619 103.297 56.3299 103.157C56.2979 103.017 56.2979 102.871 56.3299 102.731L60.3983 80.8517C60.4693 80.5438 60.6419 80.2688 60.8882 80.071C61.1345 79.8731 61.4403 79.7639 61.7562 79.761L77.2171 80.0937C77.3607 80.0933 77.5025 80.1254 77.6319 80.1875C77.7614 80.2496 77.8752 80.3401 77.9648 80.4523C78.0545 80.5644 78.1176 80.6954 78.1496 80.8354C78.1816 80.9753 78.1816 81.1207 78.1496 81.2607L74.0867 103.124C74.014 103.431 73.8409 103.705 73.595 103.903C73.349 104.1 73.0442 104.21 72.7288 104.215Z" fill="#97ADFF"/>
<path d="M67.8315 94.2293C67.7133 94.013 67.6765 93.7615 67.7279 93.5203L68.1314 91.4262C68.1721 91.2279 68.267 91.0449 68.4057 90.8975C68.5444 90.7502 68.7213 90.6443 68.9168 90.5918L70.6619 90.1446C72.3578 89.7037 74.1293 89.6367 75.8537 89.9483L76.399 90.0519C76.6324 90.0936 76.855 90.1816 77.0539 90.3107C77.2527 90.4398 77.4237 90.6073 77.5568 90.8035C77.69 90.9996 77.7825 91.2204 77.8291 91.4528C77.8756 91.6853 77.8752 91.9247 77.8279 92.157L77.397 94.3057C77.3133 94.7197 77.0854 95.0905 76.7538 95.3522C76.4223 95.6138 76.0086 95.7493 75.5865 95.7345L73.0124 95.6418C73.0124 95.6418 68.9168 96.1871 67.8315 94.2293Z" fill="#FFB573"/>
<path d="M68.1696 89.9864C68.9515 89.6812 69.7754 89.4973 70.6128 89.441C71.42 90.5917 70.2529 94.9382 69.3313 95.8708C68.6059 95.8708 66.7026 94.911 66.7026 94.911C67.3516 93.4603 67.7879 91.0826 68.1696 89.9864Z" fill="#E0E0E0"/>
<path d="M59.024 70.8499C58.4132 72.4151 57.8024 74.0621 57.2134 75.6763C56.6244 77.2906 56.0572 78.9485 55.5173 80.5355C54.9774 82.1225 54.4702 83.7694 54.0394 85.3401C53.8267 86.1199 53.6304 86.8943 53.4941 87.5924C53.4232 87.9469 53.3686 88.2632 53.3305 88.5304V88.6886V88.7649V88.7922C53.3262 88.7271 53.3133 88.663 53.2923 88.6013L53.1887 88.1759C53.1534 88.0747 53.0977 87.9819 53.0251 87.9032C52.9705 87.8542 52.9651 87.9032 53.0251 87.9469C53.3698 88.2067 53.7574 88.4042 54.1703 88.5304C55.5593 88.9591 56.9948 89.2191 58.4459 89.3048C60.0991 89.4247 61.7577 89.4538 63.4141 89.3921C64.2594 89.3921 65.1102 89.3157 65.9609 89.2503L67.2316 89.1412L68.4423 89.0158L69.6912 96.738C69.1458 96.8362 68.7041 96.9071 68.2132 96.978L66.7899 97.1798C65.8409 97.3052 64.8866 97.4143 63.9267 97.5015C61.9709 97.6841 60.0064 97.7587 58.0423 97.7251C55.874 97.7073 53.7162 97.4216 51.618 96.8744C50.2804 96.5179 49.0108 95.943 47.8605 95.1728C47.126 94.6663 46.47 94.0544 45.9136 93.3568C45.2854 92.5611 44.8118 91.6547 44.5175 90.6846V90.6518C44.4788 90.5211 44.4479 90.3881 44.4248 90.2537C44.3811 89.9756 44.343 89.7084 44.3157 89.4084C44.2884 89.1085 44.3157 88.983 44.3157 88.7649V88.2195L44.343 87.7178C44.3921 87.1125 44.4575 86.5562 44.5339 86.0436C44.692 85.0074 44.8774 84.0585 45.0792 83.1314C45.4828 81.2772 45.9463 79.5102 46.4262 77.7541C46.9061 75.9981 47.4188 74.2748 47.9423 72.5569C48.4659 70.839 49.0003 69.143 49.5784 67.3978L59.024 70.8499Z" fill="#97ADFF"/>
<path opacity="0.7" d="M59.024 70.8499C58.4132 72.4151 57.8024 74.0621 57.2134 75.6763C56.6244 77.2906 56.0572 78.9485 55.5173 80.5355C54.9774 82.1225 54.4702 83.7694 54.0394 85.3401C53.8267 86.1199 53.6304 86.8943 53.4941 87.5924C53.4232 87.9469 53.3686 88.2632 53.3305 88.5304V88.6886V88.7649V88.7922C53.3262 88.7271 53.3133 88.663 53.2923 88.6013L53.1887 88.1759C53.1534 88.0747 53.0977 87.9819 53.0251 87.9032C52.9705 87.8542 52.9651 87.9032 53.0251 87.9469C53.3698 88.2067 53.7574 88.4042 54.1703 88.5304C55.5593 88.9591 56.9948 89.2191 58.4459 89.3048C60.0991 89.4247 61.7577 89.4538 63.4141 89.3921C64.2594 89.3921 65.1102 89.3157 65.9609 89.2503L67.2316 89.1412L68.4423 89.0158L69.6912 96.738C69.1458 96.8362 68.7041 96.9071 68.2132 96.978L66.7899 97.1798C65.8409 97.3052 64.8866 97.4143 63.9267 97.5015C61.9709 97.6841 60.0064 97.7587 58.0423 97.7251C55.874 97.7073 53.7162 97.4216 51.618 96.8744C50.2804 96.5179 49.0108 95.943 47.8605 95.1728C47.126 94.6663 46.47 94.0544 45.9136 93.3568C45.2854 92.5611 44.8118 91.6547 44.5175 90.6846V90.6518C44.4788 90.5211 44.4479 90.3881 44.4248 90.2537C44.3811 89.9756 44.343 89.7084 44.3157 89.4084C44.2884 89.1085 44.3157 88.983 44.3157 88.7649V88.2195L44.343 87.7178C44.3921 87.1125 44.4575 86.5562 44.5339 86.0436C44.692 85.0074 44.8774 84.0585 45.0792 83.1314C45.4828 81.2772 45.9463 79.5102 46.4262 77.7541C46.9061 75.9981 47.4188 74.2748 47.9423 72.5569C48.4659 70.839 49.0003 69.143 49.5784 67.3978L59.024 70.8499Z" fill="white"/>
<path d="M176.347 194.166C167.82 198.756 158.288 201.158 148.604 201.157H146.701C146.16 201.157 145.641 201.372 145.259 201.755C144.876 202.137 144.661 202.656 144.661 203.197C144.661 203.738 144.876 204.257 145.259 204.639C145.641 205.022 146.16 205.237 146.701 205.237H207.885C208.272 205.237 208.656 205.16 209.014 205.012C209.372 204.864 209.697 204.646 209.971 204.373C210.245 204.099 210.462 203.773 210.61 203.415C210.759 203.057 210.835 202.674 210.835 202.286V196.767C210.835 196.38 210.759 195.996 210.61 195.638C210.462 195.28 210.245 194.955 209.971 194.681C209.697 194.407 209.372 194.19 209.014 194.041C208.656 193.893 208.272 193.817 207.885 193.817H177.748C177.259 193.817 176.778 193.937 176.347 194.166Z" fill="#263238"/>
<path d="M198.51 196.767H186.048C185.269 196.767 184.507 196.535 183.859 196.103C183.21 195.67 182.705 195.055 182.405 194.335L175.73 178.263C175.483 177.664 175.387 177.013 175.451 176.368C175.515 175.723 175.737 175.104 176.097 174.565C176.457 174.026 176.945 173.584 177.516 173.278C178.087 172.972 178.725 172.811 179.373 172.81H191.824C192.604 172.81 193.367 173.041 194.016 173.474C194.665 173.907 195.172 174.522 195.472 175.242L202.142 191.319C202.389 191.917 202.485 192.567 202.422 193.211C202.358 193.855 202.137 194.473 201.778 195.011C201.419 195.55 200.934 195.992 200.364 196.298C199.793 196.604 199.157 196.765 198.51 196.767Z" fill="#E0E0E0"/>
<path opacity="0.2" d="M196.966 196.222H185.967C185.476 196.223 184.997 196.079 184.589 195.807C184.181 195.535 183.863 195.148 183.676 194.695L176.521 177.462C176.365 177.085 176.304 176.675 176.344 176.27C176.384 175.864 176.524 175.474 176.75 175.135C176.977 174.796 177.283 174.518 177.643 174.325C178.002 174.133 178.404 174.032 178.812 174.031H189.79C190.28 174.031 190.76 174.177 191.168 174.449C191.576 174.722 191.893 175.11 192.08 175.564L199.235 192.792C199.39 193.167 199.451 193.574 199.412 193.978C199.373 194.382 199.236 194.771 199.012 195.11C198.788 195.448 198.485 195.727 198.128 195.921C197.771 196.115 197.372 196.218 196.966 196.222Z" fill="black"/>
<path d="M195.15 164.111H173.467C171.347 164.111 169.628 165.83 169.628 167.951V171.054C169.628 173.174 171.347 174.893 173.467 174.893H195.15C197.271 174.893 198.99 173.174 198.99 171.054V167.951C198.99 165.83 197.271 164.111 195.15 164.111Z" fill="#263238"/>
<path d="M167.588 139.281H209.39V157.747C209.391 158.953 209.155 160.147 208.694 161.262C208.233 162.376 207.557 163.389 206.705 164.242C205.852 165.095 204.84 165.772 203.726 166.233C202.612 166.694 201.417 166.931 200.211 166.931H167.588V139.281Z" fill="#E0E0E0"/>
<path opacity="0.2" d="M168.444 143.126H201.782V157.851C201.782 159.792 201.011 161.653 199.638 163.026C198.266 164.398 196.404 165.169 194.463 165.169H168.444V143.126Z" fill="black"/>
<path opacity="0.6" d="M172.425 204.833H146.974C146.549 204.826 146.144 204.654 145.844 204.354C145.544 204.054 145.372 203.649 145.365 203.224C145.372 202.8 145.544 202.395 145.844 202.094C146.144 201.794 146.549 201.622 146.974 201.615H172.425C172.85 201.622 173.255 201.794 173.555 202.094C173.855 202.395 174.027 202.8 174.034 203.224C174.027 203.649 173.855 204.054 173.555 204.354C173.255 204.654 172.85 204.826 172.425 204.833Z" fill="black"/>
<path d="M139.208 142.39C139.209 142.613 139.144 142.832 139.02 143.018C138.897 143.205 138.721 143.35 138.515 143.437C138.308 143.523 138.081 143.546 137.862 143.503C137.643 143.46 137.441 143.353 137.283 143.195C137.124 143.038 137.016 142.837 136.972 142.617C136.928 142.398 136.95 142.171 137.035 141.964C137.121 141.758 137.265 141.581 137.451 141.457C137.637 141.333 137.855 141.266 138.079 141.266C138.227 141.266 138.373 141.294 138.51 141.35C138.647 141.406 138.772 141.489 138.877 141.593C138.982 141.698 139.065 141.822 139.122 141.958C139.178 142.095 139.208 142.242 139.208 142.39Z" fill="#263238"/>
<path d="M153.594 177.227C154.883 177.227 155.928 176.182 155.928 174.893C155.928 173.604 154.883 172.559 153.594 172.559C152.305 172.559 151.26 173.604 151.26 174.893C151.26 176.182 152.305 177.227 153.594 177.227Z" fill="#263238"/>
<path d="M158.104 190.659C157.991 190.687 157.871 190.67 157.77 190.612C157.669 190.554 157.593 190.46 157.559 190.348L143.892 142.548C143.865 142.434 143.882 142.315 143.94 142.214C143.997 142.112 144.092 142.037 144.203 142.003C144.317 141.975 144.436 141.992 144.538 142.05C144.639 142.108 144.714 142.202 144.749 142.313L158.421 190.114C158.449 190.228 158.432 190.349 158.373 190.451C158.314 190.552 158.218 190.627 158.104 190.659Z" fill="#E0E0E0"/>
<path d="M137.893 142.39C137.895 142.269 137.944 142.153 138.029 142.067C138.115 141.982 138.23 141.933 138.352 141.932H144.307C144.428 141.933 144.544 141.982 144.629 142.067C144.715 142.153 144.764 142.269 144.765 142.39C144.765 142.512 144.717 142.629 144.631 142.716C144.545 142.802 144.429 142.852 144.307 142.853H138.352C138.23 142.852 138.113 142.802 138.027 142.716C137.942 142.629 137.893 142.512 137.893 142.39Z" fill="#E0E0E0"/>
<path d="M138.057 145.88H138.112C138.35 145.88 138.542 145.687 138.542 145.449V140.296C138.542 140.058 138.35 139.865 138.112 139.865H138.057C137.819 139.865 137.626 140.058 137.626 140.296V145.449C137.626 145.687 137.819 145.88 138.057 145.88Z" fill="#E0E0E0"/>
<path d="M128.459 142.084C127.939 141.893 127.457 141.61 127.035 141.25C126.888 141.114 126.78 140.94 126.725 140.747C126.67 140.554 126.669 140.35 126.723 140.156C126.777 139.963 126.882 139.788 127.029 139.651C127.175 139.514 127.357 139.42 127.553 139.379C130.826 138.676 137.757 137.089 140.675 135.976C139.726 138.556 133.661 141.801 131.687 142.188C130.621 142.437 129.507 142.402 128.459 142.084Z" fill="black"/>
<path d="M128.459 142.084C130.787 142.739 133.078 140.814 133.111 138.163C133.117 137.867 133.21 137.579 133.379 137.336C133.547 137.092 133.784 136.904 134.06 136.794C136.432 135.84 141.504 134.384 143.963 133.697C144.147 133.645 144.339 133.636 144.526 133.67C144.714 133.705 144.891 133.781 145.044 133.894C145.197 134.008 145.322 134.154 145.41 134.323C145.498 134.492 145.546 134.679 145.55 134.869C145.577 136.505 145.114 138.883 142.278 139.674C132.98 142.27 130.547 142.881 128.459 142.084Z" fill="#263238"/>
<path d="M250.068 113.557L249.522 113.475C249.611 112.795 249.553 112.105 249.354 111.449C249.155 110.793 248.818 110.187 248.367 109.671C247.916 109.156 247.36 108.742 246.736 108.457C246.113 108.173 245.436 108.024 244.751 108.021H235.48V107.476H244.751C245.517 107.479 246.274 107.646 246.97 107.965C247.667 108.284 248.288 108.748 248.79 109.326C249.293 109.905 249.667 110.584 249.886 111.318C250.106 112.052 250.166 112.825 250.062 113.584L250.068 113.557Z" fill="#97ADFF"/>
<path d="M246.752 118.252L246.376 117.854L248.399 115.94L248.808 116.294L248.759 116.354L246.752 118.252Z" fill="#97ADFF"/>
<path d="M187.914 151.901H146.946C143.058 151.901 142.093 146.496 145.741 145.149L161.316 139.401C169.032 136.554 176.184 132.367 182.444 127.032L200.271 111.85C202.222 110.189 204.701 109.277 207.263 109.276H244.756C245.432 109.275 246.094 109.469 246.664 109.834C247.233 110.199 247.685 110.72 247.966 111.335C248.248 111.95 248.347 112.633 248.252 113.302C248.156 113.971 247.87 114.599 247.428 115.111L232.371 129.29C227.845 133.146 222.888 136.464 217.597 139.178L198.761 148.841C194.109 151.23 193.149 151.901 187.914 151.901Z" fill="#97ADFF"/>
<path opacity="0.2" d="M225.129 133.419C225.079 133.419 225.031 133.407 224.989 133.381C224.946 133.356 224.912 133.32 224.889 133.277L224.343 132.257C223.807 131.289 223.022 130.482 222.068 129.92C221.115 129.358 220.029 129.062 218.923 129.061H182.236C182.164 129.061 182.095 129.032 182.044 128.981C181.992 128.93 181.964 128.861 181.964 128.789C181.964 128.716 181.992 128.647 182.044 128.596C182.095 128.545 182.164 128.516 182.236 128.516H218.906C220.11 128.515 221.293 128.837 222.33 129.449C223.367 130.061 224.22 130.941 224.801 131.995L225.347 133.015C225.38 133.079 225.388 133.153 225.367 133.223C225.347 133.292 225.3 133.35 225.238 133.386C225.204 133.404 225.167 133.415 225.129 133.419Z" fill="black"/>
<path opacity="0.2" d="M185.759 145.733H146.81C143.374 146.824 144.285 151.312 147.944 151.312H185.759C187.739 151.312 189.233 149.741 188.884 148.04C188.706 147.355 188.299 146.753 187.73 146.333C187.161 145.913 186.466 145.701 185.759 145.733Z" fill="black"/>
<path d="M160.106 176.595H122.034C121.119 176.595 120.224 176.317 119.47 175.798C118.715 175.279 118.136 174.543 117.809 173.687C117.482 172.832 117.423 171.897 117.639 171.007C117.855 170.117 118.336 169.314 119.019 168.703L138.362 151.399C140.429 149.547 143.108 148.523 145.883 148.525H183.954C184.87 148.525 185.765 148.802 186.519 149.321C187.274 149.84 187.853 150.577 188.18 151.432C188.507 152.288 188.566 153.222 188.35 154.112C188.134 155.002 187.653 155.806 186.97 156.416L167.626 173.721C165.56 175.573 162.881 176.596 160.106 176.595Z" fill="#97ADFF"/>
<path opacity="0.2" d="M156.572 175.924H121.669C120.841 175.921 120.048 175.591 119.463 175.005C118.877 174.42 118.547 173.627 118.544 172.799C118.547 171.971 118.877 171.178 119.463 170.592C120.048 170.007 120.841 169.677 121.669 169.674H156.572C157.401 169.675 158.195 170.005 158.782 170.59C159.368 171.176 159.699 171.97 159.702 172.799C159.699 173.628 159.368 174.422 158.782 175.007C158.195 175.593 157.401 175.922 156.572 175.924Z" fill="black"/>
<path d="M188.917 84.8383L187.254 86.0708C187.766 91.4371 193.111 93.2695 194.556 89.5938C195.783 86.5289 192.615 84.8928 188.917 84.8383Z" fill="#263238"/>
<path d="M190.439 84.8873C190.319 86.4689 189.451 88.574 186.828 87.7341C186.738 87.7037 186.657 87.6516 186.592 87.5824C186.527 87.5132 186.48 87.4291 186.455 87.3375C186.431 87.2458 186.429 87.1495 186.45 87.057C186.471 86.9645 186.515 86.8786 186.577 86.807C187.431 85.834 188.434 85.0036 189.55 84.3474C189.641 84.2908 189.747 84.2606 189.854 84.2601C189.962 84.2597 190.068 84.289 190.16 84.3449C190.252 84.4008 190.326 84.481 190.376 84.5768C190.425 84.6725 190.447 84.78 190.439 84.8873Z" fill="#97ADFF"/>
<path d="M176.014 69.7537C176.303 67.5722 184.374 66.0507 188.012 72.8786C190.019 76.6306 190.133 80.7208 189.92 83.3167C189.854 84.128 189.555 84.9029 189.06 85.549C188.565 86.195 187.894 86.6848 187.128 86.9597C184.254 88.0068 179.493 89.3047 177.088 87.6196C172.289 84.2874 176.014 69.7537 176.014 69.7537Z" fill="#263238"/>
<path d="M176.014 69.7537C168.013 75.5454 168.766 83.5457 173.636 85.7544C180.169 81.9969 176.014 69.7537 176.014 69.7537Z" fill="#263238"/>
<path d="M146.963 106.991L145.719 103.669L141.825 107.918C141.825 107.918 144.045 110.186 146.363 110.574L146.701 110.028C146.97 109.574 147.133 109.065 147.178 108.539C147.223 108.013 147.15 107.484 146.963 106.991Z" fill="#7F3E3B"/>
<path d="M141.88 103.757L140.833 105.284C140.612 105.602 140.519 105.992 140.574 106.375C140.628 106.758 140.826 107.107 141.127 107.351L141.825 107.923L145.719 103.669L143.538 103.124C143.23 103.048 142.906 103.067 142.61 103.18C142.313 103.294 142.059 103.495 141.88 103.757Z" fill="#7F3E3B"/>
<path d="M172.262 100.223C172.109 100.654 171.984 100.975 171.842 101.313C171.7 101.652 171.553 102.012 171.4 102.35C171.1 103.037 170.784 103.708 170.451 104.373C169.792 105.709 169.063 107.011 168.27 108.272C167.464 109.543 166.588 110.769 165.647 111.942C164.692 113.138 163.653 114.264 162.538 115.313L161.671 116.087L161.458 116.278L161.404 116.327L161.306 116.409L161.011 116.638C160.63 116.895 160.213 117.093 159.773 117.227C159.113 117.418 158.422 117.475 157.739 117.396C157.232 117.345 156.732 117.244 156.245 117.096C154.702 116.596 153.234 115.888 151.882 114.991C149.427 113.407 147.143 111.574 145.065 109.521C144.804 109.264 144.644 108.922 144.617 108.556C144.589 108.191 144.696 107.828 144.916 107.536C145.136 107.243 145.455 107.04 145.813 106.965C146.172 106.89 146.545 106.947 146.865 107.127H146.914C149.28 108.469 151.724 109.821 154.107 110.895C155.187 111.409 156.321 111.798 157.488 112.057C157.679 112.092 157.872 112.107 158.066 112.101C158.208 112.101 158.241 112.046 158.115 112.101C158.008 112.122 157.906 112.164 157.815 112.226C157.782 112.244 157.751 112.266 157.723 112.291L157.761 112.248L157.924 112.079L158.579 111.397C160.3 109.481 161.815 107.39 163.1 105.158C163.771 104.035 164.37 102.868 164.965 101.695C165.259 101.106 165.543 100.512 165.805 99.9173L166.192 99.023L166.541 98.1831L166.596 98.0522C166.885 97.303 167.46 96.6994 168.194 96.3742C168.929 96.0489 169.762 96.0287 170.511 96.318C171.26 96.6073 171.864 97.1823 172.189 97.9167C172.515 98.651 172.535 99.4844 172.245 100.234L172.262 100.223Z" fill="#7F3E3B"/>
<path d="M169.715 94.7964C164.545 97.8504 163.983 103.348 161.633 105.507C164.163 111.506 168.363 111.55 168.363 111.55C168.363 111.55 175.452 91.4152 169.715 94.7964Z" fill="#97ADFF"/>
<path opacity="0.3" d="M169.715 94.7964C164.545 97.8504 163.983 103.348 161.633 105.507C164.163 111.506 168.363 111.55 168.363 111.55C168.363 111.55 175.452 91.4152 169.715 94.7964Z" fill="white"/>
<path d="M189.948 121.35C190.602 114.222 190.828 107.061 190.624 99.9065C190.499 96.9506 189.19 94.2293 186.261 93.9075C185.476 93.8312 184.625 93.7657 183.791 93.7221C180.813 93.5119 177.824 93.5119 174.847 93.7221C173.876 93.8148 172.878 93.9348 171.929 94.0711C170.266 94.3041 168.749 95.1481 167.674 96.4387C166.599 97.7292 166.044 99.3738 166.116 101.052C166.203 102.988 163.143 107.471 166.917 110.066C167.239 112.864 166.814 117.641 166.95 122.506C164.398 126.896 155.857 130.277 155.116 134.537C154.069 140.579 160.597 142.853 166.803 143.262C185.814 144.604 195.325 141.986 189.948 121.35Z" fill="#97ADFF"/>
<path opacity="0.4" d="M189.948 121.35C190.602 114.222 190.828 107.061 190.624 99.9065C190.499 96.9506 189.19 94.2293 186.261 93.9075C185.476 93.8312 184.625 93.7657 183.791 93.7221C180.813 93.5119 177.824 93.5119 174.847 93.7221C173.876 93.8148 172.878 93.9348 171.929 94.0711C170.266 94.3041 168.749 95.1481 167.674 96.4387C166.599 97.7292 166.044 99.3738 166.116 101.052C166.203 102.988 163.143 107.471 166.917 110.066C167.239 112.864 166.814 117.641 166.95 122.506C164.398 126.896 155.857 130.277 155.116 134.537C154.069 140.579 160.597 142.853 166.803 143.262C185.814 144.604 195.325 141.986 189.948 121.35Z" fill="white"/>
<path opacity="0.6" d="M170.211 131.603C167.926 132.099 162.113 130.31 158.715 131.019C157.895 131.172 157.133 131.547 156.511 132.102C155.889 132.658 155.431 133.373 155.187 134.171C155.149 134.298 155.12 134.428 155.099 134.558C154.047 140.601 160.553 142.875 166.781 143.284C172.235 143.655 176.69 143.829 180.251 143.388C181.134 143.289 181.961 142.905 182.606 142.294C183.25 141.683 183.678 140.877 183.823 140.001C184.527 135.3 176.728 130.19 170.211 131.603Z" fill="#97ADFF"/>
<path opacity="0.3" d="M174.432 111.724C177.159 114.32 182.493 118.967 184.32 119.708C180.251 119.136 175.736 113.862 174.432 111.724Z" fill="#97ADFF"/>
<path opacity="0.3" d="M169.89 106.849C172.72 111.73 177.372 118.972 179.259 120.87C174.318 117.423 170.402 109.39 169.89 106.849Z" fill="#97ADFF"/>
<path d="M168.902 135.038C165.968 130.757 159.315 130.583 157.166 132.606C153.583 135.965 146.706 141.975 142.627 146.654C137.517 152.517 130.717 170.716 128.35 176.889C127.33 179.692 122.645 182.517 118.282 182.004C116.341 181.775 117.666 184.186 119.051 184.529C122.52 185.446 122.324 184.219 124.33 184.628C126.021 184.977 125.901 185.407 127.908 185.893C129.037 186.165 129.669 185.053 129.888 183.711C130.106 182.37 130.602 181.383 133.454 177.058C139.157 169.91 144.174 162.241 148.441 154.153C160.231 148.263 162.62 146.404 166.917 142.586C169.142 140.59 170.768 137.754 168.902 135.038Z" fill="#7F3E3B"/>
<path opacity="0.2" d="M168.902 135.038C168.589 134.582 168.234 134.155 167.844 133.762C166.61 134.301 165.471 135.038 164.474 135.944C160.858 139.27 154.074 145.487 151.833 147.762C150.158 149.39 149.122 151.565 148.915 153.891C160.297 148.187 162.702 146.327 166.912 142.553C169.142 140.596 170.768 137.754 168.902 135.038Z" fill="black"/>
<path d="M182.891 83.6711C182.345 86.5506 181.762 91.8242 183.774 93.7439C180.053 94.6441 176.642 96.5276 173.898 99.1974C171.875 95.4399 174.83 93.7439 174.83 93.7439C178.037 92.9804 177.955 90.5972 177.394 88.3612L182.891 83.6711Z" fill="#7F3E3B"/>
<path opacity="0.2" d="M180.649 85.5853L177.377 88.3612C177.517 88.8809 177.61 89.412 177.655 89.9482C178.877 89.7682 180.562 88.4212 180.693 87.1396C180.773 86.6231 180.758 86.0965 180.649 85.5853Z" fill="black"/>
<path d="M185.923 78.3921C184.8 83.0713 184.423 85.0782 181.653 87.0906C177.475 90.1228 172.087 87.7286 171.836 82.8095C171.596 78.3812 173.472 71.4716 178.348 70.3918C183.223 69.3119 187.057 73.7075 185.923 78.3921Z" fill="#7F3E3B"/>
<path d="M176.657 70.2336C179.024 74.5965 183.098 75.5127 183.174 78.5394C183.251 81.5661 188.312 82.7714 187.755 78.7303C187.199 74.6892 183.927 66.9397 176.657 70.2336Z" fill="#263238"/>
<path d="M177.241 70.0536C176.908 73.6584 179.504 73.6802 180.18 73.4348C177.268 74.5637 175.441 72.8458 175.818 70.8825C175.984 70.6525 176.196 70.4599 176.441 70.3171C176.686 70.1743 176.959 70.0845 177.241 70.0536Z" fill="#263238"/>
<path d="M178.615 78.4412C178.544 78.8284 178.283 79.1065 178.032 79.0574C177.781 79.0084 177.634 78.6648 177.699 78.283C177.764 77.9013 178.026 77.6177 178.283 77.6668C178.539 77.7159 178.681 78.0376 178.615 78.4412Z" fill="#263238"/>
<path d="M173.86 77.6723C173.794 78.054 173.532 78.3321 173.282 78.2885C173.031 78.2449 172.883 77.8959 172.949 77.5087C173.014 77.1215 173.276 76.8488 173.532 76.8924C173.789 76.936 173.931 77.2851 173.86 77.6723Z" fill="#263238"/>
<path d="M173.636 76.9469L172.758 76.5161C172.758 76.5161 173.107 77.3123 173.636 76.9469Z" fill="#263238"/>
<path d="M175.059 78.5393C174.565 79.3602 173.959 80.1089 173.26 80.7644C173.432 80.939 173.641 81.0743 173.87 81.1609C174.1 81.2475 174.346 81.2834 174.59 81.2661L175.059 78.5393Z" fill="#630F0F"/>
<path d="M176.554 83.0713C176.334 83.072 176.115 83.0519 175.899 83.0113C175.884 83.0094 175.87 83.0044 175.857 82.9966C175.844 82.9888 175.833 82.9785 175.824 82.9662C175.816 82.9539 175.809 82.9399 175.806 82.9251C175.803 82.9104 175.803 82.8952 175.807 82.8804C175.809 82.8655 175.814 82.8511 175.821 82.8382C175.829 82.8253 175.839 82.8141 175.852 82.8054C175.864 82.7967 175.878 82.7906 175.893 82.7876C175.908 82.7845 175.923 82.7846 175.937 82.7877C176.415 82.8837 176.908 82.8656 177.377 82.7348C177.846 82.604 178.278 82.3643 178.637 82.0351C178.648 82.0242 178.66 82.0156 178.674 82.0097C178.688 82.0038 178.704 82.0007 178.719 82.0007C178.734 82.0007 178.749 82.0038 178.763 82.0097C178.777 82.0156 178.79 82.0242 178.801 82.0351C178.821 82.0564 178.832 82.0847 178.832 82.1142C178.832 82.1436 178.821 82.172 178.801 82.1933C178.195 82.7682 177.389 83.0834 176.554 83.0713Z" fill="#263238"/>
<path d="M186.512 82.0841C186.251 82.4357 185.918 82.7278 185.535 82.9412C185.152 83.1546 184.729 83.2844 184.292 83.3221C183.202 83.3821 182.924 82.1223 183.48 81.0261C183.976 80.0445 185.154 78.8447 186.147 79.2864C187.139 79.7282 187.199 81.1679 186.512 82.0841Z" fill="#7F3E3B"/>
<path d="M180.808 77.0287C180.747 77.0112 180.695 76.9725 180.66 76.9196C180.522 76.6663 180.326 76.4492 180.089 76.2862C179.851 76.1232 179.577 76.0188 179.291 75.9816C179.261 75.9802 179.232 75.9729 179.205 75.96C179.177 75.9472 179.153 75.9291 179.133 75.9068C179.112 75.8846 179.097 75.8585 179.087 75.8301C179.076 75.8018 179.072 75.7717 179.073 75.7416C179.078 75.6804 179.106 75.6232 179.152 75.5824C179.197 75.5416 179.257 75.5205 179.319 75.5235C179.681 75.563 180.029 75.6898 180.332 75.893C180.635 76.0963 180.884 76.3699 181.058 76.6905C181.074 76.7162 181.084 76.7447 181.088 76.7744C181.093 76.8041 181.091 76.8343 181.083 76.8633C181.076 76.8923 181.062 76.9195 181.044 76.9432C181.026 76.9669 181.003 76.9867 180.977 77.0014C180.926 77.0315 180.865 77.0412 180.808 77.0287Z" fill="#263238"/>
<path d="M172.573 75.3872C172.514 75.3824 172.459 75.355 172.42 75.3109C172.379 75.2664 172.356 75.208 172.356 75.1472C172.356 75.0865 172.379 75.0281 172.42 74.9836C172.691 74.7378 173.017 74.5601 173.371 74.4653C173.725 74.3705 174.096 74.3612 174.454 74.4383C174.483 74.447 174.51 74.4614 174.534 74.4807C174.557 74.5001 174.577 74.5239 174.591 74.5508C174.605 74.5777 174.614 74.6072 174.617 74.6375C174.619 74.6678 174.616 74.6983 174.607 74.7273C174.599 74.7563 174.585 74.7833 174.566 74.8068C174.547 74.8303 174.524 74.8497 174.498 74.864C174.471 74.8782 174.442 74.887 174.412 74.8898C174.382 74.8925 174.352 74.8892 174.323 74.88C174.041 74.8217 173.748 74.8308 173.469 74.9066C173.191 74.9824 172.934 75.1228 172.72 75.3163C172.682 75.3581 172.629 75.3835 172.573 75.3872Z" fill="#263238"/>
<path d="M178.386 77.705L177.508 77.2742C177.508 77.2742 177.857 78.0813 178.386 77.705Z" fill="#263238"/>
<path d="M182.242 124.295L178.735 123.804L180.6 129.258C180.6 129.258 183.654 128.39 185.105 126.531L184.772 125.985C184.503 125.533 184.137 125.146 183.699 124.853C183.261 124.561 182.763 124.37 182.242 124.295Z" fill="#7F3E3B"/>
<path d="M176.974 127.218L177.808 128.854C177.983 129.199 178.282 129.466 178.645 129.601C179.007 129.736 179.407 129.731 179.766 129.585L180.6 129.241L178.735 123.788L177.208 125.467C176.995 125.7 176.858 125.993 176.816 126.306C176.774 126.619 176.829 126.937 176.974 127.218Z" fill="#7F3E3B"/>
<path d="M189.882 96.9724C190.58 98.2758 191.131 99.5138 191.698 100.79C192.266 102.066 192.751 103.38 193.214 104.716C194.197 107.456 194.849 110.303 195.156 113.197C195.156 113.584 195.21 113.966 195.221 114.364V114.664C195.233 114.845 195.233 115.028 195.221 115.209C195.196 115.523 195.142 115.833 195.058 116.136C194.802 117.042 194.4 117.9 193.869 118.678C193.028 119.922 192.057 121.074 190.973 122.113C188.966 124.071 186.775 125.83 184.429 127.365C184.124 127.568 183.756 127.654 183.393 127.606C183.03 127.558 182.696 127.379 182.455 127.104C182.214 126.828 182.08 126.475 182.08 126.108C182.08 125.742 182.213 125.388 182.455 125.113L182.487 125.075C184.205 123.106 185.945 121.077 187.455 119.076C188.177 118.13 188.821 117.127 189.381 116.076C189.573 115.718 189.709 115.331 189.784 114.931C189.784 114.887 189.784 114.855 189.784 114.871C189.782 114.884 189.782 114.897 189.784 114.909V114.707C189.757 114.435 189.713 114.162 189.67 113.868C189.208 111.443 188.512 109.068 187.592 106.778C187.139 105.584 186.637 104.4 186.136 103.217C185.634 102.033 185.045 100.839 184.549 99.7537L184.516 99.6938C184.196 98.9816 184.163 98.1735 184.424 97.4378C184.685 96.702 185.22 96.0953 185.917 95.7439C186.614 95.3926 187.42 95.3236 188.167 95.5514C188.914 95.7792 189.544 96.2863 189.926 96.967L189.882 96.9724Z" fill="#7F3E3B"/>
<path d="M181.217 135.049C178.842 132.998 175.764 131.948 172.631 132.121C169.498 132.294 166.554 133.676 164.42 135.976C161.077 139.576 157.025 144.02 152.967 148.7C146.903 155.658 138.444 180.014 137.872 180.974L140.598 182.904C147.643 174.711 153.737 165.747 158.764 156.182C170.555 150.292 177.012 146.289 181.282 142.472C181.807 142.004 182.226 141.429 182.51 140.786C182.795 140.143 182.94 139.447 182.934 138.744C182.929 138.041 182.773 137.347 182.478 136.709C182.182 136.071 181.754 135.503 181.222 135.044L181.217 135.049Z" fill="#7F3E3B"/>
<path d="M141.553 186.302C141.498 184.949 140.92 183.422 143.772 179.098C143.772 179.098 139.235 177.385 138.668 178.929C137.643 181.732 133.645 186.924 129.255 186.989C127.303 187.016 129.669 189.17 131.104 189.274C134.687 189.476 134.376 188.636 136.405 188.641C137.624 188.571 138.848 188.637 140.053 188.838C141.198 189.05 141.613 187.654 141.553 186.302Z" fill="#7F3E3B"/>
<path d="M186.61 93.9839C190.095 94.442 192.435 98.3467 194.556 104.46C192.764 107.728 189.982 110.344 186.61 111.932C184.805 108.387 183.011 103.631 182.678 101.024C182.345 98.4176 182.82 93.4822 186.61 93.9839Z" fill="#97ADFF"/>
<path opacity="0.4" d="M186.61 93.9839C190.095 94.442 192.435 98.3467 194.556 104.46C192.764 107.728 189.982 110.344 186.61 111.932C184.805 108.387 183.011 103.631 182.678 101.024C182.345 98.4176 182.82 93.4822 186.61 93.9839Z" fill="white"/>
<path d="M189.413 191.052C189.352 191.042 189.294 191.02 189.241 190.987C189.189 190.954 189.144 190.911 189.109 190.86C189.073 190.809 189.049 190.751 189.037 190.69C189.024 190.63 189.024 190.567 189.037 190.507L197.55 141.523C197.56 141.461 197.582 141.403 197.615 141.35C197.648 141.298 197.691 141.253 197.742 141.218C197.793 141.183 197.851 141.158 197.911 141.146C197.972 141.134 198.035 141.134 198.095 141.146C198.156 141.157 198.214 141.179 198.266 141.212C198.318 141.246 198.363 141.289 198.398 141.34C198.433 141.391 198.458 141.448 198.47 141.508C198.483 141.569 198.483 141.631 198.472 141.692L189.959 190.67C189.95 190.732 189.928 190.791 189.895 190.844C189.862 190.897 189.819 190.943 189.768 190.978C189.717 191.014 189.659 191.039 189.598 191.052C189.537 191.064 189.474 191.064 189.413 191.052Z" fill="#E0E0E0"/>
<path d="M191.611 141.583C191.612 141.462 191.661 141.346 191.747 141.26C191.832 141.175 191.948 141.126 192.069 141.125H198.024C198.146 141.125 198.262 141.173 198.348 141.259C198.434 141.345 198.483 141.461 198.483 141.583C198.483 141.643 198.472 141.703 198.449 141.759C198.426 141.815 198.393 141.865 198.35 141.908C198.307 141.951 198.257 141.985 198.201 142.007C198.145 142.03 198.085 142.041 198.024 142.041H192.069C191.948 142.041 191.831 141.992 191.745 141.907C191.659 141.821 191.611 141.704 191.611 141.583Z" fill="#E0E0E0"/>
<path d="M191.769 145.057H191.824C192.062 145.057 192.255 144.864 192.255 144.626V139.472C192.255 139.234 192.062 139.041 191.824 139.041H191.769C191.531 139.041 191.338 139.234 191.338 139.472V144.626C191.338 144.864 191.531 145.057 191.769 145.057Z" fill="#E0E0E0"/>
<path d="M194.556 174.893C194.557 175.356 194.421 175.809 194.164 176.195C193.907 176.58 193.542 176.881 193.114 177.059C192.687 177.237 192.216 177.283 191.761 177.193C191.307 177.103 190.89 176.88 190.562 176.553C190.235 176.225 190.012 175.808 189.922 175.354C189.831 174.899 189.878 174.428 190.056 174.001C190.234 173.573 190.534 173.208 190.92 172.951C191.306 172.694 191.759 172.558 192.222 172.559C192.841 172.559 193.435 172.805 193.872 173.242C194.31 173.68 194.556 174.274 194.556 174.893Z" fill="white"/>
<path d="M192.931 141.583C192.931 141.806 192.865 142.024 192.741 142.21C192.617 142.395 192.44 142.54 192.234 142.626C192.028 142.711 191.801 142.733 191.582 142.69C191.363 142.646 191.162 142.539 191.004 142.381C190.846 142.223 190.738 142.022 190.695 141.803C190.651 141.584 190.674 141.357 190.759 141.151C190.844 140.944 190.989 140.768 191.175 140.644C191.36 140.52 191.579 140.454 191.802 140.454C192.101 140.454 192.388 140.573 192.6 140.784C192.812 140.996 192.931 141.283 192.931 141.583Z" fill="white"/>
<path d="M182.176 141.255C181.899 141.15 181.631 141.022 181.375 140.874C181.145 140.74 180.962 140.54 180.848 140.301C180.734 140.061 180.696 139.792 180.738 139.53C180.78 139.268 180.9 139.025 181.083 138.832C181.266 138.64 181.502 138.507 181.762 138.452C185.181 137.705 191.617 136.211 194.392 135.18C193.449 137.76 187.385 141.004 185.405 141.392C184.336 141.633 183.222 141.586 182.176 141.255Z" fill="black"/>
<path d="M182.176 141.255C184.505 141.915 186.796 139.99 186.834 137.34C186.838 137.043 186.93 136.755 187.098 136.51C187.266 136.266 187.502 136.076 187.777 135.965C190.155 135.017 195.221 133.56 197.681 132.873C197.864 132.821 198.057 132.811 198.245 132.844C198.433 132.878 198.61 132.955 198.764 133.068C198.917 133.182 199.042 133.329 199.13 133.498C199.217 133.668 199.264 133.855 199.268 134.046C199.301 135.682 198.832 138.06 195.996 138.85C186.703 141.446 184.265 142.052 182.176 141.255Z" fill="#263238"/>
<path d="M152.082 36.1439C155.283 22.5834 146.884 8.99578 133.324 5.7952C119.763 2.59461 106.176 10.993 102.975 24.5536C99.7746 38.1142 108.173 51.7018 121.734 54.9023C135.294 58.1029 148.882 49.7045 152.082 36.1439Z" fill="#97ADFF"/>
<path d="M105.657 34.1801L94.9902 45.5507L110.489 46.2924L105.657 34.1801Z" fill="#97ADFF"/>
<path d="M149.147 35.4512C151.965 23.5116 144.571 11.5483 132.631 8.73035C120.692 5.91237 108.728 13.3068 105.91 25.2463C103.092 37.1859 110.487 49.1492 122.426 51.9672C134.366 54.7851 146.329 47.3907 149.147 35.4512Z" fill="white"/>
<path d="M112.344 26.3759C113.813 26.8529 115.243 27.4455 116.619 28.1484C117.986 28.8311 119.315 29.5866 120.6 30.4116C121.238 30.8315 121.882 31.246 122.498 31.7041C123.114 32.1622 123.731 32.6257 124.33 33.1057C125.56 34.0964 126.715 35.1754 127.788 36.3342L123.512 36.6232C124.682 34.734 126 32.9413 127.455 31.2623C128.881 29.6255 130.399 28.0723 132.004 26.6105C133.609 25.1629 135.297 23.8099 137.059 22.5585C138.83 21.2747 140.714 20.1539 142.687 19.21C141.596 21.146 140.391 22.9184 139.164 24.6635C137.937 26.4087 136.672 28.0884 135.412 29.7517L131.595 34.6599C130.34 36.296 129.119 37.8939 127.984 39.5027L125.879 42.4803L123.698 39.7917C122.847 38.7337 121.92 37.6703 120.971 36.5959L118.064 33.3238C117.088 32.2331 116.101 31.1424 115.136 29.9589C114.17 28.7755 113.276 27.6521 112.344 26.3759Z" fill="#97ADFF"/>
</svg>
